M48
;Layer_Color=6321
;FILE_FORMAT=2:3
INCH,LZ
;TYPE=PLATED
T1F00S00C0.006
T2F00S00C0.010
T3F00S00C0.013
T4F00S00C0.028
T5F00S00C0.050
T6F00S00C0.138
%
T01
X02536Y01495
X02525Y0162
T02
X069Y0187
X0609Y02239
X06091Y02391
X0478Y0308
X04625
X03085Y03065
X0293
X0172Y0202
X03455Y0389
X0515Y039
T03
X02429Y0154
X02474
X02595
X02636Y01541
X02684
X0273Y0154
X02844Y01541
X02889
X04698Y0273
Y02775
X04748
Y0273
X0475Y02865
X04749Y02911
X04701
Y02959
X04749
X0475Y03005
X047
Y02865
X05702Y02315
X05752
Y0226
X05702
X05865Y02265
X05911Y02266
Y02314
X05959
Y02266
X06005Y02265
Y02315
X05865
X06156Y02319
X06201
Y02269
X06156
X0305Y02727
Y02772
X03
Y02727
X03Y02855
X03001Y02901
X03049
Y02949
X03001
X03Y02995
X0305
Y02855
X02889Y01591
X02844
X0273Y0159
X02684Y01589
X02636
X02595Y0159
X02474
X02429
X02996Y03132
Y03177
X03051
Y03132
X04701Y03141
Y03186
X04751
Y03141
T04
X0607Y01398
X0672Y01425
X04545Y0172
X0442Y02175
X0409Y02365
X0387Y01665
X02465Y02425
X0192Y0248
X0385Y0315
X0386Y03745
X05575Y03725
X05565Y03155
X0605Y03579
X0587Y04035
X0655Y04036
X06555Y034
T05
X0414Y01415
X0434
X07155Y0168
Y0188
X07135Y0299
X0146Y02145
Y01945
X0338Y0415
X0358
X04945Y0416
X05145
X07135Y03926
Y03726
Y0319
T06
X01363Y0126
X0567
X01363Y04268
X07229
M30
