0
SECTION
2
HEADER
9
$INSUNITS
70
4
9
$ACADVER
1
AC1014
9
$HANDSEED
5
FFFF
0
ENDSEC
0
SECTION
2
TABLES
0
TABLE
2
VPORT
5
8
100
AcDbSymbolTable
0
ENDTAB
0
TABLE
2
LTYPE
5
5
100
AcDbSymbolTable
0
LTYPE
5
14
100
AcDbSymbolTableRecord
100
AcDbLinetypeTableRecord
2
BYBLOCK
70
0
0
LTYPE
5
15
100
AcDbSymbolTableRecord
100
AcDbLinetypeTableRecord
2
BYLAYER
70
0
0
ENDTAB
0
TABLE
2
LAYER
5
2
100
AcDbSymbolTable
70
2
0
LAYER
5
50
100
AcDbSymbolTableRecord
100
AcDbLayerTableRecord
2
0
70
0
6
CONTINUOUS
0
ENDTAB
0
TABLE
2
STYLE
5
3
100
AcDbSymbolTable
70
1
0
STYLE
5
11
100
AcDbSymbolTableRecord
100
AcDbTextStyleTableRecord
2
STANDARD
70
0
0
ENDTAB
0
TABLE
2
VIEW
5
6
100
AcDbSymbolTable
70
0
0
ENDTAB
0
TABLE
2
UCS
5
7
100
AcDbSymbolTable
70
0
0
ENDTAB
0
TABLE
2
APPID
5
9
100
AcDbSymbolTable
70
2
0
APPID
5
12
100
AcDbSymbolTableRecord
100
AcDbRegAppTableRecord
2
ACAD
70
0
0
ENDTAB
0
TABLE
2
DIMSTYLE
5
A
100
AcDbSymbolTable
70
1
0
ENDTAB
0
TABLE
2
BLOCK_RECORD
5
1
100
AcDbSymbolTable
70
1
0
BLOCK_RECORD
5
1F
100
AcDbSymbolTableRecord
100
AcDbBlockTableRecord
2
*MODEL_SPACE
0
BLOCK_RECORD
5
1B
100
AcDbSymbolTableRecord
100
AcDbBlockTableRecord
2
*PAPER_SPACE
0
ENDTAB
0
ENDSEC
0
SECTION
2
BLOCKS
0
BLOCK
5
20
100
AcDbEntity
100
AcDbBlockBegin
2
*MODEL_SPACE
0
ENDBLK
5
21
100
AcDbEntity
100
AcDbBlockEnd
0
BLOCK
5
1C
100
AcDbEntity
100
AcDbBlockBegin
2
*PAPER_SPACE
0
ENDBLK
5
1D
100
AcDbEntity
100
AcDbBlockEnd
0
ENDSEC
0
SECTION
2
ENTITIES
0
LINE
5
100
100
AcDbEntity
8
0
100
AcDbLine
10
0
20
0
30
0
11
25
21
0
31
0
0
LINE
5
101
100
AcDbEntity
8
0
100
AcDbLine
10
0
20
0
30
0
11
0
21
-25
31
0
0
LINE
5
102
100
AcDbEntity
8
0
100
AcDbLine
10
25
20
0
30
0
11
25
21
-6.2000000000000011
31
0
0
LINE
5
103
100
AcDbEntity
8
0
100
AcDbLine
10
25
20
-6.2000000000000011
30
0
11
50
21
-6.2000000000000011
31
0
0
LINE
5
104
100
AcDbEntity
8
0
100
AcDbLine
10
50
20
-6.2000000000000011
30
0
11
50
21
0
31
0
0
LINE
5
105
100
AcDbEntity
8
0
100
AcDbLine
10
50
20
0
30
0
11
75
21
0
31
0
0
LINE
5
106
100
AcDbEntity
8
0
100
AcDbLine
10
75
20
-6.2000000000000002
30
0
11
100
21
-6.2000000000000011
31
0
0
LINE
5
107
100
AcDbEntity
8
0
100
AcDbLine
10
75
20
0
30
0
11
75
21
-6.2000000000000002
31
0
0
LINE
5
108
100
AcDbEntity
8
0
100
AcDbLine
10
100
20
-6.2000000000000011
30
0
11
100
21
0
31
0
0
LINE
5
109
100
AcDbEntity
8
0
100
AcDbLine
10
125
20
-6.2000000000000002
30
0
11
150
21
-6.2000000000000011
31
0
0
LINE
5
110
100
AcDbEntity
8
0
100
AcDbLine
10
150
20
-6.2000000000000011
30
0
11
150
21
0
31
0
0
LINE
5
111
100
AcDbEntity
8
0
100
AcDbLine
10
100
20
0
30
0
11
125
21
0
31
0
0
LINE
5
112
100
AcDbEntity
8
0
100
AcDbLine
10
125
20
0
30
0
11
125
21
-6.2000000000000002
31
0
0
LINE
5
113
100
AcDbEntity
8
0
100
AcDbLine
10
200
20
-6.2000000000000011
30
0
11
200
21
0
31
0
0
LINE
5
114
100
AcDbEntity
8
0
100
AcDbLine
10
175
20
-6.2000000000000002
30
0
11
200
21
-6.2000000000000011
31
0
0
LINE
5
115
100
AcDbEntity
8
0
100
AcDbLine
10
150
20
0
30
0
11
175
21
0
31
0
0
LINE
5
116
100
AcDbEntity
8
0
100
AcDbLine
10
175
20
0
30
0
11
175
21
-6.2000000000000002
31
0
0
LINE
5
117
100
AcDbEntity
8
0
100
AcDbLine
10
225
20
-6.2000000000000002
30
0
11
250
21
-6.2000000000000011
31
0
0
LINE
5
118
100
AcDbEntity
8
0
100
AcDbLine
10
225
20
0
30
0
11
225
21
-6.2000000000000002
31
0
0
LINE
5
119
100
AcDbEntity
8
0
100
AcDbLine
10
250
20
-6.2000000000000011
30
0
11
250
21
0
31
0
0
LINE
5
120
100
AcDbEntity
8
0
100
AcDbLine
10
200
20
0
30
0
11
225
21
0
31
0
0
LINE
5
121
100
AcDbEntity
8
0
100
AcDbLine
10
250
20
0
30
0
11
275
21
0
31
0
0
LINE
5
122
100
AcDbEntity
8
0
100
AcDbLine
10
275
20
0
30
0
11
275
21
-25
31
0
0
LINE
5
123
100
AcDbEntity
8
0
100
AcDbLine
10
-4.0657581468206416e-19
20
-375.00000000000023
30
0
11
0
21
-350
31
0
0
LINE
5
124
100
AcDbEntity
8
0
100
AcDbLine
10
25.000000000000004
20
-375.00000000000023
30
0
11
-4.0657581468206416e-19
21
-375.00000000000023
31
0
0
LINE
5
125
100
AcDbEntity
8
0
100
AcDbLine
10
275
20
-375.00000000000006
30
0
11
275
21
-350.00000000000006
31
0
0
LINE
5
126
100
AcDbEntity
8
0
100
AcDbLine
10
0
20
-25
30
0
11
6.2000000000000011
21
-25
31
0
0
LINE
5
127
100
AcDbEntity
8
0
100
AcDbLine
10
6.2000000000000011
20
-25
30
0
11
6.2000000000000011
21
-50
31
0
0
LINE
5
128
100
AcDbEntity
8
0
100
AcDbLine
10
6.2000000000000011
20
-50
30
0
11
0
21
-50
31
0
0
LINE
5
129
100
AcDbEntity
8
0
100
AcDbLine
10
0
20
-50
30
0
11
0
21
-75
31
0
0
LINE
5
130
100
AcDbEntity
8
0
100
AcDbLine
10
6.2000000000000011
20
-75
30
0
11
6.2000000000000011
21
-100
31
0
0
LINE
5
131
100
AcDbEntity
8
0
100
AcDbLine
10
6.2000000000000011
20
-100
30
0
11
0
21
-100
31
0
0
LINE
5
132
100
AcDbEntity
8
0
100
AcDbLine
10
0
20
-75
30
0
11
6.2000000000000011
21
-75
31
0
0
LINE
5
133
100
AcDbEntity
8
0
100
AcDbLine
10
0
20
-100
30
0
11
0
21
-125
31
0
0
LINE
5
134
100
AcDbEntity
8
0
100
AcDbLine
10
6.2000000000000011
20
-200
30
0
11
0
21
-200
31
0
0
LINE
5
135
100
AcDbEntity
8
0
100
AcDbLine
10
0
20
-150
30
0
11
0
21
-175
31
0
0
LINE
5
136
100
AcDbEntity
8
0
100
AcDbLine
10
0
20
-125
30
0
11
6.2000000000000011
21
-125
31
0
0
LINE
5
137
100
AcDbEntity
8
0
100
AcDbLine
10
0
20
-200
30
0
11
0
21
-225
31
0
0
LINE
5
138
100
AcDbEntity
8
0
100
AcDbLine
10
6.2000000000000011
20
-125
30
0
11
6.2000000000000011
21
-150
31
0
0
LINE
5
139
100
AcDbEntity
8
0
100
AcDbLine
10
6.2000000000000011
20
-150
30
0
11
0
21
-150
31
0
0
LINE
5
140
100
AcDbEntity
8
0
100
AcDbLine
10
6.2000000000000011
20
-175
30
0
11
6.2000000000000011
21
-200
31
0
0
LINE
5
141
100
AcDbEntity
8
0
100
AcDbLine
10
0
20
-175
30
0
11
6.2000000000000011
21
-175
31
0
0
LINE
5
142
100
AcDbEntity
8
0
100
AcDbLine
10
0
20
-250
30
0
11
0
21
-275
31
0
0
LINE
5
143
100
AcDbEntity
8
0
100
AcDbLine
10
0
20
-225
30
0
11
6.2000000000000011
21
-225
31
0
0
LINE
5
144
100
AcDbEntity
8
0
100
AcDbLine
10
6.2000000000000011
20
-250
30
0
11
0
21
-250
31
0
0
LINE
5
145
100
AcDbEntity
8
0
100
AcDbLine
10
6.2000000000000011
20
-225
30
0
11
6.2000000000000011
21
-250
31
0
0
LINE
5
146
100
AcDbEntity
8
0
100
AcDbLine
10
0
20
-275
30
0
11
6.2000000000000011
21
-275
31
0
0
LINE
5
147
100
AcDbEntity
8
0
100
AcDbLine
10
6.2000000000000011
20
-300
30
0
11
0
21
-300
31
0
0
LINE
5
148
100
AcDbEntity
8
0
100
AcDbLine
10
0
20
-300
30
0
11
0
21
-325
31
0
0
LINE
5
149
100
AcDbEntity
8
0
100
AcDbLine
10
6.2000000000000011
20
-275
30
0
11
6.2000000000000011
21
-300
31
0
0
LINE
5
150
100
AcDbEntity
8
0
100
AcDbLine
10
6.2000000000000011
20
-325
30
0
11
6.2000000000000011
21
-350
31
0
0
LINE
5
151
100
AcDbEntity
8
0
100
AcDbLine
10
6.2000000000000011
20
-350
30
0
11
0
21
-350
31
0
0
LINE
5
152
100
AcDbEntity
8
0
100
AcDbLine
10
0
20
-325
30
0
11
6.2000000000000011
21
-325
31
0
0
LINE
5
153
100
AcDbEntity
8
0
100
AcDbLine
10
268.79999999999995
20
-25.000000000000053
30
0
11
274.99999999999994
21
-25.000000000000053
31
0
0
LINE
5
154
100
AcDbEntity
8
0
100
AcDbLine
10
268.80000000000001
20
-325.00000000000006
30
0
11
275
21
-325.00000000000006
31
0
0
LINE
5
155
100
AcDbEntity
8
0
100
AcDbLine
10
275
20
-100.00000000000001
30
0
11
268.80000000000001
21
-100.00000000000001
31
0
0
LINE
5
156
100
AcDbEntity
8
0
100
AcDbLine
10
274.99999999999994
20
-50.000000000000057
30
0
11
268.79999999999995
21
-50.000000000000057
31
0
0
LINE
5
157
100
AcDbEntity
8
0
100
AcDbLine
10
274.99999999999994
20
-75.000000000000014
30
0
11
274.99999999999994
21
-50.000000000000057
31
0
0
LINE
5
158
100
AcDbEntity
8
0
100
AcDbLine
10
275
20
-300.00000000000006
30
0
11
268.80000000000001
21
-300.00000000000006
31
0
0
LINE
5
159
100
AcDbEntity
8
0
100
AcDbLine
10
268.80000000000001
20
-300.00000000000006
30
0
11
268.80000000000001
21
-275.00000000000006
31
0
0
LINE
5
160
100
AcDbEntity
8
0
100
AcDbLine
10
268.80000000000001
20
-150.00000000000003
30
0
11
268.80000000000001
21
-125.00000000000001
31
0
0
LINE
5
161
100
AcDbEntity
8
0
100
AcDbLine
10
268.80000000000001
20
-250.00000000000006
30
0
11
268.80000000000001
21
-225.00000000000006
31
0
0
LINE
5
162
100
AcDbEntity
8
0
100
AcDbLine
10
275
20
-325.00000000000006
30
0
11
275
21
-300.00000000000006
31
0
0
LINE
5
163
100
AcDbEntity
8
0
100
AcDbLine
10
268.80000000000001
20
-200
30
0
11
268.80000000000001
21
-175
31
0
0
LINE
5
164
100
AcDbEntity
8
0
100
AcDbLine
10
275
20
-200
30
0
11
268.80000000000001
21
-200
31
0
0
LINE
5
165
100
AcDbEntity
8
0
100
AcDbLine
10
275
20
-175
30
0
11
275
21
-150.00000000000003
31
0
0
LINE
5
166
100
AcDbEntity
8
0
100
AcDbLine
10
268.80000000000001
20
-100.00000000000001
30
0
11
268.79999999999995
21
-75.000000000000014
31
0
0
LINE
5
167
100
AcDbEntity
8
0
100
AcDbLine
10
268.80000000000001
20
-275.00000000000006
30
0
11
275
21
-275.00000000000006
31
0
0
LINE
5
168
100
AcDbEntity
8
0
100
AcDbLine
10
275
20
-225.00000000000006
30
0
11
275
21
-200
31
0
0
LINE
5
169
100
AcDbEntity
8
0
100
AcDbLine
10
268.79999999999995
20
-75.000000000000014
30
0
11
274.99999999999994
21
-75.000000000000014
31
0
0
LINE
5
170
100
AcDbEntity
8
0
100
AcDbLine
10
275
20
-250.00000000000006
30
0
11
268.80000000000001
21
-250.00000000000006
31
0
0
LINE
5
171
100
AcDbEntity
8
0
100
AcDbLine
10
275
20
-350.00000000000006
30
0
11
268.80000000000001
21
-350.00000000000006
31
0
0
LINE
5
172
100
AcDbEntity
8
0
100
AcDbLine
10
268.80000000000001
20
-225.00000000000006
30
0
11
275
21
-225.00000000000006
31
0
0
LINE
5
173
100
AcDbEntity
8
0
100
AcDbLine
10
268.80000000000001
20
-175
30
0
11
275
21
-175
31
0
0
LINE
5
174
100
AcDbEntity
8
0
100
AcDbLine
10
275
20
-150.00000000000003
30
0
11
268.80000000000001
21
-150.00000000000003
31
0
0
LINE
5
175
100
AcDbEntity
8
0
100
AcDbLine
10
275
20
-275.00000000000006
30
0
11
275
21
-250.00000000000006
31
0
0
LINE
5
176
100
AcDbEntity
8
0
100
AcDbLine
10
268.80000000000001
20
-350.00000000000006
30
0
11
268.80000000000001
21
-325.00000000000006
31
0
0
LINE
5
177
100
AcDbEntity
8
0
100
AcDbLine
10
275
20
-125.00000000000001
30
0
11
275
21
-100.00000000000001
31
0
0
LINE
5
178
100
AcDbEntity
8
0
100
AcDbLine
10
268.80000000000001
20
-125.00000000000001
30
0
11
275
21
-125.00000000000001
31
0
0
LINE
5
179
100
AcDbEntity
8
0
100
AcDbLine
10
268.79999999999995
20
-50.000000000000057
30
0
11
268.79999999999995
21
-25.000000000000053
31
0
0
LINE
5
180
100
AcDbEntity
8
0
100
AcDbLine
10
25.000000000000004
20
-375.00000000000023
30
0
11
25.000000000000004
21
-368.80000000000024
31
0
0
LINE
5
181
100
AcDbEntity
8
0
100
AcDbLine
10
275
20
-375.00000000000006
30
0
11
250
21
-375.00000000000006
31
0
0
LINE
5
182
100
AcDbEntity
8
0
100
AcDbLine
10
25.000000000000004
20
-368.80000000000024
30
0
11
50
21
-368.80000000000024
31
0
0
LINE
5
183
100
AcDbEntity
8
0
100
AcDbLine
10
50
20
-368.80000000000024
30
0
11
50
21
-375.00000000000023
31
0
0
LINE
5
184
100
AcDbEntity
8
0
100
AcDbLine
10
50
20
-375.00000000000023
30
0
11
75
21
-375.00000000000023
31
0
0
LINE
5
185
100
AcDbEntity
8
0
100
AcDbLine
10
75
20
-375.00000000000023
30
0
11
75
21
-368.80000000000024
31
0
0
LINE
5
186
100
AcDbEntity
8
0
100
AcDbLine
10
75
20
-368.80000000000024
30
0
11
100
21
-368.80000000000024
31
0
0
LINE
5
187
100
AcDbEntity
8
0
100
AcDbLine
10
100
20
-368.80000000000024
30
0
11
100
21
-375.00000558793545
31
0
0
LINE
5
188
100
AcDbEntity
8
0
100
AcDbLine
10
100
20
-375.00000558793545
30
0
11
125
21
-375.00000558793545
31
0
0
LINE
5
189
100
AcDbEntity
8
0
100
AcDbLine
10
125
20
-375.00000558793545
30
0
11
125
21
-368.80000558793546
31
0
0
LINE
5
190
100
AcDbEntity
8
0
100
AcDbLine
10
125
20
-368.80000558793546
30
0
11
150
21
-368.80000558793546
31
0
0
LINE
5
191
100
AcDbEntity
8
0
100
AcDbLine
10
150
20
-368.80000558793546
30
0
11
150
21
-375.00000558793545
31
0
0
LINE
5
192
100
AcDbEntity
8
0
100
AcDbLine
10
150
20
-375.00000558793545
30
0
11
175
21
-375.00000558793545
31
0
0
LINE
5
193
100
AcDbEntity
8
0
100
AcDbLine
10
175
20
-375.00000558793545
30
0
11
175
21
-368.80000558793546
31
0
0
LINE
5
194
100
AcDbEntity
8
0
100
AcDbLine
10
175
20
-368.80000558793546
30
0
11
200
21
-368.80000558793546
31
0
0
LINE
5
195
100
AcDbEntity
8
0
100
AcDbLine
10
200
20
-368.80000558793546
30
0
11
200
21
-375.00000558793545
31
0
0
LINE
5
196
100
AcDbEntity
8
0
100
AcDbLine
10
200
20
-375.00000558793545
30
0
11
225
21
-375.00000558793545
31
0
0
LINE
5
197
100
AcDbEntity
8
0
100
AcDbLine
10
225
20
-375.00000558793545
30
0
11
225
21
-368.80000558793546
31
0
0
LINE
5
198
100
AcDbEntity
8
0
100
AcDbLine
10
225
20
-368.80000558793546
30
0
11
250
21
-368.80000558793546
31
0
0
LINE
5
199
100
AcDbEntity
8
0
100
AcDbLine
10
250
20
-368.80000558793546
30
0
11
250
21
-375.00000000000006
31
0
0
LINE
5
200
100
AcDbEntity
8
0
100
AcDbLine
10
413.79999999999995
20
-50.000000000000014
30
0
11
420
21
-50.000000000000014
31
0
0
LINE
5
201
100
AcDbEntity
8
0
100
AcDbLine
10
413.79999999999995
20
-75.000000000000014
30
0
11
413.79999999999995
21
-50.000000000000014
31
0
0
LINE
5
202
100
AcDbEntity
8
0
100
AcDbLine
10
420
20
-100.00000000000001
30
0
11
420
21
-75.000000000000014
31
0
0
LINE
5
203
100
AcDbEntity
8
0
100
AcDbLine
10
420
20
-75.000000000000014
30
0
11
413.79999999999995
21
-75.000000000000014
31
0
0
LINE
5
204
100
AcDbEntity
8
0
100
AcDbLine
10
413.79999999999995
20
-100.00000000000001
30
0
11
420
21
-100.00000000000001
31
0
0
LINE
5
205
100
AcDbEntity
8
0
100
AcDbLine
10
413.79999999999995
20
-125.00000000000001
30
0
11
413.79999999999995
21
-100.00000000000001
31
0
0
LINE
5
206
100
AcDbEntity
8
0
100
AcDbLine
10
420
20
-150
30
0
11
420
21
-125.00000000000001
31
0
0
LINE
5
207
100
AcDbEntity
8
0
100
AcDbLine
10
420
20
-125.00000000000001
30
0
11
413.79999999999995
21
-125.00000000000001
31
0
0
LINE
5
208
100
AcDbEntity
8
0
100
AcDbLine
10
420
20
-175
30
0
11
413.79999999999995
21
-175
31
0
0
LINE
5
209
100
AcDbEntity
8
0
100
AcDbLine
10
413.79999999999995
20
-175
30
0
11
413.79999999999995
21
-150
31
0
0
LINE
5
210
100
AcDbEntity
8
0
100
AcDbLine
10
413.79999999999995
20
-150
30
0
11
420
21
-150
31
0
0
LINE
5
211
100
AcDbEntity
8
0
100
AcDbLine
10
413.79999999999995
20
-225.00000000000006
30
0
11
413.79999999999995
21
-200.00000000000006
31
0
0
LINE
5
212
100
AcDbEntity
8
0
100
AcDbLine
10
420
20
-50.000000000000014
30
0
11
420
21
-25.000000000000053
31
0
0
LINE
5
213
100
AcDbEntity
8
0
100
AcDbLine
10
301.19999999999999
20
-250
30
0
11
301.19999999999999
21
-275
31
0
0
LINE
5
214
100
AcDbEntity
8
0
100
AcDbLine
10
301.19999999999999
20
-275
30
0
11
295
21
-275
31
0
0
LINE
5
215
100
AcDbEntity
8
0
100
AcDbLine
10
295
20
-250
30
0
11
301.19999999999999
21
-250
31
0
0
LINE
5
216
100
AcDbEntity
8
0
100
AcDbLine
10
295
20
-225
30
0
11
295
21
-250
31
0
0
LINE
5
217
100
AcDbEntity
8
0
100
AcDbLine
10
295
20
-300
30
0
11
301.19999999999999
21
-300
31
0
0
LINE
5
218
100
AcDbEntity
8
0
100
AcDbLine
10
413.79999999999995
20
-250.00000000000006
30
0
11
420
21
-250.00000000000006
31
0
0
LINE
5
219
100
AcDbEntity
8
0
100
AcDbLine
10
395
20
-368.80000558793546
30
0
11
395
21
-375.00000558793545
31
0
0
LINE
5
220
100
AcDbEntity
8
0
100
AcDbLine
10
413.79999999999995
20
-200.00000000000006
30
0
11
420
21
-200.00000000000006
31
0
0
LINE
5
221
100
AcDbEntity
8
0
100
AcDbLine
10
301.19999999999999
20
-300
30
0
11
301.19999999999999
21
-325
31
0
0
LINE
5
222
100
AcDbEntity
8
0
100
AcDbLine
10
320
20
-375.00000000000023
30
0
11
320
21
-368.80000000000024
31
0
0
LINE
5
223
100
AcDbEntity
8
0
100
AcDbLine
10
301.19999999999999
20
-325
30
0
11
295
21
-325
31
0
0
LINE
5
224
100
AcDbEntity
8
0
100
AcDbLine
10
420
20
-350.00000000000006
30
0
11
420
21
-325.00000000000006
31
0
0
LINE
5
225
100
AcDbEntity
8
0
100
AcDbLine
10
420
20
-275.00000000000006
30
0
11
413.79999999999995
21
-275.00000000000006
31
0
0
LINE
5
226
100
AcDbEntity
8
0
100
AcDbLine
10
413.79999999999995
20
-275.00000000000006
30
0
11
413.79999999999995
21
-250.00000000000006
31
0
0
LINE
5
227
100
AcDbEntity
8
0
100
AcDbLine
10
420
20
-300.00000000000006
30
0
11
420
21
-275.00000000000006
31
0
0
LINE
5
228
100
AcDbEntity
8
0
100
AcDbLine
10
413.79999999999995
20
-325.00000000000006
30
0
11
413.79999999999995
21
-300.00000000000006
31
0
0
LINE
5
229
100
AcDbEntity
8
0
100
AcDbLine
10
420
20
-200.00000000000006
30
0
11
420
21
-175
31
0
0
LINE
5
230
100
AcDbEntity
8
0
100
AcDbLine
10
420
20
-25.000000000000053
30
0
11
413.79999999999995
21
-25.000000000000053
31
0
0
LINE
5
231
100
AcDbEntity
8
0
100
AcDbLine
10
420
20
-250.00000000000006
30
0
11
420
21
-225.00000000000006
31
0
0
LINE
5
232
100
AcDbEntity
8
0
100
AcDbLine
10
413.79999999999995
20
-300.00000000000006
30
0
11
420
21
-300.00000000000006
31
0
0
LINE
5
233
100
AcDbEntity
8
0
100
AcDbLine
10
370
20
-368.80000558793546
30
0
11
395
21
-368.80000558793546
31
0
0
LINE
5
234
100
AcDbEntity
8
0
100
AcDbLine
10
370
20
-6.1999999999999345
30
0
11
395
21
-6.1999999999999496
31
0
0
LINE
5
235
100
AcDbEntity
8
0
100
AcDbLine
10
420
20
-325.00000000000006
30
0
11
413.79999999999995
21
-325.00000000000006
31
0
0
LINE
5
236
100
AcDbEntity
8
0
100
AcDbLine
10
295
20
-275
30
0
11
295
21
-300
31
0
0
LINE
5
237
100
AcDbEntity
8
0
100
AcDbLine
10
413.79999999999995
20
-25.000000000000053
30
0
11
413.79999999999995
21
-5.3290705182007514e-14
31
0
0
LINE
5
238
100
AcDbEntity
8
0
100
AcDbLine
10
420
20
-225.00000000000006
30
0
11
413.79999999999995
21
-225.00000000000006
31
0
0
LINE
5
239
100
AcDbEntity
8
0
100
AcDbLine
10
301.19999999999999
20
-100
30
0
11
301.19999999999999
21
-125
31
0
0
LINE
5
240
100
AcDbEntity
8
0
100
AcDbLine
10
301.19999999999999
20
-225
30
0
11
295
21
-225
31
0
0
LINE
5
241
100
AcDbEntity
8
0
100
AcDbLine
10
301.19999999999999
20
-175
30
0
11
295
21
-175
31
0
0
LINE
5
242
100
AcDbEntity
8
0
100
AcDbLine
10
345
20
-6.1999999999999966
30
0
11
345
21
0
31
0
0
LINE
5
243
100
AcDbEntity
8
0
100
AcDbLine
10
301.19999999999999
20
-200
30
0
11
301.19999999999999
21
-225
31
0
0
LINE
5
244
100
AcDbEntity
8
0
100
AcDbLine
10
295
20
-200
30
0
11
301.19999999999999
21
-200
31
0
0
LINE
5
245
100
AcDbEntity
8
0
100
AcDbLine
10
320
20
0
30
0
11
320
21
-6.1999999999999957
31
0
0
LINE
5
246
100
AcDbEntity
8
0
100
AcDbLine
10
301.19999999999999
20
-125
30
0
11
295
21
-125
31
0
0
LINE
5
247
100
AcDbEntity
8
0
100
AcDbLine
10
295
20
-125
30
0
11
295
21
-150
31
0
0
LINE
5
248
100
AcDbEntity
8
0
100
AcDbLine
10
295
20
-150
30
0
11
301.19999999999999
21
-150
31
0
0
LINE
5
249
100
AcDbEntity
8
0
100
AcDbLine
10
301.19999999999999
20
-350
30
0
11
301.19999999999999
21
-375
31
0
0
LINE
5
250
100
AcDbEntity
8
0
100
AcDbLine
10
301.19999999999999
20
-150
30
0
11
301.19999999999999
21
-175
31
0
0
LINE
5
251
100
AcDbEntity
8
0
100
AcDbLine
10
345
20
-375.00000558793545
30
0
11
370
21
-375.00000558793545
31
0
0
LINE
5
252
100
AcDbEntity
8
0
100
AcDbLine
10
320
20
-368.80000000000024
30
0
11
345
21
-368.80000000000024
31
0
0
LINE
5
253
100
AcDbEntity
8
0
100
AcDbLine
10
345
20
0
30
0
11
370
21
0
31
0
0
LINE
5
254
100
AcDbEntity
8
0
100
AcDbLine
10
370
20
0
30
0
11
370
21
-6.1999999999999345
31
0
0
LINE
5
255
100
AcDbEntity
8
0
100
AcDbLine
10
320
20
-6.1999999999999957
30
0
11
345
21
-6.1999999999999966
31
0
0
LINE
5
256
100
AcDbEntity
8
0
100
AcDbLine
10
345
20
-368.80000000000024
30
0
11
345
21
-375.00000558793545
31
0
0
LINE
5
257
100
AcDbEntity
8
0
100
AcDbLine
10
295
20
-325
30
0
11
295
21
-350
31
0
0
LINE
5
258
100
AcDbEntity
8
0
100
AcDbLine
10
295
20
-175
30
0
11
295
21
-200
31
0
0
LINE
5
259
100
AcDbEntity
8
0
100
AcDbLine
10
295
20
-350
30
0
11
301.19999999999999
21
-350
31
0
0
LINE
5
260
100
AcDbEntity
8
0
100
AcDbLine
10
395
20
-6.1999999999999496
30
0
11
395
21
0
31
0
0
LINE
5
261
100
AcDbEntity
8
0
100
AcDbLine
10
370
20
-375.00000558793545
30
0
11
370
21
-368.80000558793546
31
0
0
LINE
5
262
100
AcDbEntity
8
0
100
AcDbLine
10
301.19999999999999
20
-50
30
0
11
301.19999999999999
21
-75
31
0
0
LINE
5
263
100
AcDbEntity
8
0
100
AcDbLine
10
295
20
-75
30
0
11
295
21
-100
31
0
0
LINE
5
264
100
AcDbEntity
8
0
100
AcDbLine
10
301.19999999999999
20
-75
30
0
11
295
21
-75
31
0
0
LINE
5
265
100
AcDbEntity
8
0
100
AcDbLine
10
295
20
-100
30
0
11
301.19999999999999
21
-100
31
0
0
LINE
5
266
100
AcDbEntity
8
0
100
AcDbLine
10
395
20
0
30
0
11
413.80000000000001
21
0
31
0
0
LINE
5
267
100
AcDbEntity
8
0
100
AcDbLine
10
320
20
0
30
0
11
301.19999999999999
21
0
31
0
0
LINE
5
268
100
AcDbEntity
8
0
100
AcDbLine
10
395
20
-375.00000558793545
30
0
11
413.80000000000001
21
-375.00000558793545
31
0
0
LINE
5
269
100
AcDbEntity
8
0
100
AcDbLine
10
320
20
-375.00000000000023
30
0
11
301.19999999999999
21
-375.00000000000023
31
0
0
LINE
5
270
100
AcDbEntity
8
0
100
AcDbLine
10
301.19999999999999
20
-50
30
0
11
295
21
-50
31
0
0
LINE
5
271
100
AcDbEntity
8
0
100
AcDbLine
10
295
20
-50
30
0
11
295
21
-25
31
0
0
LINE
5
272
100
AcDbEntity
8
0
100
AcDbLine
10
295
20
-25
30
0
11
301.19999999999999
21
-25
31
0
0
LINE
5
273
100
AcDbEntity
8
0
100
AcDbLine
10
301.19999999999999
20
-25
30
0
11
301.19999999999999
21
0
31
0
0
LINE
5
274
100
AcDbEntity
8
0
100
AcDbLine
10
420
20
-350.00000000000006
30
0
11
413.80000000000001
21
-350.00000000000006
31
0
0
LINE
5
275
100
AcDbEntity
8
0
100
AcDbLine
10
413.80000000000001
20
-350.00000000000006
30
0
11
413.80000000000001
21
-375.00000558793545
31
0
0
LINE
5
276
100
AcDbEntity
8
0
100
AcDbLine
10
535
20
0
30
0
11
535
21
-6.1999999999999122
31
0
0
LINE
5
277
100
AcDbEntity
8
0
100
AcDbLine
10
510
20
0
30
0
11
535
21
0
31
0
0
LINE
5
278
100
AcDbEntity
8
0
100
AcDbLine
10
485
20
-6.199999999999922
30
0
11
510
21
-6.1999999999999407
31
0
0
LINE
5
279
100
AcDbEntity
8
0
100
AcDbLine
10
460
20
-6.1999999999999966
30
0
11
460
21
0
31
0
0
LINE
5
280
100
AcDbEntity
8
0
100
AcDbLine
10
460
20
0
30
0
11
485
21
0
31
0
0
LINE
5
281
100
AcDbEntity
8
0
100
AcDbLine
10
485
20
0
30
0
11
485
21
-6.199999999999922
31
0
0
LINE
5
282
100
AcDbEntity
8
0
100
AcDbLine
10
510
20
-6.1999999999999407
30
0
11
510
21
0
31
0
0
LINE
5
283
100
AcDbEntity
8
0
100
AcDbLine
10
535
20
-6.1999999999999122
30
0
11
553.79999999999995
21
-6.1999999999999886
31
0
0
LINE
5
284
100
AcDbEntity
8
0
100
AcDbLine
10
460
20
-6.1999999999999966
30
0
11
441.19999999999999
21
-6.1999999999999966
31
0
0
LINE
5
285
100
AcDbEntity
8
0
100
AcDbLine
10
485
20
-268.80000558793546
30
0
11
510
21
-268.80000558793546
31
0
0
LINE
5
286
100
AcDbEntity
8
0
100
AcDbLine
10
485
20
-275.00000558793545
30
0
11
485
21
-268.80000558793546
31
0
0
LINE
5
287
100
AcDbEntity
8
0
100
AcDbLine
10
460
20
-275.00000558793545
30
0
11
485
21
-275.00000558793545
31
0
0
LINE
5
288
100
AcDbEntity
8
0
100
AcDbLine
10
510
20
-275.00000558793545
30
0
11
535
21
-275.00000558793545
31
0
0
LINE
5
289
100
AcDbEntity
8
0
100
AcDbLine
10
510
20
-268.80000558793546
30
0
11
510
21
-275.00000558793545
31
0
0
LINE
5
290
100
AcDbEntity
8
0
100
AcDbLine
10
535
20
-275.00000558793545
30
0
11
535
21
-268.80000558793546
31
0
0
LINE
5
291
100
AcDbEntity
8
0
100
AcDbLine
10
460
20
-268.80000000000024
30
0
11
460
21
-275.00000558793545
31
0
0
LINE
5
292
100
AcDbEntity
8
0
100
AcDbLine
10
460
20
-268.80000000000024
30
0
11
441.19999999999999
21
-268.80000000000024
31
0
0
LINE
5
293
100
AcDbEntity
8
0
100
AcDbLine
10
535
20
-268.80000558793546
30
0
11
553.79999999999995
21
-268.80000558793546
31
0
0
LINE
5
294
100
AcDbEntity
8
0
100
AcDbLine
10
441.19999999999999
20
-6.1999999999999966
30
0
11
441.19999999999999
21
-25
31
0
0
LINE
5
295
100
AcDbEntity
8
0
100
AcDbLine
10
553.79999999999995
20
-6.1999999999999886
30
0
11
553.79999999999995
21
-24.999999999999915
31
0
0
LINE
5
296
100
AcDbEntity
8
0
100
AcDbLine
10
441.19999999999999
20
-268.80000000000024
30
0
11
441.19999999999999
21
-250.00000000000023
31
0
0
LINE
5
297
100
AcDbEntity
8
0
100
AcDbLine
10
553.79999999999995
20
-268.80000558793546
30
0
11
553.79999999999995
21
-250.00000558793545
31
0
0
LINE
5
298
100
AcDbEntity
8
0
100
AcDbLine
10
435
20
-100
30
0
11
441.19999999999999
21
-100
31
0
0
LINE
5
299
100
AcDbEntity
8
0
100
AcDbLine
10
441.19999999999999
20
-125
30
0
11
435
21
-125
31
0
0
LINE
5
300
100
AcDbEntity
8
0
100
AcDbLine
10
435
20
-125
30
0
11
435
21
-150
31
0
0
LINE
5
301
100
AcDbEntity
8
0
100
AcDbLine
10
435
20
-175
30
0
11
435
21
-200
31
0
0
LINE
5
302
100
AcDbEntity
8
0
100
AcDbLine
10
441.19999999999999
20
-175
30
0
11
435
21
-175
31
0
0
LINE
5
303
100
AcDbEntity
8
0
100
AcDbLine
10
441.19999999999999
20
-100
30
0
11
441.19999999999999
21
-125
31
0
0
LINE
5
304
100
AcDbEntity
8
0
100
AcDbLine
10
435
20
-150
30
0
11
441.19999999999999
21
-150
31
0
0
LINE
5
305
100
AcDbEntity
8
0
100
AcDbLine
10
441.19999999999999
20
-150
30
0
11
441.19999999999999
21
-175
31
0
0
LINE
5
306
100
AcDbEntity
8
0
100
AcDbLine
10
435
20
-200
30
0
11
441.19999999999999
21
-200
31
0
0
LINE
5
307
100
AcDbEntity
8
0
100
AcDbLine
10
435
20
-50
30
0
11
441.19999999999999
21
-50
31
0
0
LINE
5
308
100
AcDbEntity
8
0
100
AcDbLine
10
441.19999999999999
20
-200
30
0
11
441.19999999999999
21
-225
31
0
0
LINE
5
309
100
AcDbEntity
8
0
100
AcDbLine
10
435
20
-25
30
0
11
435
21
-50
31
0
0
LINE
5
310
100
AcDbEntity
8
0
100
AcDbLine
10
435
20
-75
30
0
11
435
21
-100
31
0
0
LINE
5
311
100
AcDbEntity
8
0
100
AcDbLine
10
441.19999999999999
20
-25
30
0
11
435
21
-25
31
0
0
LINE
5
312
100
AcDbEntity
8
0
100
AcDbLine
10
441.19999999999999
20
-50
30
0
11
441.19999999999999
21
-75
31
0
0
LINE
5
313
100
AcDbEntity
8
0
100
AcDbLine
10
441.19999999999999
20
-225
30
0
11
435
21
-225
31
0
0
LINE
5
314
100
AcDbEntity
8
0
100
AcDbLine
10
435
20
-250
30
0
11
441.19999999999999
21
-250
31
0
0
LINE
5
315
100
AcDbEntity
8
0
100
AcDbLine
10
441.19999999999999
20
-75
30
0
11
435
21
-75
31
0
0
LINE
5
316
100
AcDbEntity
8
0
100
AcDbLine
10
435
20
-225
30
0
11
435
21
-250
31
0
0
LINE
5
317
100
AcDbEntity
8
0
100
AcDbLine
10
553.79999999999995
20
-100
30
0
11
553.79999999999995
21
-125
31
0
0
LINE
5
318
100
AcDbEntity
8
0
100
AcDbLine
10
560
20
-100
30
0
11
553.79999999999995
21
-100
31
0
0
LINE
5
319
100
AcDbEntity
8
0
100
AcDbLine
10
560
20
-74.999999999999986
30
0
11
560
21
-100
31
0
0
LINE
5
320
100
AcDbEntity
8
0
100
AcDbLine
10
560
20
-50
30
0
11
553.79999999999995
21
-50
31
0
0
LINE
5
321
100
AcDbEntity
8
0
100
AcDbLine
10
560
20
-125
30
0
11
560
21
-150
31
0
0
LINE
5
322
100
AcDbEntity
8
0
100
AcDbLine
10
553.79999999999995
20
-25
30
0
11
560
21
-25
31
0
0
LINE
5
323
100
AcDbEntity
8
0
100
AcDbLine
10
560
20
-25
30
0
11
560
21
-50
31
0
0
LINE
5
324
100
AcDbEntity
8
0
100
AcDbLine
10
553.79999999999995
20
-74.999999999999986
30
0
11
560
21
-74.999999999999986
31
0
0
LINE
5
325
100
AcDbEntity
8
0
100
AcDbLine
10
553.79999999999995
20
-50
30
0
11
553.79999999999995
21
-74.999999999999986
31
0
0
LINE
5
326
100
AcDbEntity
8
0
100
AcDbLine
10
553.79999999999995
20
-125
30
0
11
560
21
-125
31
0
0
LINE
5
327
100
AcDbEntity
8
0
100
AcDbLine
10
560
20
-175
30
0
11
560
21
-200
31
0
0
LINE
5
328
100
AcDbEntity
8
0
100
AcDbLine
10
560
20
-250
30
0
11
553.79999999999995
21
-250
31
0
0
LINE
5
329
100
AcDbEntity
8
0
100
AcDbLine
10
560
20
-200
30
0
11
553.79999999999995
21
-200
31
0
0
LINE
5
330
100
AcDbEntity
8
0
100
AcDbLine
10
553.79999999999995
20
-175
30
0
11
560
21
-175
31
0
0
LINE
5
331
100
AcDbEntity
8
0
100
AcDbLine
10
560
20
-150
30
0
11
553.79999999999995
21
-150
31
0
0
LINE
5
332
100
AcDbEntity
8
0
100
AcDbLine
10
560
20
-225
30
0
11
560
21
-250
31
0
0
LINE
5
333
100
AcDbEntity
8
0
100
AcDbLine
10
553.79999999999995
20
-200
30
0
11
553.79999999999995
21
-225
31
0
0
LINE
5
334
100
AcDbEntity
8
0
100
AcDbLine
10
553.79999999999995
20
-150
30
0
11
553.79999999999995
21
-175
31
0
0
LINE
5
335
100
AcDbEntity
8
0
100
AcDbLine
10
553.79999999999995
20
-225
30
0
11
560
21
-225
31
0
0
ENDSEC
0
SECTION
2
OBJECTS
0
DICTIONARY
5
C
100
AcDbDictionary
3
ACAD_GROUP
350
D
3
ACAD_MLINESTYLE
350
17
0
DICTIONARY
5
D
100
AcDbDictionary
0
DICTIONARY
5
1A
330
C
100
AcDbDictionary
0
DICTIONARY
5
17
100
AcDbDictionary
0
ENDSEC
0
EOF
