<svg id="_0" data-name="0" xmlns="http://www.w3.org/2000/svg" viewBox="0 0 560.72 375.72"><defs><style>.cls-1{fill:none;stroke:red;stroke-linecap:round;stroke-linejoin:round;stroke-width:0.72px;}</style></defs><title>3DROMAP_Chassis</title><g id="LINE"><line class="cls-1" x1="0.36" y1="0.36" x2="25.36" y2="0.36"/></g><g id="LINE-2" data-name="LINE"><line class="cls-1" x1="0.36" y1="0.36" x2="0.36" y2="25.36"/></g><g id="LINE-3" data-name="LINE"><line class="cls-1" x1="25.36" y1="0.36" x2="25.36" y2="6.56"/></g><g id="LINE-4" data-name="LINE"><line class="cls-1" x1="25.36" y1="6.56" x2="50.36" y2="6.56"/></g><g id="LINE-5" data-name="LINE"><line class="cls-1" x1="50.36" y1="6.56" x2="50.36" y2="0.36"/></g><g id="LINE-6" data-name="LINE"><line class="cls-1" x1="50.36" y1="0.36" x2="75.36" y2="0.36"/></g><g id="LINE-7" data-name="LINE"><line class="cls-1" x1="75.36" y1="6.56" x2="100.36" y2="6.56"/></g><g id="LINE-8" data-name="LINE"><line class="cls-1" x1="75.36" y1="0.36" x2="75.36" y2="6.56"/></g><g id="LINE-9" data-name="LINE"><line class="cls-1" x1="100.36" y1="6.56" x2="100.36" y2="0.36"/></g><g id="LINE-10" data-name="LINE"><line class="cls-1" x1="125.36" y1="6.56" x2="150.36" y2="6.56"/></g><g id="LINE-11" data-name="LINE"><line class="cls-1" x1="150.36" y1="6.56" x2="150.36" y2="0.36"/></g><g id="LINE-12" data-name="LINE"><line class="cls-1" x1="100.36" y1="0.36" x2="125.36" y2="0.36"/></g><g id="LINE-13" data-name="LINE"><line class="cls-1" x1="125.36" y1="0.36" x2="125.36" y2="6.56"/></g><g id="LINE-14" data-name="LINE"><line class="cls-1" x1="200.36" y1="6.56" x2="200.36" y2="0.36"/></g><g id="LINE-15" data-name="LINE"><line class="cls-1" x1="175.36" y1="6.56" x2="200.36" y2="6.56"/></g><g id="LINE-16" data-name="LINE"><line class="cls-1" x1="150.36" y1="0.36" x2="175.36" y2="0.36"/></g><g id="LINE-17" data-name="LINE"><line class="cls-1" x1="175.36" y1="0.36" x2="175.36" y2="6.56"/></g><g id="LINE-18" data-name="LINE"><line class="cls-1" x1="225.36" y1="6.56" x2="250.36" y2="6.56"/></g><g id="LINE-19" data-name="LINE"><line class="cls-1" x1="225.36" y1="0.36" x2="225.36" y2="6.56"/></g><g id="LINE-20" data-name="LINE"><line class="cls-1" x1="250.36" y1="6.56" x2="250.36" y2="0.36"/></g><g id="LINE-21" data-name="LINE"><line class="cls-1" x1="200.36" y1="0.36" x2="225.36" y2="0.36"/></g><g id="LINE-22" data-name="LINE"><line class="cls-1" x1="250.36" y1="0.36" x2="275.36" y2="0.36"/></g><g id="LINE-23" data-name="LINE"><line class="cls-1" x1="275.36" y1="0.36" x2="275.36" y2="25.36"/></g><g id="LINE-24" data-name="LINE"><line class="cls-1" x1="0.36" y1="375.36" x2="0.36" y2="350.36"/></g><g id="LINE-25" data-name="LINE"><line class="cls-1" x1="25.36" y1="375.36" x2="0.36" y2="375.36"/></g><g id="LINE-26" data-name="LINE"><line class="cls-1" x1="275.36" y1="375.36" x2="275.36" y2="350.36"/></g><g id="LINE-27" data-name="LINE"><line class="cls-1" x1="0.36" y1="25.36" x2="6.56" y2="25.36"/></g><g id="LINE-28" data-name="LINE"><line class="cls-1" x1="6.56" y1="25.36" x2="6.56" y2="50.36"/></g><g id="LINE-29" data-name="LINE"><line class="cls-1" x1="6.56" y1="50.36" x2="0.36" y2="50.36"/></g><g id="LINE-30" data-name="LINE"><line class="cls-1" x1="0.36" y1="50.36" x2="0.36" y2="75.36"/></g><g id="LINE-31" data-name="LINE"><line class="cls-1" x1="6.56" y1="75.36" x2="6.56" y2="100.36"/></g><g id="LINE-32" data-name="LINE"><line class="cls-1" x1="6.56" y1="100.36" x2="0.36" y2="100.36"/></g><g id="LINE-33" data-name="LINE"><line class="cls-1" x1="0.36" y1="75.36" x2="6.56" y2="75.36"/></g><g id="LINE-34" data-name="LINE"><line class="cls-1" x1="0.36" y1="100.36" x2="0.36" y2="125.36"/></g><g id="LINE-35" data-name="LINE"><line class="cls-1" x1="6.56" y1="200.36" x2="0.36" y2="200.36"/></g><g id="LINE-36" data-name="LINE"><line class="cls-1" x1="0.36" y1="150.36" x2="0.36" y2="175.36"/></g><g id="LINE-37" data-name="LINE"><line class="cls-1" x1="0.36" y1="125.36" x2="6.56" y2="125.36"/></g><g id="LINE-38" data-name="LINE"><line class="cls-1" x1="0.36" y1="200.36" x2="0.36" y2="225.36"/></g><g id="LINE-39" data-name="LINE"><line class="cls-1" x1="6.56" y1="125.36" x2="6.56" y2="150.36"/></g><g id="LINE-40" data-name="LINE"><line class="cls-1" x1="6.56" y1="150.36" x2="0.36" y2="150.36"/></g><g id="LINE-41" data-name="LINE"><line class="cls-1" x1="6.56" y1="175.36" x2="6.56" y2="200.36"/></g><g id="LINE-42" data-name="LINE"><line class="cls-1" x1="0.36" y1="175.36" x2="6.56" y2="175.36"/></g><g id="LINE-43" data-name="LINE"><line class="cls-1" x1="0.36" y1="250.36" x2="0.36" y2="275.36"/></g><g id="LINE-44" data-name="LINE"><line class="cls-1" x1="0.36" y1="225.36" x2="6.56" y2="225.36"/></g><g id="LINE-45" data-name="LINE"><line class="cls-1" x1="6.56" y1="250.36" x2="0.36" y2="250.36"/></g><g id="LINE-46" data-name="LINE"><line class="cls-1" x1="6.56" y1="225.36" x2="6.56" y2="250.36"/></g><g id="LINE-47" data-name="LINE"><line class="cls-1" x1="0.36" y1="275.36" x2="6.56" y2="275.36"/></g><g id="LINE-48" data-name="LINE"><line class="cls-1" x1="6.56" y1="300.36" x2="0.36" y2="300.36"/></g><g id="LINE-49" data-name="LINE"><line class="cls-1" x1="0.36" y1="300.36" x2="0.36" y2="325.36"/></g><g id="LINE-50" data-name="LINE"><line class="cls-1" x1="6.56" y1="275.36" x2="6.56" y2="300.36"/></g><g id="LINE-51" data-name="LINE"><line class="cls-1" x1="6.56" y1="325.36" x2="6.56" y2="350.36"/></g><g id="LINE-52" data-name="LINE"><line class="cls-1" x1="6.56" y1="350.36" x2="0.36" y2="350.36"/></g><g id="LINE-53" data-name="LINE"><line class="cls-1" x1="0.36" y1="325.36" x2="6.56" y2="325.36"/></g><g id="LINE-54" data-name="LINE"><line class="cls-1" x1="269.16" y1="25.36" x2="275.36" y2="25.36"/></g><g id="LINE-55" data-name="LINE"><line class="cls-1" x1="269.16" y1="325.36" x2="275.36" y2="325.36"/></g><g id="LINE-56" data-name="LINE"><line class="cls-1" x1="275.36" y1="100.36" x2="269.16" y2="100.36"/></g><g id="LINE-57" data-name="LINE"><line class="cls-1" x1="275.36" y1="50.36" x2="269.16" y2="50.36"/></g><g id="LINE-58" data-name="LINE"><line class="cls-1" x1="275.36" y1="75.36" x2="275.36" y2="50.36"/></g><g id="LINE-59" data-name="LINE"><line class="cls-1" x1="275.36" y1="300.36" x2="269.16" y2="300.36"/></g><g id="LINE-60" data-name="LINE"><line class="cls-1" x1="269.16" y1="300.36" x2="269.16" y2="275.36"/></g><g id="LINE-61" data-name="LINE"><line class="cls-1" x1="269.16" y1="150.36" x2="269.16" y2="125.36"/></g><g id="LINE-62" data-name="LINE"><line class="cls-1" x1="269.16" y1="250.36" x2="269.16" y2="225.36"/></g><g id="LINE-63" data-name="LINE"><line class="cls-1" x1="275.36" y1="325.36" x2="275.36" y2="300.36"/></g><g id="LINE-64" data-name="LINE"><line class="cls-1" x1="269.16" y1="200.36" x2="269.16" y2="175.36"/></g><g id="LINE-65" data-name="LINE"><line class="cls-1" x1="275.36" y1="200.36" x2="269.16" y2="200.36"/></g><g id="LINE-66" data-name="LINE"><line class="cls-1" x1="275.36" y1="175.36" x2="275.36" y2="150.36"/></g><g id="LINE-67" data-name="LINE"><line class="cls-1" x1="269.16" y1="100.36" x2="269.16" y2="75.36"/></g><g id="LINE-68" data-name="LINE"><line class="cls-1" x1="269.16" y1="275.36" x2="275.36" y2="275.36"/></g><g id="LINE-69" data-name="LINE"><line class="cls-1" x1="275.36" y1="225.36" x2="275.36" y2="200.36"/></g><g id="LINE-70" data-name="LINE"><line class="cls-1" x1="269.16" y1="75.36" x2="275.36" y2="75.36"/></g><g id="LINE-71" data-name="LINE"><line class="cls-1" x1="275.36" y1="250.36" x2="269.16" y2="250.36"/></g><g id="LINE-72" data-name="LINE"><line class="cls-1" x1="275.36" y1="350.36" x2="269.16" y2="350.36"/></g><g id="LINE-73" data-name="LINE"><line class="cls-1" x1="269.16" y1="225.36" x2="275.36" y2="225.36"/></g><g id="LINE-74" data-name="LINE"><line class="cls-1" x1="269.16" y1="175.36" x2="275.36" y2="175.36"/></g><g id="LINE-75" data-name="LINE"><line class="cls-1" x1="275.36" y1="150.36" x2="269.16" y2="150.36"/></g><g id="LINE-76" data-name="LINE"><line class="cls-1" x1="275.36" y1="275.36" x2="275.36" y2="250.36"/></g><g id="LINE-77" data-name="LINE"><line class="cls-1" x1="269.16" y1="350.36" x2="269.16" y2="325.36"/></g><g id="LINE-78" data-name="LINE"><line class="cls-1" x1="275.36" y1="125.36" x2="275.36" y2="100.36"/></g><g id="LINE-79" data-name="LINE"><line class="cls-1" x1="269.16" y1="125.36" x2="275.36" y2="125.36"/></g><g id="LINE-80" data-name="LINE"><line class="cls-1" x1="269.16" y1="50.36" x2="269.16" y2="25.36"/></g><g id="LINE-81" data-name="LINE"><line class="cls-1" x1="25.36" y1="375.36" x2="25.36" y2="369.16"/></g><g id="LINE-82" data-name="LINE"><line class="cls-1" x1="275.36" y1="375.36" x2="250.36" y2="375.36"/></g><g id="LINE-83" data-name="LINE"><line class="cls-1" x1="25.36" y1="369.16" x2="50.36" y2="369.16"/></g><g id="LINE-84" data-name="LINE"><line class="cls-1" x1="50.36" y1="369.16" x2="50.36" y2="375.36"/></g><g id="LINE-85" data-name="LINE"><line class="cls-1" x1="50.36" y1="375.36" x2="75.36" y2="375.36"/></g><g id="LINE-86" data-name="LINE"><line class="cls-1" x1="75.36" y1="375.36" x2="75.36" y2="369.16"/></g><g id="LINE-87" data-name="LINE"><line class="cls-1" x1="75.36" y1="369.16" x2="100.36" y2="369.16"/></g><g id="LINE-88" data-name="LINE"><line class="cls-1" x1="100.36" y1="369.16" x2="100.36" y2="375.36"/></g><g id="LINE-89" data-name="LINE"><line class="cls-1" x1="100.36" y1="375.36" x2="125.36" y2="375.36"/></g><g id="LINE-90" data-name="LINE"><line class="cls-1" x1="125.36" y1="375.36" x2="125.36" y2="369.16"/></g><g id="LINE-91" data-name="LINE"><line class="cls-1" x1="125.36" y1="369.16" x2="150.36" y2="369.16"/></g><g id="LINE-92" data-name="LINE"><line class="cls-1" x1="150.36" y1="369.16" x2="150.36" y2="375.36"/></g><g id="LINE-93" data-name="LINE"><line class="cls-1" x1="150.36" y1="375.36" x2="175.36" y2="375.36"/></g><g id="LINE-94" data-name="LINE"><line class="cls-1" x1="175.36" y1="375.36" x2="175.36" y2="369.16"/></g><g id="LINE-95" data-name="LINE"><line class="cls-1" x1="175.36" y1="369.16" x2="200.36" y2="369.16"/></g><g id="LINE-96" data-name="LINE"><line class="cls-1" x1="200.36" y1="369.16" x2="200.36" y2="375.36"/></g><g id="LINE-97" data-name="LINE"><line class="cls-1" x1="200.36" y1="375.36" x2="225.36" y2="375.36"/></g><g id="LINE-98" data-name="LINE"><line class="cls-1" x1="225.36" y1="375.36" x2="225.36" y2="369.16"/></g><g id="LINE-99" data-name="LINE"><line class="cls-1" x1="225.36" y1="369.16" x2="250.36" y2="369.16"/></g><g id="LINE-100" data-name="LINE"><line class="cls-1" x1="250.36" y1="369.16" x2="250.36" y2="375.36"/></g><g id="LINE-101" data-name="LINE"><line class="cls-1" x1="414.16" y1="50.36" x2="420.36" y2="50.36"/></g><g id="LINE-102" data-name="LINE"><line class="cls-1" x1="414.16" y1="75.36" x2="414.16" y2="50.36"/></g><g id="LINE-103" data-name="LINE"><line class="cls-1" x1="420.36" y1="100.36" x2="420.36" y2="75.36"/></g><g id="LINE-104" data-name="LINE"><line class="cls-1" x1="420.36" y1="75.36" x2="414.16" y2="75.36"/></g><g id="LINE-105" data-name="LINE"><line class="cls-1" x1="414.16" y1="100.36" x2="420.36" y2="100.36"/></g><g id="LINE-106" data-name="LINE"><line class="cls-1" x1="414.16" y1="125.36" x2="414.16" y2="100.36"/></g><g id="LINE-107" data-name="LINE"><line class="cls-1" x1="420.36" y1="150.36" x2="420.36" y2="125.36"/></g><g id="LINE-108" data-name="LINE"><line class="cls-1" x1="420.36" y1="125.36" x2="414.16" y2="125.36"/></g><g id="LINE-109" data-name="LINE"><line class="cls-1" x1="420.36" y1="175.36" x2="414.16" y2="175.36"/></g><g id="LINE-110" data-name="LINE"><line class="cls-1" x1="414.16" y1="175.36" x2="414.16" y2="150.36"/></g><g id="LINE-111" data-name="LINE"><line class="cls-1" x1="414.16" y1="150.36" x2="420.36" y2="150.36"/></g><g id="LINE-112" data-name="LINE"><line class="cls-1" x1="414.16" y1="225.36" x2="414.16" y2="200.36"/></g><g id="LINE-113" data-name="LINE"><line class="cls-1" x1="420.36" y1="50.36" x2="420.36" y2="25.36"/></g><g id="LINE-114" data-name="LINE"><line class="cls-1" x1="301.56" y1="250.36" x2="301.56" y2="275.36"/></g><g id="LINE-115" data-name="LINE"><line class="cls-1" x1="301.56" y1="275.36" x2="295.36" y2="275.36"/></g><g id="LINE-116" data-name="LINE"><line class="cls-1" x1="295.36" y1="250.36" x2="301.56" y2="250.36"/></g><g id="LINE-117" data-name="LINE"><line class="cls-1" x1="295.36" y1="225.36" x2="295.36" y2="250.36"/></g><g id="LINE-118" data-name="LINE"><line class="cls-1" x1="295.36" y1="300.36" x2="301.56" y2="300.36"/></g><g id="LINE-119" data-name="LINE"><line class="cls-1" x1="414.16" y1="250.36" x2="420.36" y2="250.36"/></g><g id="LINE-120" data-name="LINE"><line class="cls-1" x1="395.36" y1="369.16" x2="395.36" y2="375.36"/></g><g id="LINE-121" data-name="LINE"><line class="cls-1" x1="414.16" y1="200.36" x2="420.36" y2="200.36"/></g><g id="LINE-122" data-name="LINE"><line class="cls-1" x1="301.56" y1="300.36" x2="301.56" y2="325.36"/></g><g id="LINE-123" data-name="LINE"><line class="cls-1" x1="320.36" y1="375.36" x2="320.36" y2="369.16"/></g><g id="LINE-124" data-name="LINE"><line class="cls-1" x1="301.56" y1="325.36" x2="295.36" y2="325.36"/></g><g id="LINE-125" data-name="LINE"><line class="cls-1" x1="420.36" y1="350.36" x2="420.36" y2="325.36"/></g><g id="LINE-126" data-name="LINE"><line class="cls-1" x1="420.36" y1="275.36" x2="414.16" y2="275.36"/></g><g id="LINE-127" data-name="LINE"><line class="cls-1" x1="414.16" y1="275.36" x2="414.16" y2="250.36"/></g><g id="LINE-128" data-name="LINE"><line class="cls-1" x1="420.36" y1="300.36" x2="420.36" y2="275.36"/></g><g id="LINE-129" data-name="LINE"><line class="cls-1" x1="414.16" y1="325.36" x2="414.16" y2="300.36"/></g><g id="LINE-130" data-name="LINE"><line class="cls-1" x1="420.36" y1="200.36" x2="420.36" y2="175.36"/></g><g id="LINE-131" data-name="LINE"><line class="cls-1" x1="420.36" y1="25.36" x2="414.16" y2="25.36"/></g><g id="LINE-132" data-name="LINE"><line class="cls-1" x1="420.36" y1="250.36" x2="420.36" y2="225.36"/></g><g id="LINE-133" data-name="LINE"><line class="cls-1" x1="414.16" y1="300.36" x2="420.36" y2="300.36"/></g><g id="LINE-134" data-name="LINE"><line class="cls-1" x1="370.36" y1="369.16" x2="395.36" y2="369.16"/></g><g id="LINE-135" data-name="LINE"><line class="cls-1" x1="370.36" y1="6.56" x2="395.36" y2="6.56"/></g><g id="LINE-136" data-name="LINE"><line class="cls-1" x1="420.36" y1="325.36" x2="414.16" y2="325.36"/></g><g id="LINE-137" data-name="LINE"><line class="cls-1" x1="295.36" y1="275.36" x2="295.36" y2="300.36"/></g><g id="LINE-138" data-name="LINE"><line class="cls-1" x1="414.16" y1="25.36" x2="414.16" y2="0.36"/></g><g id="LINE-139" data-name="LINE"><line class="cls-1" x1="420.36" y1="225.36" x2="414.16" y2="225.36"/></g><g id="LINE-140" data-name="LINE"><line class="cls-1" x1="301.56" y1="100.36" x2="301.56" y2="125.36"/></g><g id="LINE-141" data-name="LINE"><line class="cls-1" x1="301.56" y1="225.36" x2="295.36" y2="225.36"/></g><g id="LINE-142" data-name="LINE"><line class="cls-1" x1="301.56" y1="175.36" x2="295.36" y2="175.36"/></g><g id="LINE-143" data-name="LINE"><line class="cls-1" x1="345.36" y1="6.56" x2="345.36" y2="0.36"/></g><g id="LINE-144" data-name="LINE"><line class="cls-1" x1="301.56" y1="200.36" x2="301.56" y2="225.36"/></g><g id="LINE-145" data-name="LINE"><line class="cls-1" x1="295.36" y1="200.36" x2="301.56" y2="200.36"/></g><g id="LINE-146" data-name="LINE"><line class="cls-1" x1="320.36" y1="0.36" x2="320.36" y2="6.56"/></g><g id="LINE-147" data-name="LINE"><line class="cls-1" x1="301.56" y1="125.36" x2="295.36" y2="125.36"/></g><g id="LINE-148" data-name="LINE"><line class="cls-1" x1="295.36" y1="125.36" x2="295.36" y2="150.36"/></g><g id="LINE-149" data-name="LINE"><line class="cls-1" x1="295.36" y1="150.36" x2="301.56" y2="150.36"/></g><g id="LINE-150" data-name="LINE"><line class="cls-1" x1="301.56" y1="350.36" x2="301.56" y2="375.36"/></g><g id="LINE-151" data-name="LINE"><line class="cls-1" x1="301.56" y1="150.36" x2="301.56" y2="175.36"/></g><g id="LINE-152" data-name="LINE"><line class="cls-1" x1="345.36" y1="375.36" x2="370.36" y2="375.36"/></g><g id="LINE-153" data-name="LINE"><line class="cls-1" x1="320.36" y1="369.16" x2="345.36" y2="369.16"/></g><g id="LINE-154" data-name="LINE"><line class="cls-1" x1="345.36" y1="0.36" x2="370.36" y2="0.36"/></g><g id="LINE-155" data-name="LINE"><line class="cls-1" x1="370.36" y1="0.36" x2="370.36" y2="6.56"/></g><g id="LINE-156" data-name="LINE"><line class="cls-1" x1="320.36" y1="6.56" x2="345.36" y2="6.56"/></g><g id="LINE-157" data-name="LINE"><line class="cls-1" x1="345.36" y1="369.16" x2="345.36" y2="375.36"/></g><g id="LINE-158" data-name="LINE"><line class="cls-1" x1="295.36" y1="325.36" x2="295.36" y2="350.36"/></g><g id="LINE-159" data-name="LINE"><line class="cls-1" x1="295.36" y1="175.36" x2="295.36" y2="200.36"/></g><g id="LINE-160" data-name="LINE"><line class="cls-1" x1="295.36" y1="350.36" x2="301.56" y2="350.36"/></g><g id="LINE-161" data-name="LINE"><line class="cls-1" x1="395.36" y1="6.56" x2="395.36" y2="0.36"/></g><g id="LINE-162" data-name="LINE"><line class="cls-1" x1="370.36" y1="375.36" x2="370.36" y2="369.16"/></g><g id="LINE-163" data-name="LINE"><line class="cls-1" x1="301.56" y1="50.36" x2="301.56" y2="75.36"/></g><g id="LINE-164" data-name="LINE"><line class="cls-1" x1="295.36" y1="75.36" x2="295.36" y2="100.36"/></g><g id="LINE-165" data-name="LINE"><line class="cls-1" x1="301.56" y1="75.36" x2="295.36" y2="75.36"/></g><g id="LINE-166" data-name="LINE"><line class="cls-1" x1="295.36" y1="100.36" x2="301.56" y2="100.36"/></g><g id="LINE-167" data-name="LINE"><line class="cls-1" x1="395.36" y1="0.36" x2="414.16" y2="0.36"/></g><g id="LINE-168" data-name="LINE"><line class="cls-1" x1="320.36" y1="0.36" x2="301.56" y2="0.36"/></g><g id="LINE-169" data-name="LINE"><line class="cls-1" x1="395.36" y1="375.36" x2="414.16" y2="375.36"/></g><g id="LINE-170" data-name="LINE"><line class="cls-1" x1="320.36" y1="375.36" x2="301.56" y2="375.36"/></g><g id="LINE-171" data-name="LINE"><line class="cls-1" x1="301.56" y1="50.36" x2="295.36" y2="50.36"/></g><g id="LINE-172" data-name="LINE"><line class="cls-1" x1="295.36" y1="50.36" x2="295.36" y2="25.36"/></g><g id="LINE-173" data-name="LINE"><line class="cls-1" x1="295.36" y1="25.36" x2="301.56" y2="25.36"/></g><g id="LINE-174" data-name="LINE"><line class="cls-1" x1="301.56" y1="25.36" x2="301.56" y2="0.36"/></g><g id="LINE-175" data-name="LINE"><line class="cls-1" x1="420.36" y1="350.36" x2="414.16" y2="350.36"/></g><g id="LINE-176" data-name="LINE"><line class="cls-1" x1="414.16" y1="350.36" x2="414.16" y2="375.36"/></g><g id="LINE-177" data-name="LINE"><line class="cls-1" x1="535.36" y1="0.36" x2="535.36" y2="6.56"/></g><g id="LINE-178" data-name="LINE"><line class="cls-1" x1="510.36" y1="0.36" x2="535.36" y2="0.36"/></g><g id="LINE-179" data-name="LINE"><line class="cls-1" x1="485.36" y1="6.56" x2="510.36" y2="6.56"/></g><g id="LINE-180" data-name="LINE"><line class="cls-1" x1="460.36" y1="6.56" x2="460.36" y2="0.36"/></g><g id="LINE-181" data-name="LINE"><line class="cls-1" x1="460.36" y1="0.36" x2="485.36" y2="0.36"/></g><g id="LINE-182" data-name="LINE"><line class="cls-1" x1="485.36" y1="0.36" x2="485.36" y2="6.56"/></g><g id="LINE-183" data-name="LINE"><line class="cls-1" x1="510.36" y1="6.56" x2="510.36" y2="0.36"/></g><g id="LINE-184" data-name="LINE"><line class="cls-1" x1="535.36" y1="6.56" x2="554.16" y2="6.56"/></g><g id="LINE-185" data-name="LINE"><line class="cls-1" x1="460.36" y1="6.56" x2="441.56" y2="6.56"/></g><g id="LINE-186" data-name="LINE"><line class="cls-1" x1="485.36" y1="269.16" x2="510.36" y2="269.16"/></g><g id="LINE-187" data-name="LINE"><line class="cls-1" x1="485.36" y1="275.36" x2="485.36" y2="269.16"/></g><g id="LINE-188" data-name="LINE"><line class="cls-1" x1="460.36" y1="275.36" x2="485.36" y2="275.36"/></g><g id="LINE-189" data-name="LINE"><line class="cls-1" x1="510.36" y1="275.36" x2="535.36" y2="275.36"/></g><g id="LINE-190" data-name="LINE"><line class="cls-1" x1="510.36" y1="269.16" x2="510.36" y2="275.36"/></g><g id="LINE-191" data-name="LINE"><line class="cls-1" x1="535.36" y1="275.36" x2="535.36" y2="269.16"/></g><g id="LINE-192" data-name="LINE"><line class="cls-1" x1="460.36" y1="269.16" x2="460.36" y2="275.36"/></g><g id="LINE-193" data-name="LINE"><line class="cls-1" x1="460.36" y1="269.16" x2="441.56" y2="269.16"/></g><g id="LINE-194" data-name="LINE"><line class="cls-1" x1="535.36" y1="269.16" x2="554.16" y2="269.16"/></g><g id="LINE-195" data-name="LINE"><line class="cls-1" x1="441.56" y1="6.56" x2="441.56" y2="25.36"/></g><g id="LINE-196" data-name="LINE"><line class="cls-1" x1="554.16" y1="6.56" x2="554.16" y2="25.36"/></g><g id="LINE-197" data-name="LINE"><line class="cls-1" x1="441.56" y1="269.16" x2="441.56" y2="250.36"/></g><g id="LINE-198" data-name="LINE"><line class="cls-1" x1="554.16" y1="269.16" x2="554.16" y2="250.36"/></g><g id="LINE-199" data-name="LINE"><line class="cls-1" x1="435.36" y1="100.36" x2="441.56" y2="100.36"/></g><g id="LINE-200" data-name="LINE"><line class="cls-1" x1="441.56" y1="125.36" x2="435.36" y2="125.36"/></g><g id="LINE-201" data-name="LINE"><line class="cls-1" x1="435.36" y1="125.36" x2="435.36" y2="150.36"/></g><g id="LINE-202" data-name="LINE"><line class="cls-1" x1="435.36" y1="175.36" x2="435.36" y2="200.36"/></g><g id="LINE-203" data-name="LINE"><line class="cls-1" x1="441.56" y1="175.36" x2="435.36" y2="175.36"/></g><g id="LINE-204" data-name="LINE"><line class="cls-1" x1="441.56" y1="100.36" x2="441.56" y2="125.36"/></g><g id="LINE-205" data-name="LINE"><line class="cls-1" x1="435.36" y1="150.36" x2="441.56" y2="150.36"/></g><g id="LINE-206" data-name="LINE"><line class="cls-1" x1="441.56" y1="150.36" x2="441.56" y2="175.36"/></g><g id="LINE-207" data-name="LINE"><line class="cls-1" x1="435.36" y1="200.36" x2="441.56" y2="200.36"/></g><g id="LINE-208" data-name="LINE"><line class="cls-1" x1="435.36" y1="50.36" x2="441.56" y2="50.36"/></g><g id="LINE-209" data-name="LINE"><line class="cls-1" x1="441.56" y1="200.36" x2="441.56" y2="225.36"/></g><g id="LINE-210" data-name="LINE"><line class="cls-1" x1="435.36" y1="25.36" x2="435.36" y2="50.36"/></g><g id="LINE-211" data-name="LINE"><line class="cls-1" x1="435.36" y1="75.36" x2="435.36" y2="100.36"/></g><g id="LINE-212" data-name="LINE"><line class="cls-1" x1="441.56" y1="25.36" x2="435.36" y2="25.36"/></g><g id="LINE-213" data-name="LINE"><line class="cls-1" x1="441.56" y1="50.36" x2="441.56" y2="75.36"/></g><g id="LINE-214" data-name="LINE"><line class="cls-1" x1="441.56" y1="225.36" x2="435.36" y2="225.36"/></g><g id="LINE-215" data-name="LINE"><line class="cls-1" x1="435.36" y1="250.36" x2="441.56" y2="250.36"/></g><g id="LINE-216" data-name="LINE"><line class="cls-1" x1="441.56" y1="75.36" x2="435.36" y2="75.36"/></g><g id="LINE-217" data-name="LINE"><line class="cls-1" x1="435.36" y1="225.36" x2="435.36" y2="250.36"/></g><g id="LINE-218" data-name="LINE"><line class="cls-1" x1="554.16" y1="100.36" x2="554.16" y2="125.36"/></g><g id="LINE-219" data-name="LINE"><line class="cls-1" x1="560.36" y1="100.36" x2="554.16" y2="100.36"/></g><g id="LINE-220" data-name="LINE"><line class="cls-1" x1="560.36" y1="75.36" x2="560.36" y2="100.36"/></g><g id="LINE-221" data-name="LINE"><line class="cls-1" x1="560.36" y1="50.36" x2="554.16" y2="50.36"/></g><g id="LINE-222" data-name="LINE"><line class="cls-1" x1="560.36" y1="125.36" x2="560.36" y2="150.36"/></g><g id="LINE-223" data-name="LINE"><line class="cls-1" x1="554.16" y1="25.36" x2="560.36" y2="25.36"/></g><g id="LINE-224" data-name="LINE"><line class="cls-1" x1="560.36" y1="25.36" x2="560.36" y2="50.36"/></g><g id="LINE-225" data-name="LINE"><line class="cls-1" x1="554.16" y1="75.36" x2="560.36" y2="75.36"/></g><g id="LINE-226" data-name="LINE"><line class="cls-1" x1="554.16" y1="50.36" x2="554.16" y2="75.36"/></g><g id="LINE-227" data-name="LINE"><line class="cls-1" x1="554.16" y1="125.36" x2="560.36" y2="125.36"/></g><g id="LINE-228" data-name="LINE"><line class="cls-1" x1="560.36" y1="175.36" x2="560.36" y2="200.36"/></g><g id="LINE-229" data-name="LINE"><line class="cls-1" x1="560.36" y1="250.36" x2="554.16" y2="250.36"/></g><g id="LINE-230" data-name="LINE"><line class="cls-1" x1="560.36" y1="200.36" x2="554.16" y2="200.36"/></g><g id="LINE-231" data-name="LINE"><line class="cls-1" x1="554.16" y1="175.36" x2="560.36" y2="175.36"/></g><g id="LINE-232" data-name="LINE"><line class="cls-1" x1="560.36" y1="150.36" x2="554.16" y2="150.36"/></g><g id="LINE-233" data-name="LINE"><line class="cls-1" x1="560.36" y1="225.36" x2="560.36" y2="250.36"/></g><g id="LINE-234" data-name="LINE"><line class="cls-1" x1="554.16" y1="200.36" x2="554.16" y2="225.36"/></g><g id="LINE-235" data-name="LINE"><line class="cls-1" x1="554.16" y1="150.36" x2="554.16" y2="175.36"/></g><g id="LINE-236" data-name="LINE"><line class="cls-1" x1="554.16" y1="225.36" x2="560.36" y2="225.36"/></g></svg>