<svg id="_0" data-name="0" xmlns="http://www.w3.org/2000/svg" viewBox="0 0 1436.2 1063.72"><defs><style>.cls-1{fill:none;stroke:red;stroke-linecap:round;stroke-linejoin:round;stroke-width:0.72px;}</style></defs><title>3DROMAP_Chassis_condensed_scaled</title><g id="LINE"><line class="cls-1" x1="779.9" y1="212.96" x2="779.9" y2="142.09"/></g><g id="LINE-2" data-name="LINE"><line class="cls-1" x1="762.32" y1="567.3" x2="762.32" y2="496.43"/></g><g id="LINE-3" data-name="LINE"><line class="cls-1" x1="762.32" y1="283.83" x2="762.32" y2="212.96"/></g><g id="LINE-4" data-name="LINE"><line class="cls-1" x1="762.32" y1="142.09" x2="762.32" y2="71.23"/></g><g id="LINE-5" data-name="LINE"><line class="cls-1" x1="567.3" y1="0.36" x2="638.16" y2="0.36"/></g><g id="LINE-6" data-name="LINE"><line class="cls-1" x1="762.32" y1="496.43" x2="779.9" y2="496.43"/></g><g id="LINE-7" data-name="LINE"><line class="cls-1" x1="779.9" y1="354.69" x2="779.9" y2="283.83"/></g><g id="LINE-8" data-name="LINE"><line class="cls-1" x1="638.16" y1="17.93" x2="709.03" y2="17.93"/></g><g id="LINE-9" data-name="LINE"><line class="cls-1" x1="762.32" y1="425.56" x2="762.32" y2="354.69"/></g><g id="LINE-10" data-name="LINE"><line class="cls-1" x1="567.3" y1="17.93" x2="567.3" y2="0.36"/></g><g id="LINE-11" data-name="LINE"><line class="cls-1" x1="779.9" y1="283.83" x2="762.32" y2="283.83"/></g><g id="LINE-12" data-name="LINE"><line class="cls-1" x1="779.9" y1="496.43" x2="779.9" y2="425.56"/></g><g id="LINE-13" data-name="LINE"><line class="cls-1" x1="779.9" y1="425.56" x2="762.32" y2="425.56"/></g><g id="LINE-14" data-name="LINE"><line class="cls-1" x1="496.43" y1="0.36" x2="496.43" y2="17.93"/></g><g id="LINE-15" data-name="LINE"><line class="cls-1" x1="638.16" y1="0.36" x2="638.16" y2="17.93"/></g><g id="LINE-16" data-name="LINE"><line class="cls-1" x1="762.32" y1="354.69" x2="779.9" y2="354.69"/></g><g id="LINE-17" data-name="LINE"><line class="cls-1" x1="779.9" y1="142.09" x2="762.32" y2="142.09"/></g><g id="LINE-18" data-name="LINE"><line class="cls-1" x1="762.32" y1="212.96" x2="779.9" y2="212.96"/></g><g id="LINE-19" data-name="LINE"><line class="cls-1" x1="1223.24" y1="17.93" x2="1294.11" y2="17.93"/></g><g id="LINE-20" data-name="LINE"><line class="cls-1" x1="496.43" y1="17.93" x2="567.3" y2="17.93"/></g><g id="LINE-21" data-name="LINE"><line class="cls-1" x1="496.43" y1="1045.79" x2="567.3" y2="1045.79"/></g><g id="LINE-22" data-name="LINE"><line class="cls-1" x1="904.05" y1="0.36" x2="974.92" y2="0.36"/></g><g id="LINE-23" data-name="LINE"><line class="cls-1" x1="283.83" y1="17.93" x2="283.83" y2="0.36"/></g><g id="LINE-24" data-name="LINE"><line class="cls-1" x1="833.19" y1="0.36" x2="779.9" y2="0.36"/></g><g id="LINE-25" data-name="LINE"><line class="cls-1" x1="904.05" y1="17.93" x2="904.05" y2="0.36"/></g><g id="LINE-26" data-name="LINE"><line class="cls-1" x1="71.23" y1="1045.79" x2="142.09" y2="1045.79"/></g><g id="LINE-27" data-name="LINE"><line class="cls-1" x1="762.32" y1="71.23" x2="779.9" y2="71.23"/></g><g id="LINE-28" data-name="LINE"><line class="cls-1" x1="425.56" y1="0.36" x2="496.43" y2="0.36"/></g><g id="LINE-29" data-name="LINE"><line class="cls-1" x1="974.92" y1="0.36" x2="974.92" y2="17.93"/></g><g id="LINE-30" data-name="LINE"><line class="cls-1" x1="779.9" y1="0.36" x2="779.9" y2="71.23"/></g><g id="LINE-31" data-name="LINE"><line class="cls-1" x1="17.93" y1="567.3" x2="0.36" y2="567.3"/></g><g id="LINE-32" data-name="LINE"><line class="cls-1" x1="212.96" y1="17.93" x2="283.83" y2="17.93"/></g><g id="LINE-33" data-name="LINE"><line class="cls-1" x1="0.36" y1="709.03" x2="0.36" y2="779.9"/></g><g id="LINE-34" data-name="LINE"><line class="cls-1" x1="0.36" y1="354.69" x2="17.93" y2="354.69"/></g><g id="LINE-35" data-name="LINE"><line class="cls-1" x1="0.36" y1="638.16" x2="17.93" y2="638.16"/></g><g id="LINE-36" data-name="LINE"><line class="cls-1" x1="833.19" y1="17.93" x2="904.05" y2="17.93"/></g><g id="LINE-37" data-name="LINE"><line class="cls-1" x1="17.93" y1="638.16" x2="17.93" y2="709.03"/></g><g id="LINE-38" data-name="LINE"><line class="cls-1" x1="0.36" y1="567.3" x2="0.36" y2="638.16"/></g><g id="LINE-39" data-name="LINE"><line class="cls-1" x1="283.83" y1="1063.36" x2="354.69" y2="1063.36"/></g><g id="LINE-40" data-name="LINE"><line class="cls-1" x1="354.69" y1="1045.79" x2="425.56" y2="1045.79"/></g><g id="LINE-41" data-name="LINE"><line class="cls-1" x1="17.93" y1="779.9" x2="17.93" y2="850.76"/></g><g id="LINE-42" data-name="LINE"><line class="cls-1" x1="212.96" y1="1045.79" x2="283.83" y2="1045.79"/></g><g id="LINE-43" data-name="LINE"><line class="cls-1" x1="709.03" y1="17.93" x2="709.03" y2="0.36"/></g><g id="LINE-44" data-name="LINE"><line class="cls-1" x1="0.36" y1="779.9" x2="17.93" y2="779.9"/></g><g id="LINE-45" data-name="LINE"><line class="cls-1" x1="567.3" y1="1045.79" x2="567.3" y2="1063.36"/></g><g id="LINE-46" data-name="LINE"><line class="cls-1" x1="833.19" y1="0.36" x2="833.19" y2="17.93"/></g><g id="LINE-47" data-name="LINE"><line class="cls-1" x1="0.36" y1="283.83" x2="0.36" y2="354.69"/></g><g id="LINE-48" data-name="LINE"><line class="cls-1" x1="354.69" y1="0.36" x2="354.69" y2="17.93"/></g><g id="LINE-49" data-name="LINE"><line class="cls-1" x1="425.56" y1="1045.79" x2="425.56" y2="1063.36"/></g><g id="LINE-50" data-name="LINE"><line class="cls-1" x1="283.83" y1="1045.79" x2="283.83" y2="1063.36"/></g><g id="LINE-51" data-name="LINE"><line class="cls-1" x1="638.16" y1="1045.79" x2="709.03" y2="1045.79"/></g><g id="LINE-52" data-name="LINE"><line class="cls-1" x1="354.69" y1="1063.36" x2="354.69" y2="1045.79"/></g><g id="LINE-53" data-name="LINE"><line class="cls-1" x1="709.03" y1="0.36" x2="779.9" y2="0.36"/></g><g id="LINE-54" data-name="LINE"><line class="cls-1" x1="638.16" y1="1063.36" x2="638.16" y2="1045.79"/></g><g id="LINE-55" data-name="LINE"><line class="cls-1" x1="17.93" y1="709.03" x2="0.36" y2="709.03"/></g><g id="LINE-56" data-name="LINE"><line class="cls-1" x1="354.69" y1="17.93" x2="425.56" y2="17.93"/></g><g id="LINE-57" data-name="LINE"><line class="cls-1" x1="283.83" y1="0.36" x2="354.69" y2="0.36"/></g><g id="LINE-58" data-name="LINE"><line class="cls-1" x1="425.56" y1="17.93" x2="425.56" y2="0.36"/></g><g id="LINE-59" data-name="LINE"><line class="cls-1" x1="17.93" y1="850.76" x2="0.36" y2="850.76"/></g><g id="LINE-60" data-name="LINE"><line class="cls-1" x1="496.43" y1="1063.36" x2="496.43" y2="1045.79"/></g><g id="LINE-61" data-name="LINE"><line class="cls-1" x1="567.3" y1="1063.36" x2="638.16" y2="1063.36"/></g><g id="LINE-62" data-name="LINE"><line class="cls-1" x1="425.56" y1="1063.36" x2="496.43" y2="1063.36"/></g><g id="LINE-63" data-name="LINE"><line class="cls-1" x1="17.93" y1="921.63" x2="17.93" y2="992.5"/></g><g id="LINE-64" data-name="LINE"><line class="cls-1" x1="17.93" y1="992.5" x2="0.36" y2="992.5"/></g><g id="LINE-65" data-name="LINE"><line class="cls-1" x1="1418.26" y1="142.09" x2="1418.26" y2="212.96"/></g><g id="LINE-66" data-name="LINE"><line class="cls-1" x1="142.09" y1="1063.36" x2="212.96" y2="1063.36"/></g><g id="LINE-67" data-name="LINE"><line class="cls-1" x1="1418.26" y1="354.69" x2="1435.84" y2="354.69"/></g><g id="LINE-68" data-name="LINE"><line class="cls-1" x1="1435.84" y1="354.69" x2="1435.84" y2="425.56"/></g><g id="LINE-69" data-name="LINE"><line class="cls-1" x1="142.09" y1="1045.79" x2="142.09" y2="1063.36"/></g><g id="LINE-70" data-name="LINE"><line class="cls-1" x1="0.36" y1="425.56" x2="0.36" y2="496.43"/></g><g id="LINE-71" data-name="LINE"><line class="cls-1" x1="212.96" y1="1063.36" x2="212.96" y2="1045.79"/></g><g id="LINE-72" data-name="LINE"><line class="cls-1" x1="0.36" y1="921.63" x2="17.93" y2="921.63"/></g><g id="LINE-73" data-name="LINE"><line class="cls-1" x1="17.93" y1="71.23" x2="17.93" y2="142.09"/></g><g id="LINE-74" data-name="LINE"><line class="cls-1" x1="17.93" y1="283.83" x2="0.36" y2="283.83"/></g><g id="LINE-75" data-name="LINE"><line class="cls-1" x1="17.93" y1="425.56" x2="0.36" y2="425.56"/></g><g id="LINE-76" data-name="LINE"><line class="cls-1" x1="17.93" y1="354.69" x2="17.93" y2="425.56"/></g><g id="LINE-77" data-name="LINE"><line class="cls-1" x1="1435.84" y1="212.96" x2="1435.84" y2="283.83"/></g><g id="LINE-78" data-name="LINE"><line class="cls-1" x1="71.23" y1="0.36" x2="71.23" y2="17.93"/></g><g id="LINE-79" data-name="LINE"><line class="cls-1" x1="71.23" y1="17.93" x2="142.09" y2="17.93"/></g><g id="LINE-80" data-name="LINE"><line class="cls-1" x1="142.09" y1="17.93" x2="142.09" y2="0.36"/></g><g id="LINE-81" data-name="LINE"><line class="cls-1" x1="0.36" y1="71.23" x2="17.93" y2="71.23"/></g><g id="LINE-82" data-name="LINE"><line class="cls-1" x1="0.36" y1="212.96" x2="17.93" y2="212.96"/></g><g id="LINE-83" data-name="LINE"><line class="cls-1" x1="142.09" y1="0.36" x2="212.96" y2="0.36"/></g><g id="LINE-84" data-name="LINE"><line class="cls-1" x1="1435.84" y1="283.83" x2="1418.26" y2="283.83"/></g><g id="LINE-85" data-name="LINE"><line class="cls-1" x1="17.93" y1="142.09" x2="0.36" y2="142.09"/></g><g id="LINE-86" data-name="LINE"><line class="cls-1" x1="0.36" y1="0.36" x2="0.36" y2="71.23"/></g><g id="LINE-87" data-name="LINE"><line class="cls-1" x1="17.93" y1="496.43" x2="17.93" y2="567.3"/></g><g id="LINE-88" data-name="LINE"><line class="cls-1" x1="71.23" y1="1063.36" x2="71.23" y2="1045.79"/></g><g id="LINE-89" data-name="LINE"><line class="cls-1" x1="212.96" y1="0.36" x2="212.96" y2="17.93"/></g><g id="LINE-90" data-name="LINE"><line class="cls-1" x1="17.93" y1="212.96" x2="17.93" y2="283.83"/></g><g id="LINE-91" data-name="LINE"><line class="cls-1" x1="0.36" y1="1063.36" x2="0.36" y2="992.5"/></g><g id="LINE-92" data-name="LINE"><line class="cls-1" x1="0.36" y1="496.43" x2="17.93" y2="496.43"/></g><g id="LINE-93" data-name="LINE"><line class="cls-1" x1="1435.84" y1="496.43" x2="1435.84" y2="567.3"/></g><g id="LINE-94" data-name="LINE"><line class="cls-1" x1="1418.26" y1="496.43" x2="1435.84" y2="496.43"/></g><g id="LINE-95" data-name="LINE"><line class="cls-1" x1="0.36" y1="850.76" x2="0.36" y2="921.63"/></g><g id="LINE-96" data-name="LINE"><line class="cls-1" x1="1418.26" y1="425.56" x2="1418.26" y2="496.43"/></g><g id="LINE-97" data-name="LINE"><line class="cls-1" x1="71.23" y1="1063.36" x2="0.36" y2="1063.36"/></g><g id="LINE-98" data-name="LINE"><line class="cls-1" x1="0.36" y1="142.09" x2="0.36" y2="212.96"/></g><g id="LINE-99" data-name="LINE"><line class="cls-1" x1="0.36" y1="0.36" x2="71.23" y2="0.36"/></g><g id="LINE-100" data-name="LINE"><line class="cls-1" x1="1435.84" y1="425.56" x2="1418.26" y2="425.56"/></g><g id="LINE-101" data-name="LINE"><line class="cls-1" x1="1418.26" y1="283.83" x2="1418.26" y2="354.69"/></g><g id="LINE-102" data-name="LINE"><line class="cls-1" x1="1116.66" y1="779.9" x2="1099.08" y2="779.9"/></g><g id="LINE-103" data-name="LINE"><line class="cls-1" x1="1116.66" y1="709.03" x2="1116.66" y2="638.16"/></g><g id="LINE-104" data-name="LINE"><line class="cls-1" x1="1116.66" y1="638.16" x2="1099.08" y2="638.16"/></g><g id="LINE-105" data-name="LINE"><line class="cls-1" x1="762.32" y1="850.76" x2="762.32" y2="779.9"/></g><g id="LINE-106" data-name="LINE"><line class="cls-1" x1="1223.24" y1="779.9" x2="1223.24" y2="762.32"/></g><g id="LINE-107" data-name="LINE"><line class="cls-1" x1="762.32" y1="709.03" x2="762.32" y2="638.16"/></g><g id="LINE-108" data-name="LINE"><line class="cls-1" x1="1364.97" y1="17.93" x2="1418.26" y2="17.93"/></g><g id="LINE-109" data-name="LINE"><line class="cls-1" x1="1435.84" y1="142.09" x2="1418.26" y2="142.09"/></g><g id="LINE-110" data-name="LINE"><line class="cls-1" x1="1099.08" y1="779.9" x2="1099.08" y2="709.03"/></g><g id="LINE-111" data-name="LINE"><line class="cls-1" x1="779.9" y1="567.3" x2="762.32" y2="567.3"/></g><g id="LINE-112" data-name="LINE"><line class="cls-1" x1="1152.37" y1="762.32" x2="1099.08" y2="762.32"/></g><g id="LINE-113" data-name="LINE"><line class="cls-1" x1="1294.11" y1="0.36" x2="1364.97" y2="0.36"/></g><g id="LINE-114" data-name="LINE"><line class="cls-1" x1="1364.97" y1="0.36" x2="1364.97" y2="17.93"/></g><g id="LINE-115" data-name="LINE"><line class="cls-1" x1="1099.08" y1="709.03" x2="1116.66" y2="709.03"/></g><g id="LINE-116" data-name="LINE"><line class="cls-1" x1="1294.11" y1="762.32" x2="1294.11" y2="779.9"/></g><g id="LINE-117" data-name="LINE"><line class="cls-1" x1="779.9" y1="638.16" x2="779.9" y2="567.3"/></g><g id="LINE-118" data-name="LINE"><line class="cls-1" x1="1099.08" y1="567.3" x2="1116.66" y2="567.3"/></g><g id="LINE-119" data-name="LINE"><line class="cls-1" x1="1418.26" y1="71.23" x2="1435.84" y2="71.23"/></g><g id="LINE-120" data-name="LINE"><line class="cls-1" x1="1152.37" y1="762.32" x2="1152.37" y2="779.9"/></g><g id="LINE-121" data-name="LINE"><line class="cls-1" x1="762.32" y1="779.9" x2="779.9" y2="779.9"/></g><g id="LINE-122" data-name="LINE"><line class="cls-1" x1="779.9" y1="921.63" x2="779.9" y2="850.76"/></g><g id="LINE-123" data-name="LINE"><line class="cls-1" x1="1152.37" y1="779.9" x2="1223.24" y2="779.9"/></g><g id="LINE-124" data-name="LINE"><line class="cls-1" x1="1435.84" y1="71.23" x2="1435.84" y2="142.09"/></g><g id="LINE-125" data-name="LINE"><line class="cls-1" x1="779.9" y1="709.03" x2="762.32" y2="709.03"/></g><g id="LINE-126" data-name="LINE"><line class="cls-1" x1="762.32" y1="638.16" x2="779.9" y2="638.16"/></g><g id="LINE-127" data-name="LINE"><line class="cls-1" x1="779.9" y1="850.76" x2="762.32" y2="850.76"/></g><g id="LINE-128" data-name="LINE"><line class="cls-1" x1="779.9" y1="779.9" x2="779.9" y2="709.03"/></g><g id="LINE-129" data-name="LINE"><line class="cls-1" x1="762.32" y1="921.63" x2="779.9" y2="921.63"/></g><g id="LINE-130" data-name="LINE"><line class="cls-1" x1="1294.11" y1="17.93" x2="1294.11" y2="0.36"/></g><g id="LINE-131" data-name="LINE"><line class="cls-1" x1="1418.26" y1="17.93" x2="1418.26" y2="71.23"/></g><g id="LINE-132" data-name="LINE"><line class="cls-1" x1="1116.66" y1="850.76" x2="1116.66" y2="779.9"/></g><g id="LINE-133" data-name="LINE"><line class="cls-1" x1="1099.08" y1="638.16" x2="1099.08" y2="567.3"/></g><g id="LINE-134" data-name="LINE"><line class="cls-1" x1="1223.24" y1="762.32" x2="1294.11" y2="762.32"/></g><g id="LINE-135" data-name="LINE"><line class="cls-1" x1="1364.97" y1="779.9" x2="1364.97" y2="762.32"/></g><g id="LINE-136" data-name="LINE"><line class="cls-1" x1="1294.11" y1="779.9" x2="1364.97" y2="779.9"/></g><g id="LINE-137" data-name="LINE"><line class="cls-1" x1="1418.26" y1="212.96" x2="1435.84" y2="212.96"/></g><g id="LINE-138" data-name="LINE"><line class="cls-1" x1="762.32" y1="992.5" x2="762.32" y2="921.63"/></g><g id="LINE-139" data-name="LINE"><line class="cls-1" x1="1099.08" y1="850.76" x2="1116.66" y2="850.76"/></g><g id="LINE-140" data-name="LINE"><line class="cls-1" x1="974.92" y1="1045.79" x2="1045.79" y2="1045.79"/></g><g id="LINE-141" data-name="LINE"><line class="cls-1" x1="1116.66" y1="921.63" x2="1099.08" y2="921.63"/></g><g id="LINE-142" data-name="LINE"><line class="cls-1" x1="1435.84" y1="567.3" x2="1418.26" y2="567.3"/></g><g id="LINE-143" data-name="LINE"><line class="cls-1" x1="974.92" y1="1063.36" x2="974.92" y2="1045.79"/></g><g id="LINE-144" data-name="LINE"><line class="cls-1" x1="779.9" y1="1063.36" x2="709.03" y2="1063.36"/></g><g id="LINE-145" data-name="LINE"><line class="cls-1" x1="904.05" y1="1045.79" x2="904.05" y2="1063.36"/></g><g id="LINE-146" data-name="LINE"><line class="cls-1" x1="1045.79" y1="1063.36" x2="1099.08" y2="1063.36"/></g><g id="LINE-147" data-name="LINE"><line class="cls-1" x1="1418.26" y1="638.16" x2="1435.84" y2="638.16"/></g><g id="LINE-148" data-name="LINE"><line class="cls-1" x1="1116.66" y1="992.5" x2="1116.66" y2="921.63"/></g><g id="LINE-149" data-name="LINE"><line class="cls-1" x1="1418.26" y1="762.32" x2="1418.26" y2="709.03"/></g><g id="LINE-150" data-name="LINE"><line class="cls-1" x1="1045.79" y1="1045.79" x2="1045.79" y2="1063.36"/></g><g id="LINE-151" data-name="LINE"><line class="cls-1" x1="904.05" y1="1063.36" x2="974.92" y2="1063.36"/></g><g id="LINE-152" data-name="LINE"><line class="cls-1" x1="833.19" y1="1045.79" x2="904.05" y2="1045.79"/></g><g id="LINE-153" data-name="LINE"><line class="cls-1" x1="833.19" y1="1063.36" x2="833.19" y2="1045.79"/></g><g id="LINE-154" data-name="LINE"><line class="cls-1" x1="1435.84" y1="709.03" x2="1418.26" y2="709.03"/></g><g id="LINE-155" data-name="LINE"><line class="cls-1" x1="1116.66" y1="992.5" x2="1099.08" y2="992.5"/></g><g id="LINE-156" data-name="LINE"><line class="cls-1" x1="1099.08" y1="992.5" x2="1099.08" y2="1063.36"/></g><g id="LINE-157" data-name="LINE"><line class="cls-1" x1="833.19" y1="1063.36" x2="779.9" y2="1063.36"/></g><g id="LINE-158" data-name="LINE"><line class="cls-1" x1="1099.08" y1="921.63" x2="1099.08" y2="850.76"/></g><g id="LINE-159" data-name="LINE"><line class="cls-1" x1="709.03" y1="1045.79" x2="709.03" y2="1063.36"/></g><g id="LINE-160" data-name="LINE"><line class="cls-1" x1="1418.26" y1="567.3" x2="1418.26" y2="638.16"/></g><g id="LINE-161" data-name="LINE"><line class="cls-1" x1="1364.97" y1="762.32" x2="1418.26" y2="762.32"/></g><g id="LINE-162" data-name="LINE"><line class="cls-1" x1="1435.84" y1="638.16" x2="1435.84" y2="709.03"/></g><g id="LINE-163" data-name="LINE"><line class="cls-1" x1="779.9" y1="1063.36" x2="779.9" y2="992.5"/></g><g id="LINE-164" data-name="LINE"><line class="cls-1" x1="779.9" y1="992.5" x2="762.32" y2="992.5"/></g><g id="LINE-165" data-name="LINE"><line class="cls-1" x1="1116.66" y1="283.83" x2="1116.66" y2="212.96"/></g><g id="LINE-166" data-name="LINE"><line class="cls-1" x1="1099.08" y1="142.09" x2="1116.66" y2="142.09"/></g><g id="LINE-167" data-name="LINE"><line class="cls-1" x1="1099.08" y1="212.96" x2="1099.08" y2="142.09"/></g><g id="LINE-168" data-name="LINE"><line class="cls-1" x1="1116.66" y1="496.43" x2="1099.08" y2="496.43"/></g><g id="LINE-169" data-name="LINE"><line class="cls-1" x1="1099.08" y1="283.83" x2="1116.66" y2="283.83"/></g><g id="LINE-170" data-name="LINE"><line class="cls-1" x1="1116.66" y1="212.96" x2="1099.08" y2="212.96"/></g><g id="LINE-171" data-name="LINE"><line class="cls-1" x1="1116.66" y1="567.3" x2="1116.66" y2="496.43"/></g><g id="LINE-172" data-name="LINE"><line class="cls-1" x1="1116.66" y1="425.56" x2="1116.66" y2="354.69"/></g><g id="LINE-173" data-name="LINE"><line class="cls-1" x1="1116.66" y1="354.69" x2="1099.08" y2="354.69"/></g><g id="LINE-174" data-name="LINE"><line class="cls-1" x1="1099.08" y1="425.56" x2="1116.66" y2="425.56"/></g><g id="LINE-175" data-name="LINE"><line class="cls-1" x1="1099.08" y1="496.43" x2="1099.08" y2="425.56"/></g><g id="LINE-176" data-name="LINE"><line class="cls-1" x1="1099.08" y1="354.69" x2="1099.08" y2="283.83"/></g><g id="LINE-177" data-name="LINE"><line class="cls-1" x1="1116.66" y1="142.09" x2="1116.66" y2="71.23"/></g><g id="LINE-178" data-name="LINE"><line class="cls-1" x1="1116.66" y1="71.23" x2="1099.08" y2="71.23"/></g><g id="LINE-179" data-name="LINE"><line class="cls-1" x1="1045.79" y1="0.36" x2="1099.08" y2="0.36"/></g><g id="LINE-180" data-name="LINE"><line class="cls-1" x1="1099.08" y1="71.23" x2="1099.08" y2="0.36"/></g><g id="LINE-181" data-name="LINE"><line class="cls-1" x1="1045.79" y1="17.93" x2="1045.79" y2="0.36"/></g><g id="LINE-182" data-name="LINE"><line class="cls-1" x1="974.92" y1="17.93" x2="1045.79" y2="17.93"/></g><g id="LINE-183" data-name="LINE"><line class="cls-1" x1="1223.24" y1="0.36" x2="1223.24" y2="17.93"/></g><g id="LINE-184" data-name="LINE"><line class="cls-1" x1="1152.37" y1="0.36" x2="1223.24" y2="0.36"/></g><g id="LINE-185" data-name="LINE"><line class="cls-1" x1="1152.37" y1="17.93" x2="1099.08" y2="17.93"/></g><g id="LINE-186" data-name="LINE"><line class="cls-1" x1="1152.37" y1="17.93" x2="1152.37" y2="0.36"/></g></svg>