G04 Layer_Color=2752767*
%FSLAX25Y25*%
%MOIN*%
G70*
G01*
G75*
%ADD113C,0.00500*%
%ADD114C,0.00667*%
D113*
X144000Y192500D02*
Y196500D01*
X148000D01*
Y192500D01*
X144000D01*
Y212500D02*
Y216500D01*
X148000D01*
Y212500D01*
X144000D01*
X713500Y186000D02*
Y190000D01*
X717500D01*
Y186000D01*
X713500D01*
Y166000D02*
Y170000D01*
X717500D01*
Y166000D01*
X713500D01*
X492500Y414000D02*
Y418000D01*
X496500D01*
Y414000D01*
X492500D01*
X512500D02*
Y418000D01*
X516500D01*
Y414000D01*
X512500D01*
X336000Y413000D02*
Y417000D01*
X340000D01*
Y413000D01*
X336000D01*
X356000D02*
Y417000D01*
X360000D01*
Y413000D01*
X356000D01*
X711500Y390626D02*
Y394626D01*
X715500D01*
Y390626D01*
X711500D01*
Y370626D02*
Y374626D01*
X715500D01*
Y370626D01*
X711500D01*
Y317000D02*
Y321000D01*
X715500D01*
Y317000D01*
X711500D01*
Y297000D02*
Y301000D01*
X715500D01*
Y297000D01*
X711500D01*
X432000Y139500D02*
Y143500D01*
X436000D01*
Y139500D01*
X432000D01*
X412000D02*
Y143500D01*
X416000D01*
Y139500D01*
X412000D01*
X608996Y221863D02*
X606996Y225863D01*
X610996D01*
X608996Y221863D01*
X609119Y237075D02*
X607119Y241075D01*
X611119D01*
X609119Y237075D01*
X607012Y137768D02*
X608012Y138768D01*
X609012D01*
X608012Y139768D01*
X609012Y140768D01*
X608012D01*
X607012Y141768D01*
X606012Y140768D01*
X605012D01*
X606012Y139768D01*
X605012Y138768D01*
X606012D01*
X607012Y137768D01*
X690000Y185000D02*
X688000Y189000D01*
X692000D01*
X690000Y185000D01*
X172000Y200000D02*
X170000Y204000D01*
X174000D01*
X172000Y200000D01*
X515000Y388000D02*
X513000Y392000D01*
X517000D01*
X515000Y388000D01*
X345500Y387000D02*
X343500Y391000D01*
X347500D01*
X345500Y387000D01*
X385000Y313000D02*
X386000Y314000D01*
X387000D01*
X386000Y315000D01*
X387000Y316000D01*
X386000D01*
X385000Y317000D01*
X384000Y316000D01*
X383000D01*
X384000Y315000D01*
X383000Y314000D01*
X384000D01*
X385000Y313000D01*
X655000Y401626D02*
X656000Y402626D01*
X657000D01*
X656000Y403626D01*
X657000Y404626D01*
X656000D01*
X655000Y405626D01*
X654000Y404626D01*
X653000D01*
X654000Y403626D01*
X653000Y402626D01*
X654000D01*
X655000Y401626D01*
X655500Y338000D02*
X656500Y339000D01*
X657500D01*
X656500Y340000D01*
X657500Y341000D01*
X656500D01*
X655500Y342000D01*
X654500Y341000D01*
X653500D01*
X654500Y340000D01*
X653500Y339000D01*
X654500D01*
X655500Y338000D01*
X605000Y355850D02*
X606000Y356850D01*
X607000D01*
X606000Y357850D01*
X607000Y358850D01*
X606000D01*
X605000Y359850D01*
X604000Y358850D01*
X603000D01*
X604000Y357850D01*
X603000Y356850D01*
X604000D01*
X605000Y355850D01*
X587000Y401500D02*
X588000Y402500D01*
X589000D01*
X588000Y403500D01*
X589000Y404500D01*
X588000D01*
X587000Y405500D01*
X586000Y404500D01*
X585000D01*
X586000Y403500D01*
X585000Y402500D01*
X586000D01*
X587000Y401500D01*
X454500Y170000D02*
X455500Y171000D01*
X456500D01*
X455500Y172000D01*
X456500Y173000D01*
X455500D01*
X454500Y174000D01*
X453500Y173000D01*
X452500D01*
X453500Y172000D01*
X452500Y171000D01*
X453500D01*
X454500Y170000D01*
X442000Y215500D02*
X443000Y216500D01*
X444000D01*
X443000Y217500D01*
X444000Y218500D01*
X443000D01*
X442000Y219500D01*
X441000Y218500D01*
X440000D01*
X441000Y217500D01*
X440000Y216500D01*
X441000D01*
X442000Y215500D01*
X387000Y164500D02*
X388000Y165500D01*
X389000D01*
X388000Y166500D01*
X389000Y167500D01*
X388000D01*
X387000Y168500D01*
X386000Y167500D01*
X385000D01*
X386000Y166500D01*
X385000Y165500D01*
X386000D01*
X387000Y164500D01*
X409000Y234500D02*
X410000Y235500D01*
X411000D01*
X410000Y236500D01*
X411000Y237500D01*
X410000D01*
X409000Y238500D01*
X408000Y237500D01*
X407000D01*
X408000Y236500D01*
X407000Y235500D01*
X408000D01*
X409000Y234500D01*
X257500Y152000D02*
X258500Y154000D01*
X257500Y156000D01*
X259500Y155000D01*
X261500Y156000D01*
X260500Y154000D01*
X261500Y152000D01*
X259500Y153000D01*
X257500Y152000D01*
Y157000D02*
X258500Y159000D01*
X257500Y161000D01*
X259500Y160000D01*
X261500Y161000D01*
X260500Y159000D01*
X261500Y157000D01*
X259500Y158000D01*
X257500Y157000D01*
X271000D02*
X272000Y159000D01*
X271000Y161000D01*
X273000Y160000D01*
X275000Y161000D01*
X274000Y159000D01*
X275000Y157000D01*
X273000Y158000D01*
X271000Y157000D01*
Y152000D02*
X272000Y154000D01*
X271000Y156000D01*
X273000Y155000D01*
X275000Y156000D01*
X274000Y154000D01*
X275000Y152000D01*
X273000Y153000D01*
X271000Y152000D01*
X282354Y152120D02*
X283354Y154120D01*
X282354Y156120D01*
X284354Y155120D01*
X286354Y156120D01*
X285354Y154120D01*
X286354Y152120D01*
X284354Y153120D01*
X282354Y152120D01*
Y157120D02*
X283354Y159120D01*
X282354Y161120D01*
X284354Y160120D01*
X286354Y161120D01*
X285354Y159120D01*
X286354Y157120D01*
X284354Y158120D01*
X282354Y157120D01*
X245412Y157000D02*
X246412Y159000D01*
X245412Y161000D01*
X247412Y160000D01*
X249412Y161000D01*
X248412Y159000D01*
X249412Y157000D01*
X247412Y158000D01*
X245412Y157000D01*
Y152000D02*
X246412Y154000D01*
X245412Y156000D01*
X247412Y155000D01*
X249412Y156000D01*
X248412Y154000D01*
X249412Y152000D01*
X247412Y153000D01*
X245412Y152000D01*
X240912Y157000D02*
X241912Y159000D01*
X240912Y161000D01*
X242912Y160000D01*
X244912Y161000D01*
X243912Y159000D01*
X244912Y157000D01*
X242912Y158000D01*
X240912Y157000D01*
Y152000D02*
X241912Y154000D01*
X240912Y156000D01*
X242912Y155000D01*
X244912Y156000D01*
X243912Y154000D01*
X244912Y152000D01*
X242912Y153000D01*
X240912Y152000D01*
X286854Y152120D02*
X287854Y154120D01*
X286854Y156120D01*
X288854Y155120D01*
X290854Y156120D01*
X289854Y154120D01*
X290854Y152120D01*
X288854Y153120D01*
X286854Y152120D01*
Y157120D02*
X287854Y159120D01*
X286854Y161120D01*
X288854Y160120D01*
X290854Y161120D01*
X289854Y159120D01*
X290854Y157120D01*
X288854Y158120D01*
X286854Y157120D01*
X584500Y229500D02*
X585500Y231500D01*
X584500Y233500D01*
X586500Y232500D01*
X588500Y233500D01*
X587500Y231500D01*
X588500Y229500D01*
X586500Y230500D01*
X584500Y229500D01*
Y224500D02*
X585500Y226500D01*
X584500Y228500D01*
X586500Y227500D01*
X588500Y228500D01*
X587500Y226500D01*
X588500Y224500D01*
X586500Y225500D01*
X584500Y224500D01*
X598500D02*
X599500Y226500D01*
X598500Y228500D01*
X600500Y227500D01*
X602500Y228500D01*
X601500Y226500D01*
X602500Y224500D01*
X600500Y225500D01*
X598500Y224500D01*
Y229500D02*
X599500Y231500D01*
X598500Y233500D01*
X600500Y232500D01*
X602500Y233500D01*
X601500Y231500D01*
X602500Y229500D01*
X600500Y230500D01*
X598500Y229500D01*
X573233D02*
X574233Y231500D01*
X573233Y233500D01*
X575233Y232500D01*
X577233Y233500D01*
X576233Y231500D01*
X577233Y229500D01*
X575233Y230500D01*
X573233Y229500D01*
Y224000D02*
X574233Y226000D01*
X573233Y228000D01*
X575233Y227000D01*
X577233Y228000D01*
X576233Y226000D01*
X577233Y224000D01*
X575233Y225000D01*
X573233Y224000D01*
X568233Y229500D02*
X569233Y231500D01*
X568233Y233500D01*
X570233Y232500D01*
X572233Y233500D01*
X571233Y231500D01*
X572233Y229500D01*
X570233Y230500D01*
X568233Y229500D01*
Y224000D02*
X569233Y226000D01*
X568233Y228000D01*
X570233Y227000D01*
X572233Y228000D01*
X571233Y226000D01*
X572233Y224000D01*
X570233Y225000D01*
X568233Y224000D01*
X613613Y229911D02*
X614613Y231911D01*
X613613Y233911D01*
X615613Y232911D01*
X617613Y233911D01*
X616613Y231911D01*
X617613Y229911D01*
X615613Y230911D01*
X613613Y229911D01*
Y224911D02*
X614613Y226911D01*
X613613Y228911D01*
X615613Y227911D01*
X617613Y228911D01*
X616613Y226911D01*
X617613Y224911D01*
X615613Y225911D01*
X613613Y224911D01*
X618113D02*
X619113Y226911D01*
X618113Y228911D01*
X620113Y227911D01*
X622113Y228911D01*
X621113Y226911D01*
X622113Y224911D01*
X620113Y225911D01*
X618113Y224911D01*
Y229911D02*
X619113Y231911D01*
X618113Y233911D01*
X620113Y232911D01*
X622113Y233911D01*
X621113Y231911D01*
X622113Y229911D01*
X620113Y230911D01*
X618113Y229911D01*
X468000Y284500D02*
X469000Y286500D01*
X468000Y288500D01*
X470000Y287500D01*
X472000Y288500D01*
X471000Y286500D01*
X472000Y284500D01*
X470000Y285500D01*
X468000Y284500D01*
X473000D02*
X474000Y286500D01*
X473000Y288500D01*
X475000Y287500D01*
X477000Y288500D01*
X476000Y286500D01*
X477000Y284500D01*
X475000Y285500D01*
X473000Y284500D01*
Y298500D02*
X474000Y300500D01*
X473000Y302500D01*
X475000Y301500D01*
X477000Y302500D01*
X476000Y300500D01*
X477000Y298500D01*
X475000Y299500D01*
X473000Y298500D01*
X468000D02*
X469000Y300500D01*
X468000Y302500D01*
X470000Y301500D01*
X472000Y302500D01*
X471000Y300500D01*
X472000Y298500D01*
X470000Y299500D01*
X468000Y298500D01*
X468075Y312141D02*
X469075Y314141D01*
X468075Y316141D01*
X470075Y315141D01*
X472075Y316141D01*
X471075Y314141D01*
X472075Y312141D01*
X470075Y313141D01*
X468075Y312141D01*
X473075D02*
X474075Y314141D01*
X473075Y316141D01*
X475075Y315141D01*
X477075Y316141D01*
X476075Y314141D01*
X477075Y312141D01*
X475075Y313141D01*
X473075Y312141D01*
Y316641D02*
X474075Y318641D01*
X473075Y320641D01*
X475075Y319641D01*
X477075Y320641D01*
X476075Y318641D01*
X477075Y316641D01*
X475075Y317641D01*
X473075Y316641D01*
X468075D02*
X469075Y318641D01*
X468075Y320641D01*
X470075Y319641D01*
X472075Y320641D01*
X471075Y318641D01*
X472075Y316641D01*
X470075Y317641D01*
X468075Y316641D01*
X467845Y275504D02*
X468846Y277504D01*
X467845Y279504D01*
X469845Y278504D01*
X471845Y279504D01*
X470846Y277504D01*
X471845Y275504D01*
X469845Y276504D01*
X467845Y275504D01*
X472846D02*
X473845Y277504D01*
X472846Y279504D01*
X474846Y278504D01*
X476846Y279504D01*
X475845Y277504D01*
X476846Y275504D01*
X474846Y276504D01*
X472846Y275504D01*
X467845Y271004D02*
X468846Y273004D01*
X467845Y275004D01*
X469845Y274004D01*
X471845Y275004D01*
X470846Y273004D01*
X471845Y271004D01*
X469845Y272004D01*
X467845Y271004D01*
X472846D02*
X473845Y273004D01*
X472846Y275004D01*
X474846Y274004D01*
X476846Y275004D01*
X475845Y273004D01*
X476846Y271004D01*
X474846Y272004D01*
X472846Y271004D01*
X298000Y283500D02*
X299000Y285500D01*
X298000Y287500D01*
X300000Y286500D01*
X302000Y287500D01*
X301000Y285500D01*
X302000Y283500D01*
X300000Y284500D01*
X298000Y283500D01*
Y297500D02*
X299000Y299500D01*
X298000Y301500D01*
X300000Y300500D01*
X302000Y301500D01*
X301000Y299500D01*
X302000Y297500D01*
X300000Y298500D01*
X298000Y297500D01*
X303000D02*
X304000Y299500D01*
X303000Y301500D01*
X305000Y300500D01*
X307000Y301500D01*
X306000Y299500D01*
X307000Y297500D01*
X305000Y298500D01*
X303000Y297500D01*
Y283500D02*
X304000Y285500D01*
X303000Y287500D01*
X305000Y286500D01*
X307000Y287500D01*
X306000Y285500D01*
X307000Y283500D01*
X305000Y284500D01*
X303000Y283500D01*
X303041Y275233D02*
X304041Y277233D01*
X303041Y279233D01*
X305041Y278233D01*
X307041Y279233D01*
X306041Y277233D01*
X307041Y275233D01*
X305041Y276233D01*
X303041Y275233D01*
X298041D02*
X299041Y277233D01*
X298041Y279233D01*
X300041Y278233D01*
X302041Y279233D01*
X301041Y277233D01*
X302041Y275233D01*
X300041Y276233D01*
X298041Y275233D01*
Y270733D02*
X299041Y272733D01*
X298041Y274733D01*
X300041Y273733D01*
X302041Y274733D01*
X301041Y272733D01*
X302041Y270733D01*
X300041Y271733D01*
X298041Y270733D01*
X303041D02*
X304041Y272733D01*
X303041Y274733D01*
X305041Y273733D01*
X307041Y274733D01*
X306041Y272733D01*
X307041Y270733D01*
X305041Y271733D01*
X303041Y270733D01*
X303068Y311210D02*
X304068Y313210D01*
X303068Y315210D01*
X305068Y314210D01*
X307068Y315210D01*
X306068Y313210D01*
X307068Y311210D01*
X305068Y312210D01*
X303068Y311210D01*
X297568D02*
X298568Y313210D01*
X297568Y315210D01*
X299568Y314210D01*
X301568Y315210D01*
X300568Y313210D01*
X301568Y311210D01*
X299568Y312210D01*
X297568Y311210D01*
Y315710D02*
X298568Y317710D01*
X297568Y319710D01*
X299568Y318710D01*
X301568Y319710D01*
X300568Y317710D01*
X301568Y315710D01*
X299568Y316710D01*
X297568Y315710D01*
X303068D02*
X304068Y317710D01*
X303068Y319710D01*
X305068Y318710D01*
X307068Y319710D01*
X306068Y317710D01*
X307068Y315710D01*
X305068Y316710D01*
X303068Y315710D01*
X462500Y306000D02*
X460500Y310000D01*
X464500D01*
X462500Y306000D01*
X308500Y304500D02*
X306500Y308500D01*
X310500D01*
X308500Y304500D01*
X293000D02*
X291000Y308500D01*
X295000D01*
X293000Y304500D01*
X478000Y306000D02*
X476000Y310000D01*
X480000D01*
X478000Y306000D01*
X386000Y372500D02*
X387000Y373500D01*
X388000D01*
X387000Y374500D01*
X388000Y375500D01*
X387000D01*
X386000Y376500D01*
X385000Y375500D01*
X384000D01*
X385000Y374500D01*
X384000Y373500D01*
X385000D01*
X386000Y372500D01*
X192000Y246000D02*
X193000Y247000D01*
X194000D01*
X193000Y248000D01*
X194000Y249000D01*
X193000D01*
X192000Y250000D01*
X191000Y249000D01*
X190000D01*
X191000Y248000D01*
X190000Y247000D01*
X191000D01*
X192000Y246000D01*
X246500Y240500D02*
X247500Y241500D01*
X248500D01*
X247500Y242500D01*
X248500Y243500D01*
X247500D01*
X246500Y244500D01*
X245500Y243500D01*
X244500D01*
X245500Y242500D01*
X244500Y241500D01*
X245500D01*
X246500Y240500D01*
X557500Y370500D02*
X558500Y371500D01*
X559500D01*
X558500Y372500D01*
X559500Y373500D01*
X558500D01*
X557500Y374500D01*
X556500Y373500D01*
X555500D01*
X556500Y372500D01*
X555500Y371500D01*
X556500D01*
X557500Y370500D01*
X556500Y313500D02*
X557500Y314500D01*
X558500D01*
X557500Y315500D01*
X558500Y316500D01*
X557500D01*
X556500Y317500D01*
X555500Y316500D01*
X554500D01*
X555500Y315500D01*
X554500Y314500D01*
X555500D01*
X556500Y313500D01*
X672000Y140500D02*
X673000Y141500D01*
X674000D01*
X673000Y142500D01*
X674000Y143500D01*
X673000D01*
X672000Y144500D01*
X671000Y143500D01*
X670000D01*
X671000Y142500D01*
X670000Y141500D01*
X671000D01*
X672000Y140500D01*
X135316Y125036D02*
Y124036D01*
X137316D01*
Y125036D01*
X138316D01*
Y127036D01*
X137316D01*
Y128036D01*
X135316D01*
Y127036D01*
X134316D01*
Y125036D01*
X135316D01*
Y425824D02*
Y424824D01*
X137316D01*
Y425824D01*
X138316D01*
Y427824D01*
X137316D01*
Y428824D01*
X135316D01*
Y427824D01*
X134316D01*
Y425824D01*
X135316D01*
X721930D02*
Y424824D01*
X723930D01*
Y425824D01*
X724930D01*
Y427824D01*
X723930D01*
Y428824D01*
X721930D01*
Y427824D01*
X720930D01*
Y425824D01*
X721930D01*
X566024Y125036D02*
Y124036D01*
X568024D01*
Y125036D01*
X569025D01*
Y127036D01*
X568024D01*
Y128036D01*
X566024D01*
Y127036D01*
X565025D01*
Y125036D01*
X566024D01*
X298138Y292862D02*
X299138D01*
X300138Y293862D01*
X301138Y292862D01*
X302138D01*
Y293862D01*
X301138Y294862D01*
X302138Y295862D01*
Y296862D01*
X301138D01*
X300138Y295862D01*
X299138Y296862D01*
X298138D01*
Y295862D01*
X299138Y294862D01*
X298138Y293862D01*
Y292862D01*
X302862D02*
X303862D01*
X304862Y293862D01*
X305862Y292862D01*
X306862D01*
Y293862D01*
X305862Y294862D01*
X306862Y295862D01*
Y296862D01*
X305862D01*
X304862Y295862D01*
X303862Y296862D01*
X302862D01*
Y295862D01*
X303862Y294862D01*
X302862Y293862D01*
Y292862D01*
Y288138D02*
X303862D01*
X304862Y289138D01*
X305862Y288138D01*
X306862D01*
Y289138D01*
X305862Y290138D01*
X306862Y291138D01*
Y292138D01*
X305862D01*
X304862Y291138D01*
X303862Y292138D01*
X302862D01*
Y291138D01*
X303862Y290138D01*
X302862Y289138D01*
Y288138D01*
X298138D02*
X299138D01*
X300138Y289138D01*
X301138Y288138D01*
X302138D01*
Y289138D01*
X301138Y290138D01*
X302138Y291138D01*
Y292138D01*
X301138D01*
X300138Y291138D01*
X299138Y292138D01*
X298138D01*
Y291138D01*
X299138Y290138D01*
X298138Y289138D01*
Y288138D01*
X593862Y229362D02*
X594862D01*
X595862Y230362D01*
X596862Y229362D01*
X597862D01*
Y230362D01*
X596862Y231362D01*
X597862Y232362D01*
Y233362D01*
X596862D01*
X595862Y232362D01*
X594862Y233362D01*
X593862D01*
Y232362D01*
X594862Y231362D01*
X593862Y230362D01*
Y229362D01*
Y224638D02*
X594862D01*
X595862Y225638D01*
X596862Y224638D01*
X597862D01*
Y225638D01*
X596862Y226638D01*
X597862Y227638D01*
Y228638D01*
X596862D01*
X595862Y227638D01*
X594862Y228638D01*
X593862D01*
Y227638D01*
X594862Y226638D01*
X593862Y225638D01*
Y224638D01*
X589138D02*
X590138D01*
X591138Y225638D01*
X592138Y224638D01*
X593138D01*
Y225638D01*
X592138Y226638D01*
X593138Y227638D01*
Y228638D01*
X592138D01*
X591138Y227638D01*
X590138Y228638D01*
X589138D01*
Y227638D01*
X590138Y226638D01*
X589138Y225638D01*
Y224638D01*
Y229362D02*
X590138D01*
X591138Y230362D01*
X592138Y229362D01*
X593138D01*
Y230362D01*
X592138Y231362D01*
X593138Y232362D01*
Y233362D01*
X592138D01*
X591138Y232362D01*
X590138Y233362D01*
X589138D01*
Y232362D01*
X590138Y231362D01*
X589138Y230362D01*
Y229362D01*
X468138Y293862D02*
X469138D01*
X470138Y294862D01*
X471138Y293862D01*
X472138D01*
Y294862D01*
X471138Y295862D01*
X472138Y296862D01*
Y297862D01*
X471138D01*
X470138Y296862D01*
X469138Y297862D01*
X468138D01*
Y296862D01*
X469138Y295862D01*
X468138Y294862D01*
Y293862D01*
X472862D02*
X473862D01*
X474862Y294862D01*
X475862Y293862D01*
X476862D01*
Y294862D01*
X475862Y295862D01*
X476862Y296862D01*
Y297862D01*
X475862D01*
X474862Y296862D01*
X473862Y297862D01*
X472862D01*
Y296862D01*
X473862Y295862D01*
X472862Y294862D01*
Y293862D01*
Y289138D02*
X473862D01*
X474862Y290138D01*
X475862Y289138D01*
X476862D01*
Y290138D01*
X475862Y291138D01*
X476862Y292138D01*
Y293138D01*
X475862D01*
X474862Y292138D01*
X473862Y293138D01*
X472862D01*
Y292138D01*
X473862Y291138D01*
X472862Y290138D01*
Y289138D01*
X468138D02*
X469138D01*
X470138Y290138D01*
X471138Y289138D01*
X472138D01*
Y290138D01*
X471138Y291138D01*
X472138Y292138D01*
Y293138D01*
X471138D01*
X470138Y292138D01*
X469138Y293138D01*
X468138D01*
Y292138D01*
X469138Y291138D01*
X468138Y290138D01*
Y289138D01*
X261638Y152138D02*
X262638D01*
X263638Y153138D01*
X264638Y152138D01*
X265638D01*
Y153138D01*
X264638Y154138D01*
X265638Y155138D01*
Y156138D01*
X264638D01*
X263638Y155138D01*
X262638Y156138D01*
X261638D01*
Y155138D01*
X262638Y154138D01*
X261638Y153138D01*
Y152138D01*
Y156862D02*
X262638D01*
X263638Y157862D01*
X264638Y156862D01*
X265638D01*
Y157862D01*
X264638Y158862D01*
X265638Y159862D01*
Y160862D01*
X264638D01*
X263638Y159862D01*
X262638Y160862D01*
X261638D01*
Y159862D01*
X262638Y158862D01*
X261638Y157862D01*
Y156862D01*
X266362D02*
X267362D01*
X268362Y157862D01*
X269362Y156862D01*
X270362D01*
Y157862D01*
X269362Y158862D01*
X270362Y159862D01*
Y160862D01*
X269362D01*
X268362Y159862D01*
X267362Y160862D01*
X266362D01*
Y159862D01*
X267362Y158862D01*
X266362Y157862D01*
Y156862D01*
Y152138D02*
X267362D01*
X268362Y153138D01*
X269362Y152138D01*
X270362D01*
Y153138D01*
X269362Y154138D01*
X270362Y155138D01*
Y156138D01*
X269362D01*
X268362Y155138D01*
X267362Y156138D01*
X266362D01*
Y155138D01*
X267362Y154138D01*
X266362Y153138D01*
Y152138D01*
D114*
X254500Y162000D02*
G03*
X254500Y162000I-2000J0D01*
G01*
X255560Y149500D02*
G03*
X255560Y149500I-2000J0D01*
G01*
M02*
