G04 Layer_Physical_Order=1*
G04 Layer_Color=25308*
%FSLAX25Y25*%
%MOIN*%
G70*
G01*
G75*
%ADD10R,0.27559X0.05906*%
%ADD11R,0.03937X0.03543*%
%ADD12R,0.05709X0.05118*%
%ADD13R,0.07874X0.15748*%
%ADD14R,0.03543X0.03937*%
%ADD15R,0.15748X0.07874*%
%ADD16R,0.05118X0.05709*%
%ADD17R,0.03543X0.05118*%
%ADD18R,0.03543X0.03347*%
%ADD19R,0.02913X0.03622*%
%ADD20R,0.04331X0.05315*%
%ADD21R,0.05118X0.03543*%
%ADD22R,0.03347X0.03543*%
%ADD23R,0.03622X0.02913*%
%ADD24R,0.05315X0.04331*%
%ADD25R,0.12402X0.49213*%
%ADD26R,0.49213X0.12402*%
%ADD27R,0.06693X0.04331*%
%ADD28R,0.06299X0.03543*%
G04:AMPARAMS|DCode=29|XSize=74.8mil|YSize=59.06mil|CornerRadius=5.91mil|HoleSize=0mil|Usage=FLASHONLY|Rotation=0.000|XOffset=0mil|YOffset=0mil|HoleType=Round|Shape=RoundedRectangle|*
%AMROUNDEDRECTD29*
21,1,0.07480,0.04724,0,0,0.0*
21,1,0.06299,0.05906,0,0,0.0*
1,1,0.01181,0.03150,-0.02362*
1,1,0.01181,-0.03150,-0.02362*
1,1,0.01181,-0.03150,0.02362*
1,1,0.01181,0.03150,0.02362*
%
%ADD29ROUNDEDRECTD29*%
%ADD30R,0.05118X0.07087*%
%ADD31R,0.04331X0.06693*%
%ADD32R,0.03543X0.06102*%
%ADD33R,0.03543X0.06299*%
G04:AMPARAMS|DCode=34|XSize=74.8mil|YSize=59.06mil|CornerRadius=5.91mil|HoleSize=0mil|Usage=FLASHONLY|Rotation=270.000|XOffset=0mil|YOffset=0mil|HoleType=Round|Shape=RoundedRectangle|*
%AMROUNDEDRECTD34*
21,1,0.07480,0.04724,0,0,270.0*
21,1,0.06299,0.05906,0,0,270.0*
1,1,0.01181,-0.02362,-0.03150*
1,1,0.01181,-0.02362,0.03150*
1,1,0.01181,0.02362,0.03150*
1,1,0.01181,0.02362,-0.03150*
%
%ADD34ROUNDEDRECTD34*%
%ADD35R,0.07087X0.05118*%
%ADD36R,0.06102X0.03543*%
%ADD37R,0.03543X0.07087*%
%ADD38R,0.21457X0.24410*%
%ADD39O,0.06693X0.02362*%
%ADD40R,0.09488X0.21000*%
%ADD41O,0.02362X0.06693*%
%ADD42R,0.21000X0.09488*%
%ADD43R,0.10236X0.12598*%
%ADD44R,0.12598X0.10236*%
%ADD45C,0.01000*%
%ADD46C,0.03000*%
%ADD47C,0.04000*%
%ADD48C,0.02000*%
%ADD49C,0.05000*%
%ADD50C,0.00600*%
%ADD51C,0.10000*%
%ADD52R,0.10000X0.10000*%
%ADD53R,0.10000X0.10000*%
%ADD54C,0.01500*%
%ADD55C,0.05000*%
%ADD56C,0.02000*%
%ADD57C,0.02600*%
%ADD58C,0.19685*%
%ADD59C,0.02598*%
G36*
X328500Y350650D02*
X332000D01*
X332000Y341354D01*
X331646Y341000D01*
X312000Y341000D01*
X311748Y324500D01*
X318327D01*
Y323500D01*
X311733D01*
X311497Y308029D01*
X309361D01*
X309183Y308149D01*
X308500Y308284D01*
X307817Y308149D01*
X307238Y307762D01*
X306852Y307183D01*
X306716Y306500D01*
X306852Y305817D01*
X306984Y305619D01*
X306852Y304941D01*
X305380Y304000D01*
X303000D01*
Y292500D01*
Y281000D01*
X308244D01*
Y282936D01*
X308744Y283203D01*
X309129Y282945D01*
X309980Y282776D01*
X314311D01*
X315162Y282945D01*
X315883Y283428D01*
X316320Y283180D01*
X318000Y281500D01*
X337500Y262000D01*
Y236390D01*
X306176D01*
X299004Y236407D01*
X271500Y261500D01*
X270500Y262500D01*
Y264000D01*
X270500Y266646D01*
X270853Y267000D01*
X271603D01*
X271957Y266646D01*
Y264339D01*
X276000D01*
Y267898D01*
X277000D01*
Y264339D01*
X281043D01*
Y267000D01*
X284500D01*
X286387Y270079D01*
X289657D01*
Y272744D01*
X286000D01*
Y273744D01*
X289657D01*
Y275415D01*
X294169Y282776D01*
X295020D01*
X295871Y282945D01*
X296256Y283203D01*
X296756Y282936D01*
Y281000D01*
X302000D01*
Y292500D01*
Y304000D01*
X296756D01*
Y303991D01*
X296371Y303671D01*
X294384Y304040D01*
Y305421D01*
X294649Y305817D01*
X294784Y306500D01*
X294649Y307183D01*
X294262Y307762D01*
X293683Y308149D01*
X293000Y308284D01*
X292317Y308149D01*
X291738Y307762D01*
X291352Y307183D01*
X291216Y306500D01*
X291325Y305951D01*
Y304999D01*
X290940Y304679D01*
X288059Y305215D01*
Y308212D01*
X285000D01*
Y305440D01*
X284000D01*
Y308212D01*
X280941D01*
Y306927D01*
X280557Y306608D01*
X279854Y306738D01*
Y308209D01*
X276500D01*
Y304650D01*
X275500D01*
Y308209D01*
X272146D01*
Y307500D01*
X269854D01*
Y308209D01*
X266500D01*
Y304650D01*
X265500D01*
Y308209D01*
X262146D01*
Y307500D01*
X260000D01*
Y340500D01*
X268905Y351500D01*
X285709D01*
X286063Y351146D01*
Y350650D01*
X290500D01*
Y359524D01*
X291500D01*
Y350650D01*
X295937D01*
Y351500D01*
X322709Y351500D01*
X323063Y351146D01*
Y350650D01*
X327500D01*
Y359524D01*
X328500D01*
Y350650D01*
D02*
G37*
G36*
X499000Y351650D02*
X503437D01*
Y353000D01*
X504500D01*
Y340000D01*
X483000D01*
Y332299D01*
X482209D01*
Y325500D01*
X488327D01*
Y324500D01*
X482209D01*
Y317701D01*
X483000D01*
Y316000D01*
X477500Y310500D01*
X476920Y309383D01*
X476738Y309262D01*
X476351Y308683D01*
X476224Y308043D01*
X474644Y305000D01*
X473000D01*
Y293500D01*
Y282000D01*
X478244D01*
Y283865D01*
X479533Y283865D01*
X479980Y283776D01*
X482207D01*
X482970Y283013D01*
X483466Y282681D01*
X484051Y282565D01*
X486435D01*
X496500Y272500D01*
X505000Y264000D01*
Y257500D01*
Y252500D01*
X501500Y249000D01*
X501000Y249500D01*
X445500D01*
X440500Y254500D01*
Y265000D01*
X446000D01*
Y268898D01*
X447000D01*
Y265000D01*
X452500D01*
Y271079D01*
X455500D01*
Y274244D01*
X456500D01*
Y271079D01*
X459657D01*
Y274000D01*
X461000D01*
Y276500D01*
X466320Y281820D01*
X466756Y282000D01*
Y282000D01*
X466756Y282000D01*
X472000D01*
Y293500D01*
Y305000D01*
X468961D01*
X464000Y310500D01*
X459500D01*
X458212Y309212D01*
X455500D01*
Y306440D01*
X454500D01*
Y309212D01*
X451441D01*
Y308000D01*
X449854D01*
Y309209D01*
X446500D01*
Y305650D01*
X445500D01*
Y309209D01*
X442146D01*
Y308000D01*
X439854D01*
Y309209D01*
X436500D01*
Y305650D01*
X435500D01*
Y309209D01*
X432146D01*
X432000Y309648D01*
Y346000D01*
X441000Y353000D01*
X456063D01*
Y351650D01*
X460500D01*
Y360524D01*
X461500D01*
Y351650D01*
X465937D01*
Y353000D01*
X493563D01*
Y351650D01*
X498000D01*
Y360524D01*
X499000D01*
Y351650D01*
D02*
G37*
G36*
X658500Y282646D02*
Y245437D01*
X651650D01*
Y241000D01*
X660524D01*
Y240000D01*
X651650D01*
Y235563D01*
X658500D01*
Y223500D01*
X657500Y222500D01*
X656500Y221500D01*
Y208437D01*
X651650D01*
Y204000D01*
X660524D01*
Y203000D01*
X651650D01*
Y198563D01*
X656146D01*
X656500Y198209D01*
Y179500D01*
X641500D01*
X638500Y182500D01*
X638500Y216000D01*
X632799D01*
Y219291D01*
X626000D01*
Y213173D01*
X625000D01*
Y219291D01*
X618201D01*
Y216000D01*
X616500D01*
X612000Y220500D01*
X610531Y221299D01*
Y223012D01*
X610644Y223181D01*
X610780Y223863D01*
X610644Y224546D01*
X610257Y225125D01*
X609679Y225512D01*
X608996Y225648D01*
X608313Y225512D01*
X607734Y225125D01*
X607347Y224546D01*
X607211Y223863D01*
X607254Y223650D01*
X606809Y223322D01*
X605000Y224306D01*
Y228500D01*
X582000D01*
Y223256D01*
X583484D01*
Y214484D01*
X569500Y200500D01*
X567500Y198500D01*
X527884Y198500D01*
X527530Y198854D01*
Y212500D01*
X527410Y213414D01*
X527057Y214265D01*
X527000Y214340D01*
X527000Y240000D01*
X534500Y247500D01*
X547500Y260500D01*
X565000D01*
Y255500D01*
X568898D01*
Y254500D01*
X565000D01*
Y250000D01*
X570500Y246000D01*
Y245000D01*
X573744D01*
Y244000D01*
X570500D01*
Y239000D01*
X578500D01*
X582294Y235206D01*
X582103Y234744D01*
X582000D01*
Y229500D01*
X605000D01*
Y234044D01*
X609769Y237420D01*
X609802Y237427D01*
X610381Y237814D01*
X610431Y237889D01*
X612000Y239000D01*
X610965D01*
X610903Y239075D01*
X610767Y239758D01*
X610381Y240337D01*
X609802Y240724D01*
X609119Y240860D01*
X608436Y240724D01*
X608258Y240605D01*
X607500D01*
Y242941D01*
X608712D01*
Y246000D01*
X605940D01*
Y247000D01*
X608712D01*
Y250059D01*
X607500D01*
Y251646D01*
X609209D01*
Y255000D01*
X605650D01*
Y256000D01*
X609209D01*
Y259354D01*
X607500D01*
Y261646D01*
X609209D01*
Y265000D01*
X605650D01*
Y266000D01*
X609209D01*
Y269354D01*
X607500D01*
Y283000D01*
X658146Y283000D01*
X658500Y282646D01*
D02*
G37*
G36*
X310000Y198146D02*
X310000Y162953D01*
X307221D01*
Y155047D01*
X307474D01*
Y151000D01*
Y134753D01*
X305221Y132500D01*
X295515Y132500D01*
X295161Y132853D01*
Y134543D01*
X292102D01*
Y130000D01*
X291102D01*
Y134543D01*
X288043D01*
Y132500D01*
X287353D01*
X287000Y132853D01*
Y139342D01*
X288921D01*
Y142500D01*
X285756D01*
Y143500D01*
X288921D01*
Y146658D01*
X287354D01*
X287000Y147011D01*
Y147500D01*
X275724D01*
Y149020D01*
X275686Y149212D01*
Y150756D01*
X277500D01*
Y156000D01*
X254500D01*
Y153870D01*
X250000Y151000D01*
X249000Y150000D01*
X255000Y144000D01*
Y142500D01*
Y141559D01*
X251788D01*
Y138500D01*
X254560D01*
Y137500D01*
X251788D01*
Y134441D01*
X255000D01*
Y133854D01*
X251291D01*
Y130500D01*
X254850D01*
Y129500D01*
X251291D01*
Y126146D01*
X255000D01*
Y123854D01*
X251291D01*
Y120500D01*
X254850D01*
Y119500D01*
X251291D01*
Y116146D01*
X255000D01*
Y105500D01*
X207500D01*
Y105514D01*
X194370Y105533D01*
X179908Y105497D01*
X178671Y108773D01*
X173937Y118616D01*
X174000Y132500D01*
X207500D01*
Y144709D01*
X207854Y145063D01*
X209850D01*
Y149500D01*
X200976D01*
Y150500D01*
X209850D01*
Y154937D01*
X207500D01*
X207500Y179209D01*
X207854Y179563D01*
X209850D01*
Y184000D01*
X200976D01*
Y185000D01*
X209850D01*
Y189437D01*
X210324Y189500D01*
X220000D01*
Y167000D01*
X226847D01*
X227201Y166646D01*
Y165709D01*
X234000D01*
Y171827D01*
X235000D01*
Y165709D01*
X241799D01*
Y167000D01*
X249024D01*
X249377Y166646D01*
Y166392D01*
X250445D01*
X250971Y165673D01*
Y162861D01*
X250851Y162683D01*
X250716Y162000D01*
X250851Y161317D01*
X251238Y160738D01*
X251817Y160352D01*
X252500Y160216D01*
X253183Y160352D01*
X253762Y160738D01*
X254277Y160625D01*
X254500Y160404D01*
Y157000D01*
X277500D01*
Y162244D01*
X275686D01*
Y163788D01*
X275724Y163980D01*
Y168311D01*
X275686Y168504D01*
Y186181D01*
X276455Y186951D01*
X276787Y187447D01*
X276806Y187544D01*
X276903Y188032D01*
Y196343D01*
X276806Y196831D01*
X276787Y196928D01*
X276455Y197424D01*
X275879Y198000D01*
X276086Y198500D01*
X309646D01*
X310000Y198146D01*
D02*
G37*
G36*
X167500Y272106D02*
X163583D01*
Y247000D01*
X170783D01*
Y246000D01*
X163583D01*
Y220894D01*
X167500D01*
Y209968D01*
X165571D01*
Y207500D01*
X168342D01*
Y206500D01*
X165571D01*
Y204031D01*
X167500D01*
Y189437D01*
X164150D01*
Y185000D01*
X173024D01*
Y184000D01*
X164150D01*
Y179563D01*
X167500D01*
Y154937D01*
X164150D01*
Y150500D01*
X173024D01*
Y149500D01*
X164150D01*
Y145063D01*
X167500D01*
Y141895D01*
X115000D01*
Y190007D01*
X118998D01*
Y216000D01*
X115000D01*
Y312806D01*
X167500D01*
Y272106D01*
D02*
G37*
G36*
X746295Y275646D02*
X746295Y189493D01*
X741502D01*
Y163500D01*
X745941D01*
X746295Y163146D01*
Y109351D01*
X697854D01*
X697500Y109704D01*
Y142000D01*
X690216D01*
Y143000D01*
X697500D01*
X697500Y179000D01*
X695929D01*
Y181000D01*
X693157D01*
Y182000D01*
X695929D01*
Y184468D01*
X693500D01*
Y198563D01*
X697350D01*
Y203000D01*
X688476D01*
Y204000D01*
X697350D01*
Y208437D01*
X693500D01*
Y235563D01*
X697350D01*
Y240000D01*
X688476D01*
Y241000D01*
X697350D01*
Y245437D01*
X693500D01*
Y276000D01*
X745941D01*
X746295Y275646D01*
D02*
G37*
G36*
X414868Y440994D02*
X423038Y426101D01*
X423053Y392436D01*
X422699Y392083D01*
X414606D01*
Y396417D01*
X389500D01*
Y389216D01*
X388500D01*
Y396417D01*
X363394D01*
Y392083D01*
X352969D01*
Y394429D01*
X350500D01*
Y391657D01*
X349500D01*
Y394429D01*
X347031D01*
Y392083D01*
X332937D01*
Y396350D01*
X328500D01*
Y387476D01*
X327500D01*
Y396350D01*
X323063D01*
Y392083D01*
X295937D01*
Y396350D01*
X291500D01*
Y387476D01*
X290500D01*
Y396350D01*
X286063D01*
Y392083D01*
X235553D01*
X217140Y371515D01*
X172737Y371525D01*
X154282Y389261D01*
Y424099D01*
X176274Y441220D01*
X414868Y440994D01*
D02*
G37*
G36*
X629337Y440823D02*
X640285Y429671D01*
Y412032D01*
X605830Y392583D01*
X584606D01*
Y397417D01*
X559500D01*
Y390216D01*
X558500D01*
Y397417D01*
X533394D01*
Y392583D01*
X522968D01*
Y395429D01*
X520500D01*
Y392657D01*
X519500D01*
Y395429D01*
X517031D01*
Y392583D01*
X503437D01*
Y397350D01*
X499000D01*
Y388476D01*
X498000D01*
Y397350D01*
X493563D01*
Y392583D01*
X465937D01*
Y397350D01*
X461500D01*
Y388476D01*
X460500D01*
Y397350D01*
X456063D01*
Y392583D01*
X441106D01*
Y405583D01*
X441079Y426867D01*
X450999Y440801D01*
X605830Y440840D01*
X629337Y440823D01*
D02*
G37*
%LPC*%
G36*
X569733Y228246D02*
X569335Y228167D01*
X568574Y227658D01*
X568066Y226897D01*
X567987Y226500D01*
X569733D01*
Y228246D01*
D02*
G37*
G36*
Y225500D02*
X567987D01*
X568066Y225103D01*
X568574Y224342D01*
X569335Y223833D01*
X569733Y223754D01*
Y225500D01*
D02*
G37*
G36*
X152000Y220500D02*
X146500D01*
Y215000D01*
X152000D01*
Y220500D01*
D02*
G37*
G36*
X145500D02*
X140000D01*
Y215000D01*
X145500D01*
Y220500D01*
D02*
G37*
G36*
X622359Y226411D02*
X620613D01*
Y224666D01*
X621010Y224745D01*
X621771Y225253D01*
X622280Y226014D01*
X622359Y226411D01*
D02*
G37*
G36*
X615113D02*
X613368D01*
X613447Y226014D01*
X613955Y225253D01*
X614716Y224745D01*
X615113Y224666D01*
Y226411D01*
D02*
G37*
G36*
X577478Y225500D02*
X575733D01*
Y223754D01*
X576130Y223833D01*
X576891Y224342D01*
X577399Y225103D01*
X577478Y225500D01*
D02*
G37*
G36*
X574733Y233746D02*
X574335Y233667D01*
X573574Y233158D01*
X573066Y232397D01*
X572988Y232002D01*
X572478D01*
X572399Y232397D01*
X571891Y233158D01*
X571130Y233667D01*
X570733Y233746D01*
Y231500D01*
Y229254D01*
X571130Y229333D01*
X571891Y229842D01*
X572399Y230603D01*
X572478Y230997D01*
X572988D01*
X573066Y230603D01*
X573574Y229842D01*
X574335Y229333D01*
X574733Y229254D01*
Y231500D01*
Y233746D01*
D02*
G37*
G36*
X575733D02*
Y232000D01*
X577478D01*
X577399Y232397D01*
X576891Y233158D01*
X576130Y233667D01*
X575733Y233746D01*
D02*
G37*
G36*
X615113Y234157D02*
X614716Y234078D01*
X613955Y233570D01*
X613447Y232809D01*
X613368Y232411D01*
X615113D01*
Y234157D01*
D02*
G37*
G36*
X619613D02*
X619216Y234078D01*
X618455Y233570D01*
X618164Y233134D01*
X617562D01*
X617271Y233570D01*
X616510Y234078D01*
X616113Y234157D01*
Y231911D01*
X615613D01*
Y231411D01*
X613368D01*
X613447Y231014D01*
X613955Y230253D01*
X614716Y229745D01*
X615111Y229666D01*
Y229156D01*
X614716Y229078D01*
X613955Y228570D01*
X613447Y227809D01*
X613368Y227411D01*
X615613D01*
Y226911D01*
X616113D01*
Y224666D01*
X616510Y224745D01*
X617271Y225253D01*
X617562Y225689D01*
X618164D01*
X618455Y225253D01*
X619216Y224745D01*
X619613Y224666D01*
Y226911D01*
X620113D01*
Y227411D01*
X622359D01*
X622280Y227809D01*
X621771Y228570D01*
X621010Y229078D01*
X620616Y229156D01*
Y229666D01*
X621010Y229745D01*
X621771Y230253D01*
X622280Y231014D01*
X622359Y231411D01*
X620113D01*
Y231911D01*
X619613D01*
Y234157D01*
D02*
G37*
G36*
X620613D02*
Y232411D01*
X622359D01*
X622280Y232809D01*
X621771Y233570D01*
X621010Y234078D01*
X620613Y234157D01*
D02*
G37*
G36*
X574733Y228246D02*
X574335Y228167D01*
X573574Y227658D01*
X573066Y226897D01*
X572988Y226502D01*
X572478D01*
X572399Y226897D01*
X571891Y227658D01*
X571130Y228167D01*
X570733Y228246D01*
Y226000D01*
Y223754D01*
X571130Y223833D01*
X571891Y224342D01*
X572399Y225103D01*
X572478Y225498D01*
X572988D01*
X573066Y225103D01*
X573574Y224342D01*
X574335Y223833D01*
X574733Y223754D01*
Y226000D01*
Y228246D01*
D02*
G37*
G36*
X575733D02*
Y226500D01*
X577478D01*
X577399Y226897D01*
X576891Y227658D01*
X576130Y228167D01*
X575733Y228246D01*
D02*
G37*
G36*
X569733Y231000D02*
X567987D01*
X568066Y230603D01*
X568574Y229842D01*
X569335Y229333D01*
X569733Y229254D01*
Y231000D01*
D02*
G37*
G36*
Y233746D02*
X569335Y233667D01*
X568574Y233158D01*
X568066Y232397D01*
X567987Y232000D01*
X569733D01*
Y233746D01*
D02*
G37*
G36*
X577478Y231000D02*
X575733D01*
Y229254D01*
X576130Y229333D01*
X576891Y229842D01*
X577399Y230603D01*
X577478Y231000D01*
D02*
G37*
G36*
X283854Y161366D02*
X283457Y161287D01*
X282696Y160779D01*
X282187Y160018D01*
X282108Y159620D01*
X283854D01*
Y161366D01*
D02*
G37*
G36*
X247912Y161246D02*
Y159500D01*
X249658D01*
X249579Y159897D01*
X249070Y160658D01*
X248309Y161167D01*
X247912Y161246D01*
D02*
G37*
G36*
X246912D02*
X246515Y161167D01*
X245754Y160658D01*
X245463Y160222D01*
X244861D01*
X244570Y160658D01*
X243810Y161167D01*
X243412Y161246D01*
Y159000D01*
X242912D01*
Y158500D01*
X240667D01*
X240746Y158103D01*
X241254Y157342D01*
X242015Y156833D01*
X242410Y156755D01*
Y156245D01*
X242015Y156167D01*
X241254Y155658D01*
X240746Y154897D01*
X240667Y154500D01*
X242912D01*
Y154000D01*
X243412D01*
Y151754D01*
X243810Y151833D01*
X244570Y152342D01*
X244861Y152778D01*
X245463D01*
X245754Y152342D01*
X246515Y151833D01*
X246912Y151754D01*
Y154000D01*
X247412D01*
Y154500D01*
X249658D01*
X249579Y154897D01*
X249070Y155658D01*
X248309Y156167D01*
X247915Y156245D01*
Y156755D01*
X248309Y156833D01*
X249070Y157342D01*
X249579Y158103D01*
X249658Y158500D01*
X247412D01*
Y159000D01*
X246912D01*
Y161246D01*
D02*
G37*
G36*
X289354Y161366D02*
Y159620D01*
X291100D01*
X291021Y160018D01*
X290512Y160779D01*
X289751Y161287D01*
X289354Y161366D01*
D02*
G37*
G36*
X242412Y161246D02*
X242015Y161167D01*
X241254Y160658D01*
X240746Y159897D01*
X240667Y159500D01*
X242412D01*
Y161246D01*
D02*
G37*
G36*
X249658Y153500D02*
X247912D01*
Y151754D01*
X248309Y151833D01*
X249070Y152342D01*
X249579Y153103D01*
X249658Y153500D01*
D02*
G37*
G36*
X242412D02*
X240667D01*
X240746Y153103D01*
X241254Y152342D01*
X242015Y151833D01*
X242412Y151754D01*
Y153500D01*
D02*
G37*
G36*
X291100Y153620D02*
X289354D01*
Y151875D01*
X289751Y151954D01*
X290512Y152462D01*
X291021Y153223D01*
X291100Y153620D01*
D02*
G37*
G36*
X283854D02*
X282108D01*
X282187Y153223D01*
X282696Y152462D01*
X283457Y151954D01*
X283854Y151875D01*
Y153620D01*
D02*
G37*
G36*
X146000Y200529D02*
X144824Y200413D01*
X143693Y200070D01*
X142650Y199513D01*
X141737Y198763D01*
X140987Y197850D01*
X140430Y196807D01*
X140087Y195676D01*
X139971Y194500D01*
X140087Y193324D01*
X140430Y192193D01*
X140987Y191150D01*
X141737Y190237D01*
X142650Y189487D01*
X143693Y188930D01*
X144824Y188587D01*
X146000Y188471D01*
X147176Y188587D01*
X148307Y188930D01*
X149349Y189487D01*
X150263Y190237D01*
X151013Y191150D01*
X151570Y192193D01*
X151913Y193324D01*
X152029Y194500D01*
X151913Y195676D01*
X151570Y196807D01*
X151013Y197850D01*
X150263Y198763D01*
X149349Y199513D01*
X148307Y200070D01*
X147176Y200413D01*
X146000Y200529D01*
D02*
G37*
G36*
X715500Y194029D02*
X714324Y193913D01*
X713193Y193570D01*
X712150Y193013D01*
X711237Y192263D01*
X710487Y191349D01*
X709930Y190307D01*
X709587Y189176D01*
X709471Y188000D01*
X709587Y186824D01*
X709930Y185693D01*
X710487Y184651D01*
X711237Y183737D01*
X712150Y182987D01*
X713193Y182430D01*
X714324Y182087D01*
X715500Y181971D01*
X716676Y182087D01*
X717807Y182430D01*
X718850Y182987D01*
X719763Y183737D01*
X720513Y184651D01*
X721070Y185693D01*
X721413Y186824D01*
X721529Y188000D01*
X721413Y189176D01*
X721070Y190307D01*
X720513Y191349D01*
X719763Y192263D01*
X718850Y193013D01*
X717807Y193570D01*
X716676Y193913D01*
X715500Y194029D01*
D02*
G37*
G36*
X152000Y214000D02*
X146500D01*
Y208500D01*
X152000D01*
Y214000D01*
D02*
G37*
G36*
X145500D02*
X140000D01*
Y208500D01*
X145500D01*
Y214000D01*
D02*
G37*
G36*
X721500Y174000D02*
X716000D01*
Y168500D01*
X721500D01*
Y174000D01*
D02*
G37*
G36*
X715000Y167500D02*
X709500D01*
Y162000D01*
X715000D01*
Y167500D01*
D02*
G37*
G36*
X288354Y161366D02*
X287957Y161287D01*
X287196Y160779D01*
X286905Y160343D01*
X286303D01*
X286012Y160779D01*
X285251Y161287D01*
X284854Y161366D01*
Y159120D01*
X284354D01*
Y158620D01*
X282108D01*
X282187Y158223D01*
X282696Y157462D01*
X283457Y156954D01*
X283852Y156875D01*
Y156366D01*
X283457Y156287D01*
X282696Y155779D01*
X282187Y155018D01*
X282108Y154620D01*
X284354D01*
Y154120D01*
X284854D01*
Y151875D01*
X285251Y151954D01*
X286012Y152462D01*
X286303Y152898D01*
X286905D01*
X287196Y152462D01*
X287957Y151954D01*
X288354Y151875D01*
Y154120D01*
X288854D01*
Y154620D01*
X291100D01*
X291021Y155018D01*
X290512Y155779D01*
X289751Y156287D01*
X289356Y156366D01*
Y156875D01*
X289751Y156954D01*
X290512Y157462D01*
X291021Y158223D01*
X291100Y158620D01*
X288854D01*
Y159120D01*
X288354D01*
Y161366D01*
D02*
G37*
G36*
X715000Y174000D02*
X709500D01*
Y168500D01*
X715000D01*
Y174000D01*
D02*
G37*
G36*
X721500Y167500D02*
X716000D01*
Y162000D01*
X721500D01*
Y167500D01*
D02*
G37*
G36*
X590464Y403000D02*
X587500D01*
Y400036D01*
X587914Y400090D01*
X588765Y400443D01*
X589496Y401004D01*
X590057Y401735D01*
X590410Y402586D01*
X590464Y403000D01*
D02*
G37*
G36*
X586500D02*
X583536D01*
X583590Y402586D01*
X583943Y401735D01*
X584504Y401004D01*
X585235Y400443D01*
X586086Y400090D01*
X586500Y400036D01*
Y403000D01*
D02*
G37*
G36*
X587500Y406964D02*
Y404000D01*
X590464D01*
X590410Y404414D01*
X590057Y405265D01*
X589496Y405996D01*
X588765Y406557D01*
X587914Y406910D01*
X587500Y406964D01*
D02*
G37*
G36*
X586500D02*
X586086Y406910D01*
X585235Y406557D01*
X584504Y405996D01*
X583943Y405265D01*
X583590Y404414D01*
X583536Y404000D01*
X586500D01*
Y406964D01*
D02*
G37*
G36*
X474575Y320886D02*
X474177Y320808D01*
X473417Y320299D01*
X472908Y319538D01*
X472830Y319143D01*
X472320D01*
X472241Y319538D01*
X471733Y320299D01*
X470972Y320808D01*
X470575Y320886D01*
Y318641D01*
X470075D01*
Y318141D01*
X467829D01*
X467908Y317743D01*
X468417Y316983D01*
X468852Y316692D01*
Y316090D01*
X468417Y315799D01*
X467908Y315038D01*
X467829Y314641D01*
X470075D01*
Y314141D01*
X470575D01*
Y311895D01*
X470972Y311974D01*
X471733Y312483D01*
X472241Y313244D01*
X472320Y313638D01*
X472830D01*
X472908Y313244D01*
X473417Y312483D01*
X474177Y311974D01*
X474575Y311895D01*
Y314141D01*
X475075D01*
Y314641D01*
X477320D01*
X477241Y315038D01*
X476733Y315799D01*
X476297Y316090D01*
Y316692D01*
X476733Y316983D01*
X477241Y317743D01*
X477320Y318141D01*
X475075D01*
Y318641D01*
X474575D01*
Y320886D01*
D02*
G37*
G36*
X305568Y319956D02*
Y318210D01*
X307314D01*
X307235Y318608D01*
X306727Y319369D01*
X305966Y319877D01*
X305568Y319956D01*
D02*
G37*
G36*
X304568D02*
X304171Y319877D01*
X303410Y319369D01*
X302902Y318608D01*
X302823Y318210D01*
X304568D01*
Y319956D01*
D02*
G37*
G36*
X475575Y320886D02*
Y319141D01*
X477320D01*
X477241Y319538D01*
X476733Y320299D01*
X475972Y320808D01*
X475575Y320886D01*
D02*
G37*
G36*
X469575D02*
X469177Y320808D01*
X468417Y320299D01*
X467908Y319538D01*
X467829Y319141D01*
X469575D01*
Y320886D01*
D02*
G37*
G36*
X338000Y421029D02*
X336824Y420913D01*
X335693Y420570D01*
X334650Y420013D01*
X333737Y419263D01*
X332987Y418350D01*
X332430Y417307D01*
X332087Y416176D01*
X331971Y415000D01*
X332087Y413824D01*
X332430Y412693D01*
X332987Y411651D01*
X333737Y410737D01*
X334650Y409987D01*
X335693Y409430D01*
X336824Y409087D01*
X338000Y408971D01*
X339176Y409087D01*
X340307Y409430D01*
X341350Y409987D01*
X342263Y410737D01*
X343013Y411651D01*
X343570Y412693D01*
X343913Y413824D01*
X344029Y415000D01*
X343913Y416176D01*
X343570Y417307D01*
X343013Y418350D01*
X342263Y419263D01*
X341350Y420013D01*
X340307Y420570D01*
X339176Y420913D01*
X338000Y421029D01*
D02*
G37*
G36*
X364000Y421000D02*
X358500D01*
Y415500D01*
X364000D01*
Y421000D01*
D02*
G37*
G36*
X357500D02*
X352000D01*
Y415500D01*
X357500D01*
Y421000D01*
D02*
G37*
G36*
X520500Y422000D02*
X515000D01*
Y416500D01*
X520500D01*
Y422000D01*
D02*
G37*
G36*
X514000D02*
X508500D01*
Y416500D01*
X514000D01*
Y422000D01*
D02*
G37*
G36*
X520500Y415500D02*
X515000D01*
Y410000D01*
X520500D01*
Y415500D01*
D02*
G37*
G36*
X364000Y414500D02*
X358500D01*
Y409000D01*
X364000D01*
Y414500D01*
D02*
G37*
G36*
X357500D02*
X352000D01*
Y409000D01*
X357500D01*
Y414500D01*
D02*
G37*
G36*
X514000Y415500D02*
X508500D01*
Y410000D01*
X514000D01*
Y415500D01*
D02*
G37*
G36*
X494500Y422029D02*
X493324Y421913D01*
X492193Y421570D01*
X491151Y421013D01*
X490237Y420263D01*
X489487Y419349D01*
X488930Y418307D01*
X488587Y417176D01*
X488471Y416000D01*
X488587Y414824D01*
X488930Y413693D01*
X489487Y412650D01*
X490237Y411737D01*
X491151Y410987D01*
X492193Y410430D01*
X493324Y410087D01*
X494500Y409971D01*
X495676Y410087D01*
X496807Y410430D01*
X497850Y410987D01*
X498763Y411737D01*
X499513Y412650D01*
X500070Y413693D01*
X500413Y414824D01*
X500529Y416000D01*
X500413Y417176D01*
X500070Y418307D01*
X499513Y419349D01*
X498763Y420263D01*
X497850Y421013D01*
X496807Y421570D01*
X495676Y421913D01*
X494500Y422029D01*
D02*
G37*
G36*
X300068Y319956D02*
Y318210D01*
X301814D01*
X301735Y318608D01*
X301227Y319369D01*
X300466Y319877D01*
X300068Y319956D01*
D02*
G37*
G36*
X304541Y279478D02*
X304144Y279399D01*
X303383Y278891D01*
X302875Y278130D01*
X302796Y277735D01*
X302286D01*
X302208Y278130D01*
X301699Y278891D01*
X300939Y279399D01*
X300541Y279478D01*
Y277233D01*
X300041D01*
Y276733D01*
X297796D01*
X297875Y276335D01*
X298383Y275574D01*
X298819Y275283D01*
Y274682D01*
X298383Y274391D01*
X297875Y273630D01*
X297796Y273233D01*
X300041D01*
Y272733D01*
X300541D01*
Y270487D01*
X300939Y270566D01*
X301699Y271075D01*
X302208Y271835D01*
X302286Y272230D01*
X302796D01*
X302875Y271835D01*
X303383Y271075D01*
X304144Y270566D01*
X304541Y270487D01*
Y272733D01*
X305041D01*
Y273233D01*
X307287D01*
X307208Y273630D01*
X306699Y274391D01*
X306264Y274682D01*
Y275283D01*
X306699Y275574D01*
X307208Y276335D01*
X307287Y276733D01*
X305041D01*
Y277233D01*
X304541D01*
Y279478D01*
D02*
G37*
G36*
X305541D02*
Y277733D01*
X307287D01*
X307208Y278130D01*
X306699Y278891D01*
X305939Y279399D01*
X305541Y279478D01*
D02*
G37*
G36*
X475346Y279749D02*
Y278004D01*
X477091D01*
X477012Y278401D01*
X476504Y279162D01*
X475743Y279670D01*
X475346Y279749D01*
D02*
G37*
G36*
X469346D02*
X468948Y279670D01*
X468187Y279162D01*
X467679Y278401D01*
X467600Y278004D01*
X469346D01*
Y279749D01*
D02*
G37*
G36*
X299541Y279478D02*
X299144Y279399D01*
X298383Y278891D01*
X297875Y278130D01*
X297796Y277733D01*
X299541D01*
Y279478D01*
D02*
G37*
G36*
X307287Y272233D02*
X305541D01*
Y270487D01*
X305939Y270566D01*
X306699Y271075D01*
X307208Y271835D01*
X307287Y272233D01*
D02*
G37*
G36*
X299541D02*
X297796D01*
X297875Y271835D01*
X298383Y271075D01*
X299144Y270566D01*
X299541Y270487D01*
Y272233D01*
D02*
G37*
G36*
X477091Y272504D02*
X475346D01*
Y270758D01*
X475743Y270837D01*
X476504Y271345D01*
X477012Y272106D01*
X477091Y272504D01*
D02*
G37*
G36*
X469346D02*
X467600D01*
X467679Y272106D01*
X468187Y271345D01*
X468948Y270837D01*
X469346Y270758D01*
Y272504D01*
D02*
G37*
G36*
X474345Y279749D02*
X473948Y279670D01*
X473187Y279162D01*
X472679Y278401D01*
X472600Y278006D01*
X472091D01*
X472012Y278401D01*
X471504Y279162D01*
X470743Y279670D01*
X470345Y279749D01*
Y277504D01*
X469845D01*
Y277004D01*
X467600D01*
X467679Y276606D01*
X468187Y275845D01*
X468623Y275554D01*
Y274953D01*
X468187Y274662D01*
X467679Y273901D01*
X467600Y273504D01*
X469845D01*
Y273004D01*
X470345D01*
Y270758D01*
X470743Y270837D01*
X471504Y271345D01*
X472012Y272106D01*
X472091Y272501D01*
X472600D01*
X472679Y272106D01*
X473187Y271345D01*
X473948Y270837D01*
X474345Y270758D01*
Y273004D01*
X474846D01*
Y273504D01*
X477091D01*
X477012Y273901D01*
X476504Y274662D01*
X476068Y274953D01*
Y275554D01*
X476504Y275845D01*
X477012Y276606D01*
X477091Y277004D01*
X474846D01*
Y277504D01*
X474345D01*
Y279749D01*
D02*
G37*
G36*
X301814Y317210D02*
X297323D01*
X297402Y316813D01*
X297910Y316052D01*
X298346Y315761D01*
Y315160D01*
X297910Y314868D01*
X297402Y314108D01*
X297323Y313710D01*
X301814D01*
X301735Y314108D01*
X301227Y314868D01*
X300791Y315160D01*
Y315761D01*
X301227Y316052D01*
X301735Y316813D01*
X301814Y317210D01*
D02*
G37*
G36*
X477320Y313641D02*
X475575D01*
Y311895D01*
X475972Y311974D01*
X476733Y312483D01*
X477241Y313244D01*
X477320Y313641D01*
D02*
G37*
G36*
X299068Y319956D02*
X298671Y319877D01*
X297910Y319369D01*
X297402Y318608D01*
X297323Y318210D01*
X299068D01*
Y319956D01*
D02*
G37*
G36*
X307314Y317210D02*
X302823D01*
X302902Y316813D01*
X303410Y316052D01*
X303846Y315761D01*
Y315160D01*
X303410Y314868D01*
X302902Y314108D01*
X302823Y313710D01*
X307314D01*
X307235Y314108D01*
X306727Y314868D01*
X306291Y315160D01*
Y315761D01*
X306727Y316052D01*
X307235Y316813D01*
X307314Y317210D01*
D02*
G37*
G36*
X469575Y313641D02*
X467829D01*
X467908Y313244D01*
X468417Y312483D01*
X469177Y311974D01*
X469575Y311895D01*
Y313641D01*
D02*
G37*
G36*
X301814Y312710D02*
X300068D01*
Y310965D01*
X300466Y311044D01*
X301227Y311552D01*
X301735Y312313D01*
X301814Y312710D01*
D02*
G37*
G36*
X299068D02*
X297323D01*
X297402Y312313D01*
X297910Y311552D01*
X298671Y311044D01*
X299068Y310965D01*
Y312710D01*
D02*
G37*
G36*
X307314D02*
X305568D01*
Y310965D01*
X305966Y311044D01*
X306727Y311552D01*
X307235Y312313D01*
X307314Y312710D01*
D02*
G37*
G36*
X304568D02*
X302823D01*
X302902Y312313D01*
X303410Y311552D01*
X304171Y311044D01*
X304568Y310965D01*
Y312710D01*
D02*
G37*
%LPD*%
D10*
X322000Y159000D02*
D03*
X376000D02*
D03*
X509000Y227500D02*
D03*
X455000D02*
D03*
X524000Y159000D02*
D03*
X470000D02*
D03*
X342500Y227000D02*
D03*
X396500D02*
D03*
D11*
X623338Y306949D02*
D03*
Y301634D02*
D03*
X693500Y315657D02*
D03*
Y310343D02*
D03*
X621775Y370827D02*
D03*
Y365512D02*
D03*
X692000Y387283D02*
D03*
Y381968D02*
D03*
X252346Y169163D02*
D03*
Y174478D02*
D03*
X350000Y386343D02*
D03*
Y391657D02*
D03*
X608948Y216596D02*
D03*
Y211281D02*
D03*
X520000Y387343D02*
D03*
Y392657D02*
D03*
D12*
X613500Y364350D02*
D03*
Y370650D02*
D03*
X266000Y298350D02*
D03*
Y304650D02*
D03*
X276000Y298350D02*
D03*
Y304650D02*
D03*
X436000Y299350D02*
D03*
Y305650D02*
D03*
X446000Y299350D02*
D03*
Y305650D02*
D03*
X615500Y300350D02*
D03*
Y306650D02*
D03*
D13*
X671000Y368650D02*
D03*
Y396602D02*
D03*
X291000Y387476D02*
D03*
Y359524D02*
D03*
X328000Y387476D02*
D03*
Y359524D02*
D03*
X461000Y388476D02*
D03*
Y360524D02*
D03*
X498500Y388476D02*
D03*
Y360524D02*
D03*
X672000Y305024D02*
D03*
Y332976D02*
D03*
D14*
X314456Y306370D02*
D03*
X319771D02*
D03*
X173658Y207000D02*
D03*
X168342D02*
D03*
X483219Y308834D02*
D03*
X488534D02*
D03*
X687843Y181500D02*
D03*
X693157D02*
D03*
X426657Y161500D02*
D03*
X421343D02*
D03*
D15*
X173024Y150000D02*
D03*
X200976D02*
D03*
X173024Y184500D02*
D03*
X200976D02*
D03*
X688476Y240500D02*
D03*
X660524D02*
D03*
X688476Y203500D02*
D03*
X660524D02*
D03*
D16*
X261150Y120000D02*
D03*
X254850D02*
D03*
X261150Y130000D02*
D03*
X254850D02*
D03*
X599350Y265500D02*
D03*
X605650D02*
D03*
X599350Y255500D02*
D03*
X605650D02*
D03*
D17*
X254560Y138000D02*
D03*
X261440D02*
D03*
X605940Y246500D02*
D03*
X599060D02*
D03*
D18*
X268500Y185059D02*
D03*
Y179941D02*
D03*
X591500Y201441D02*
D03*
Y206559D02*
D03*
D19*
X263559Y174500D02*
D03*
X268441D02*
D03*
X595941Y212000D02*
D03*
X591059D02*
D03*
D20*
X285756Y143000D02*
D03*
X280244D02*
D03*
X573744Y244500D02*
D03*
X579256D02*
D03*
D21*
X455008Y306467D02*
D03*
Y299586D02*
D03*
X284500Y305440D02*
D03*
Y298560D02*
D03*
D22*
X500559Y290000D02*
D03*
X495441D02*
D03*
X330559Y289000D02*
D03*
X325441D02*
D03*
D23*
X490000Y294441D02*
D03*
Y289559D02*
D03*
X320000Y293441D02*
D03*
Y288559D02*
D03*
D24*
X456000Y274244D02*
D03*
Y279756D02*
D03*
X286000Y273244D02*
D03*
Y278756D02*
D03*
D25*
X231217Y246500D02*
D03*
X170783D02*
D03*
X629783Y142500D02*
D03*
X690216D02*
D03*
D26*
X559000Y329784D02*
D03*
Y390216D02*
D03*
X389000Y328783D02*
D03*
Y389216D02*
D03*
D27*
X259500Y231209D02*
D03*
Y219791D02*
D03*
X337500Y289291D02*
D03*
Y300709D02*
D03*
X597500Y154791D02*
D03*
Y166209D02*
D03*
X507500Y288791D02*
D03*
Y300209D02*
D03*
D28*
X270000Y122370D02*
D03*
Y133000D02*
D03*
X590500Y256815D02*
D03*
Y246185D02*
D03*
D29*
X356500Y296905D02*
D03*
Y285094D02*
D03*
X526000Y295905D02*
D03*
Y284095D02*
D03*
D30*
X279398Y130000D02*
D03*
X291602D02*
D03*
X581102Y255000D02*
D03*
X568898D02*
D03*
D31*
X271709Y192000D02*
D03*
X260291D02*
D03*
X546709Y296500D02*
D03*
X535291D02*
D03*
X591791Y194500D02*
D03*
X603209D02*
D03*
X377709Y297500D02*
D03*
X366291D02*
D03*
D32*
X271217Y200500D02*
D03*
X260784D02*
D03*
X586283Y185500D02*
D03*
X596716D02*
D03*
D33*
X444685Y290500D02*
D03*
X455315D02*
D03*
X274685Y289500D02*
D03*
X285315D02*
D03*
D34*
X596906Y175500D02*
D03*
X585094D02*
D03*
X260094Y210000D02*
D03*
X271905D02*
D03*
D35*
X445390Y282397D02*
D03*
Y270192D02*
D03*
X276500Y280102D02*
D03*
Y267898D02*
D03*
D36*
X516500Y283784D02*
D03*
Y294216D02*
D03*
X346500Y284283D02*
D03*
Y294717D02*
D03*
D37*
X630524Y364591D02*
D03*
X648476D02*
D03*
X632024Y300965D02*
D03*
X649976D02*
D03*
D38*
X639500Y389000D02*
D03*
X641000Y325374D02*
D03*
D39*
X292854Y300000D02*
D03*
Y295000D02*
D03*
Y290000D02*
D03*
Y285000D02*
D03*
X312146Y300000D02*
D03*
Y295000D02*
D03*
Y290000D02*
D03*
Y285000D02*
D03*
X462854Y301000D02*
D03*
Y296000D02*
D03*
Y291000D02*
D03*
Y286000D02*
D03*
X482146Y301000D02*
D03*
Y296000D02*
D03*
Y291000D02*
D03*
Y286000D02*
D03*
D40*
X302500Y292500D02*
D03*
X472500Y293500D02*
D03*
D41*
X601000Y238646D02*
D03*
X596000D02*
D03*
X591000D02*
D03*
X586000D02*
D03*
X601000Y219354D02*
D03*
X596000D02*
D03*
X591000D02*
D03*
X586000D02*
D03*
X258500Y146854D02*
D03*
X263500D02*
D03*
X268500D02*
D03*
X273500D02*
D03*
X258500Y166146D02*
D03*
X263500D02*
D03*
X268500D02*
D03*
X273500D02*
D03*
D42*
X593500Y229000D02*
D03*
X266000Y156500D02*
D03*
D43*
X318327Y324000D02*
D03*
X346673D02*
D03*
X488327Y325000D02*
D03*
X516673D02*
D03*
D44*
X625500Y213173D02*
D03*
Y184827D02*
D03*
X234500Y171827D02*
D03*
Y200173D02*
D03*
D45*
X750431Y72985D02*
Y450000D01*
X110500Y72985D02*
Y450000D01*
X443461Y73985D02*
X750431D01*
X110500D02*
X414269D01*
X744431Y75985D02*
X750431Y73985D01*
X744431Y71985D02*
X750431Y73985D01*
X110500D02*
X116500Y71985D01*
X110500Y73985D02*
X116500Y75985D01*
X454709Y299350D02*
X456550Y299212D01*
X312357Y300030D02*
X313458Y300188D01*
X312146Y300000D02*
X312357Y300030D01*
X252500Y162000D02*
Y167663D01*
X601430Y239075D02*
X609119D01*
X601354Y239000D02*
X601430Y239075D01*
X606688Y141064D02*
Y145603D01*
X500559Y290000D02*
X506291D01*
X268500Y185059D02*
X271709Y188268D01*
Y192000D01*
X687843Y184843D02*
X690000Y187000D01*
X687843Y181500D02*
Y184843D01*
X172000Y204000D02*
X174000Y206000D01*
X172000Y202000D02*
Y204000D01*
X516000Y389500D02*
X518157Y387343D01*
X520000D01*
X345500Y389000D02*
X348000Y386500D01*
X598350Y264500D02*
X599350Y265500D01*
X385000Y312000D02*
Y315000D01*
X377709Y304709D02*
X385000Y312000D01*
X664976Y340000D02*
X672000Y332976D01*
X655500Y340000D02*
X664976D01*
X641000Y325374D02*
X655500Y339874D01*
Y340000D01*
X663976Y403626D02*
X671000Y396602D01*
X655000Y403626D02*
X663976D01*
X640374Y389000D02*
X655000Y403626D01*
X639500Y389000D02*
X640374D01*
X396500Y227000D02*
X399500D01*
X467500Y159000D02*
X470000D01*
X310500Y158000D02*
X323000D01*
X268500Y142500D02*
Y146854D01*
X273500D02*
X277354Y143000D01*
X280244D01*
X231217Y246500D02*
X234500Y243216D01*
X259500Y210595D02*
Y219791D01*
X271905Y201189D02*
Y210000D01*
X273500Y166146D02*
Y186158D01*
X275374Y188032D01*
Y196343D01*
X271217Y200500D02*
X275374Y196343D01*
X268500Y142500D02*
X270000Y141000D01*
X276398Y133000D02*
X279398Y130000D01*
X271000Y133000D02*
X276398D01*
X270000Y134000D02*
X271000Y133000D01*
X270000Y134000D02*
Y141000D01*
X256206Y146854D02*
X258500D01*
X253560Y149500D02*
X256206Y146854D01*
X596906Y166803D02*
Y175500D01*
X585094D02*
Y184311D01*
X591500Y194791D02*
X591791Y194500D01*
X591500Y194791D02*
Y201441D01*
Y206559D02*
Y218854D01*
X595941Y212000D02*
Y219295D01*
X586000Y185784D02*
Y219354D01*
X580146Y244500D02*
X586000Y238646D01*
X591000D02*
Y245685D01*
X581685Y255000D02*
X590500Y246185D01*
X591000Y245685D01*
X599060Y246500D02*
X599350Y246791D01*
X674000Y142500D02*
X690216D01*
X526000Y295905D02*
X534697D01*
X482146Y286000D02*
X484051Y284095D01*
X526000D01*
X482146Y291000D02*
X488559D01*
X489559Y290000D01*
X495441D01*
X482146Y296000D02*
X488441D01*
X475000D02*
X482146D01*
X456000Y279756D02*
X456610D01*
X462854Y286000D01*
X446500Y281102D02*
X455315Y289917D01*
Y290500D02*
X462354D01*
X284710Y298350D02*
X287000Y298060D01*
X286398Y290000D02*
X292854D01*
X276500Y280102D02*
X285898Y289500D01*
X312146Y295000D02*
X318441D01*
X320000Y293441D01*
X305000Y295000D02*
X312146D01*
Y285000D02*
X356405D01*
X330850Y289291D02*
X337500D01*
X313146Y289000D02*
X325441D01*
X356500Y296905D02*
X365697D01*
X308500Y306500D02*
X313541D01*
X292854Y300000D02*
Y306354D01*
X462500Y301354D02*
Y308000D01*
X478501Y307861D02*
X481843D01*
X609002Y217842D02*
Y224001D01*
X596000Y219354D02*
Y226500D01*
X268500Y163244D02*
Y166146D01*
Y179941D01*
X263500Y159000D02*
Y166146D01*
Y159000D02*
X263559Y158941D01*
X261440Y129709D02*
X262315Y128835D01*
X339500Y224000D02*
X342500Y227000D01*
X286000Y278756D02*
Y280000D01*
X559000Y390216D02*
Y393000D01*
X514500Y416000D02*
X516000Y414500D01*
X587500Y256815D02*
X590500D01*
X587500D02*
Y256826D01*
X377709Y297500D02*
Y304709D01*
X388000Y390216D02*
Y392000D01*
X386000Y390000D02*
X388000Y392000D01*
X386000Y374500D02*
Y390000D01*
X257791Y231209D02*
X259500D01*
X246500Y242500D02*
X257791Y231209D01*
X170783Y246500D02*
X190500D01*
X556500Y306291D02*
Y315500D01*
X546709Y296500D02*
X556500Y306291D01*
X597500Y154791D02*
X606688Y145603D01*
X337500Y300709D02*
X343492Y294717D01*
X327268Y300709D02*
X337500D01*
X320000Y293441D02*
X327268Y300709D01*
X343492Y294717D02*
X346500D01*
X263559Y174500D02*
Y188732D01*
X260784Y191508D02*
X263559Y188732D01*
Y158941D02*
Y174500D01*
X260784Y191508D02*
Y200500D01*
X595941Y201768D02*
Y212000D01*
Y201768D02*
X603209Y194500D01*
Y191992D02*
Y194500D01*
X596716Y185500D02*
X603209Y191992D01*
X615500Y306650D02*
X622276D01*
X641000Y325374D01*
X614000Y370276D02*
X620776D01*
X639500Y389000D01*
X328000Y359524D02*
X328024D01*
X490000Y294441D02*
X501732D01*
X507500Y300209D01*
X513492Y294216D01*
X713500Y389784D02*
Y392626D01*
X692500Y315500D02*
X710000D01*
X713500Y319000D01*
X711000Y387283D02*
X713500Y389784D01*
X692000Y387283D02*
X711000D01*
X745501Y165500D02*
Y169499D01*
X743502Y167499D02*
X747500D01*
X745501Y183494D02*
Y187493D01*
X744001Y372126D02*
Y376125D01*
X742002Y374125D02*
X746000D01*
X744001Y390120D02*
Y394119D01*
X360000Y447001D02*
X356001D01*
X358001Y445002D02*
Y449000D01*
X342006Y447001D02*
X338007D01*
X516000D02*
X512001D01*
X514001Y445002D02*
Y449000D01*
X498006Y447001D02*
X494007D01*
X114999Y214000D02*
Y210001D01*
X116998Y212001D02*
X113000D01*
X114999Y196006D02*
Y192007D01*
X744501Y298500D02*
Y302499D01*
X742502Y300499D02*
X746500D01*
X744501Y316494D02*
Y320493D01*
X413000Y106999D02*
X416999D01*
X414999Y108998D02*
Y105000D01*
X430994Y106999D02*
X434993D01*
D46*
X456550Y299212D02*
X459365Y296396D01*
X601000Y212594D02*
Y219354D01*
Y212594D02*
X602313Y211281D01*
X608948D01*
Y201379D02*
Y209393D01*
Y201379D02*
X625500Y184827D01*
X258500Y166146D02*
Y171753D01*
X255972Y174281D02*
X258500Y171753D01*
X252543Y174281D02*
X255972D01*
X252346Y174478D02*
X252543Y174281D01*
X234500Y200173D02*
X252513Y182160D01*
Y175842D02*
Y182160D01*
X319861Y306507D02*
X329180D01*
X319861Y302745D02*
Y306507D01*
X317305Y300188D02*
X319861Y302745D01*
X329180Y306507D02*
X346673Y324000D01*
X313458Y300188D02*
X317305D01*
X312334D02*
X313458D01*
X488700Y301000D02*
Y309000D01*
X482146Y301000D02*
X488700D01*
Y309000D02*
X500673D01*
X516673Y325000D01*
X234500Y200173D02*
Y243216D01*
X596000Y238646D02*
Y243440D01*
X599060Y246500D01*
X625500Y146783D02*
Y184827D01*
X693157Y145441D02*
Y181500D01*
X446000Y299350D02*
X454709D01*
X436000D02*
X446000D01*
X266000Y298185D02*
X274685Y289500D01*
X266000Y298350D02*
X276000D01*
X284710D01*
X287000Y298060D02*
X289780Y295280D01*
X351457Y328783D02*
X389000D01*
X358000Y402500D02*
Y415000D01*
X263500Y140060D02*
Y146854D01*
X261150Y120000D02*
Y130000D01*
Y137709D01*
X261440Y138000D02*
X263500Y140060D01*
X286000Y280000D02*
X291000Y285000D01*
X292854D01*
X516673Y325000D02*
X554216D01*
X436000Y290500D02*
X444685D01*
X436000D02*
Y299350D01*
X630559Y299500D02*
X632024Y300965D01*
X557500Y372500D02*
Y386000D01*
X605000Y336000D02*
Y357850D01*
X611500Y364350D01*
X605000Y304000D02*
Y336000D01*
Y304000D02*
X609500Y299500D01*
X630559D01*
X436000Y251000D02*
Y290500D01*
D47*
X261150Y137709D02*
X261440Y138000D01*
X509000Y227500D02*
X546000Y264500D01*
X598350D01*
X599350Y255500D02*
Y265500D01*
X310500Y133500D02*
Y158000D01*
X297000Y120000D02*
X310500Y133500D01*
X261150Y120000D02*
X297000D01*
X599350Y246791D02*
Y255500D01*
X266000Y261500D02*
X300500Y227000D01*
X266000Y261500D02*
Y298185D01*
X300500Y227000D02*
X342500D01*
X591000Y258000D02*
Y262581D01*
D48*
X426657Y148843D02*
Y161500D01*
Y148843D02*
X434000Y141500D01*
X399500Y227000D02*
X409000Y236500D01*
X454500Y172000D02*
X467500Y159000D01*
X442000Y217500D02*
X452000Y227500D01*
X387000Y158000D02*
Y167500D01*
X385500Y166000D02*
X387000Y167500D01*
X649976Y298965D02*
X661465D01*
X614000Y363976D02*
X629909D01*
X452000Y227500D02*
X455000D01*
X692000Y381968D02*
X702658D01*
X712750Y371876D01*
X684158Y374126D02*
X692000Y381968D01*
X672500Y374126D02*
X684158D01*
X662965Y364591D02*
X672500Y374126D01*
X648476Y364591D02*
X662965D01*
X661465Y298965D02*
X672000Y309500D01*
X675500Y310000D02*
X702500D01*
X713500Y299000D01*
D49*
X449000Y238000D02*
X498500D01*
X436000Y251000D02*
X449000Y238000D01*
X366500Y251000D02*
X436000D01*
X342500Y227000D02*
X366500Y251000D01*
X524000Y159000D02*
Y212500D01*
X509000Y227500D02*
X524000Y212500D01*
X394024Y146682D02*
X402843Y155500D01*
X414000D01*
X419500Y161000D01*
X414000Y141500D02*
Y154157D01*
X392000Y145000D02*
X394682Y147682D01*
X339500Y145000D02*
X392000D01*
X339500D02*
Y224000D01*
X498500Y238000D02*
X509000Y227500D01*
X327953Y158953D02*
X339000D01*
D50*
X415869Y70386D02*
X417869D01*
X416869D01*
Y76384D01*
X415869Y75384D01*
X424866Y76384D02*
X422867Y75384D01*
X420868Y73385D01*
Y71386D01*
X421868Y70386D01*
X423867D01*
X424866Y71386D01*
Y72385D01*
X423867Y73385D01*
X420868D01*
X426866Y70386D02*
Y71386D01*
X427866D01*
Y70386D01*
X426866D01*
X435863D02*
X431864D01*
X435863Y74385D01*
Y75384D01*
X434863Y76384D01*
X432864D01*
X431864Y75384D01*
X441861Y76384D02*
X437862D01*
Y73385D01*
X439862Y74385D01*
X440861D01*
X441861Y73385D01*
Y71386D01*
X440861Y70386D01*
X438862D01*
X437862Y71386D01*
D51*
X146000Y194500D02*
D03*
X715500Y188000D02*
D03*
X494500Y416000D02*
D03*
X338000Y415000D02*
D03*
X713500Y392626D02*
D03*
Y319000D02*
D03*
X434000Y141500D02*
D03*
D52*
X146000Y214500D02*
D03*
X715500Y168000D02*
D03*
X713500Y372626D02*
D03*
Y299000D02*
D03*
D53*
X514500Y416000D02*
D03*
X358000Y415000D02*
D03*
X414000Y141500D02*
D03*
D54*
X252500Y162000D02*
D03*
X608996Y223863D02*
D03*
X609119Y239075D02*
D03*
X253560Y149500D02*
D03*
X462500Y308000D02*
D03*
X308500Y306500D02*
D03*
X293000D02*
D03*
X478000Y308000D02*
D03*
D55*
X607012Y139768D02*
D03*
X385000Y315000D02*
D03*
X655000Y403626D02*
D03*
X655500Y340000D02*
D03*
X605000Y357850D02*
D03*
X587000Y403500D02*
D03*
X454500Y172000D02*
D03*
X442000Y217500D02*
D03*
X387000Y166500D02*
D03*
X409000Y236500D02*
D03*
X386000Y374500D02*
D03*
X192000Y248000D02*
D03*
X246500Y242500D02*
D03*
X557500Y372500D02*
D03*
X556500Y315500D02*
D03*
X672000Y142500D02*
D03*
D56*
X690000Y187000D02*
D03*
X172000Y202000D02*
D03*
X515000Y390000D02*
D03*
X345500Y389000D02*
D03*
D57*
X259500Y154000D02*
D03*
Y159000D02*
D03*
X273000D02*
D03*
Y154000D02*
D03*
X284354Y154120D02*
D03*
Y159120D02*
D03*
X247412Y159000D02*
D03*
Y154000D02*
D03*
X242912Y159000D02*
D03*
Y154000D02*
D03*
X288854Y154120D02*
D03*
Y159120D02*
D03*
X586500Y231500D02*
D03*
Y226500D02*
D03*
X600500D02*
D03*
Y231500D02*
D03*
X575233D02*
D03*
Y226000D02*
D03*
X570233Y231500D02*
D03*
Y226000D02*
D03*
X615613Y231911D02*
D03*
Y226911D02*
D03*
X620113D02*
D03*
Y231911D02*
D03*
X470000Y286500D02*
D03*
X475000D02*
D03*
Y300500D02*
D03*
X470000D02*
D03*
X470075Y314141D02*
D03*
X475075D02*
D03*
Y318641D02*
D03*
X470075D02*
D03*
X469845Y277504D02*
D03*
X474846D02*
D03*
X469845Y273004D02*
D03*
X474846D02*
D03*
X300000Y285500D02*
D03*
Y299500D02*
D03*
X305000D02*
D03*
Y285500D02*
D03*
X305041Y277233D02*
D03*
X300041D02*
D03*
Y272733D02*
D03*
X305041D02*
D03*
X305068Y313210D02*
D03*
X299568D02*
D03*
Y317710D02*
D03*
X305068D02*
D03*
D58*
X136316Y126036D02*
D03*
Y426824D02*
D03*
X722930D02*
D03*
X567025Y126036D02*
D03*
D59*
X300138Y294862D02*
D03*
X304862D02*
D03*
Y290138D02*
D03*
X300138D02*
D03*
X595862Y231362D02*
D03*
Y226638D02*
D03*
X591138D02*
D03*
Y231362D02*
D03*
X470138Y295862D02*
D03*
X474862D02*
D03*
Y291138D02*
D03*
X470138D02*
D03*
X263638Y154138D02*
D03*
Y158862D02*
D03*
X268362D02*
D03*
Y154138D02*
D03*
M02*
