G04 Layer_Color=8150272*
%FSLAX25Y25*%
%MOIN*%
G70*
G01*
G75*
%ADD99R,0.14000X0.14000*%
%ADD100C,0.14000*%
%ADD101R,0.14000X0.14000*%
%ADD102C,0.23685*%
%ADD103C,0.09000*%
%ADD104C,0.05500*%
%ADD105C,0.06600*%
%ADD106C,0.06000*%
%ADD107C,0.06598*%
D99*
X414000Y141500D02*
D03*
X358000Y415000D02*
D03*
X514500Y416000D02*
D03*
D100*
X434000Y141500D02*
D03*
X713500Y319000D02*
D03*
Y392626D02*
D03*
X338000Y415000D02*
D03*
X494500Y416000D02*
D03*
X715500Y188000D02*
D03*
X146000Y194500D02*
D03*
D101*
X713500Y299000D02*
D03*
Y372626D02*
D03*
X715500Y168000D02*
D03*
X146000Y214500D02*
D03*
D102*
X567025Y126036D02*
D03*
X722930Y426824D02*
D03*
X136316D02*
D03*
Y126036D02*
D03*
D103*
X672000Y142500D02*
D03*
X556500Y315500D02*
D03*
X557500Y372500D02*
D03*
X246500Y242500D02*
D03*
X192000Y248000D02*
D03*
X386000Y374500D02*
D03*
X409000Y236500D02*
D03*
X387000Y166500D02*
D03*
X442000Y217500D02*
D03*
X454500Y172000D02*
D03*
X587000Y403500D02*
D03*
X605000Y357850D02*
D03*
X655500Y340000D02*
D03*
X655000Y403626D02*
D03*
X385000Y315000D02*
D03*
X607012Y139768D02*
D03*
D104*
X478000Y308000D02*
D03*
X293000Y306500D02*
D03*
X308500D02*
D03*
X462500Y308000D02*
D03*
X253560Y149500D02*
D03*
X609119Y239075D02*
D03*
X608996Y223863D02*
D03*
X252500Y162000D02*
D03*
D105*
X305068Y317710D02*
D03*
X299568D02*
D03*
Y313210D02*
D03*
X305068D02*
D03*
X305041Y272733D02*
D03*
X300041D02*
D03*
Y277233D02*
D03*
X305041D02*
D03*
X305000Y285500D02*
D03*
Y299500D02*
D03*
X300000D02*
D03*
Y285500D02*
D03*
X474846Y273004D02*
D03*
X469845D02*
D03*
X474846Y277504D02*
D03*
X469845D02*
D03*
X470075Y318641D02*
D03*
X475075D02*
D03*
Y314141D02*
D03*
X470075D02*
D03*
X470000Y300500D02*
D03*
X475000D02*
D03*
Y286500D02*
D03*
X470000D02*
D03*
X620113Y231911D02*
D03*
Y226911D02*
D03*
X615613D02*
D03*
Y231911D02*
D03*
X570233Y226000D02*
D03*
Y231500D02*
D03*
X575233Y226000D02*
D03*
Y231500D02*
D03*
X600500D02*
D03*
Y226500D02*
D03*
X586500D02*
D03*
Y231500D02*
D03*
X288854Y159120D02*
D03*
Y154120D02*
D03*
X242912Y154000D02*
D03*
Y159000D02*
D03*
X247412Y154000D02*
D03*
Y159000D02*
D03*
X284354Y159120D02*
D03*
Y154120D02*
D03*
X273000Y154000D02*
D03*
Y159000D02*
D03*
X259500D02*
D03*
Y154000D02*
D03*
D106*
X345500Y389000D02*
D03*
X515000Y390000D02*
D03*
X172000Y202000D02*
D03*
X690000Y187000D02*
D03*
D107*
X268362Y154138D02*
D03*
Y158862D02*
D03*
X263638D02*
D03*
Y154138D02*
D03*
X470138Y291138D02*
D03*
X474862D02*
D03*
Y295862D02*
D03*
X470138D02*
D03*
X591138Y231362D02*
D03*
Y226638D02*
D03*
X595862D02*
D03*
Y231362D02*
D03*
X300138Y290138D02*
D03*
X304862D02*
D03*
Y294862D02*
D03*
X300138D02*
D03*
M02*
