G04 Layer_Color=15132400*
%FSLAX25Y25*%
%MOIN*%
G70*
G01*
G75*
%ADD45C,0.01000*%
%ADD60C,0.00800*%
%ADD61C,0.00984*%
%ADD62C,0.00787*%
%ADD63R,0.01575X0.11811*%
%ADD64R,0.11811X0.01575*%
G36*
X625500Y197031D02*
X619594Y202937D01*
X631405D01*
X625500Y197031D01*
D02*
G37*
G36*
X240406Y182063D02*
X228594D01*
X234500Y187969D01*
X240406Y182063D01*
D02*
G37*
G36*
X504468Y325000D02*
X498563Y319094D01*
Y330906D01*
X504468Y325000D01*
D02*
G37*
G36*
X334469Y324000D02*
X328563Y318094D01*
Y329906D01*
X334469Y324000D01*
D02*
G37*
D45*
X130000Y184500D02*
X161945D01*
Y224500D01*
X130055D02*
X161945D01*
X130055Y184500D02*
Y224500D01*
X699555Y198000D02*
X731500D01*
X699555Y158000D02*
Y198000D01*
Y158000D02*
X731445D01*
Y198000D01*
X484500Y400055D02*
Y432000D01*
Y400055D02*
X524500D01*
Y431945D01*
X484500D02*
X524500D01*
X328000Y399055D02*
Y431000D01*
Y399055D02*
X368000D01*
Y430945D01*
X328000D02*
X368000D01*
X697555Y402626D02*
X729500D01*
X697555Y362626D02*
Y402626D01*
Y362626D02*
X729445D01*
Y402626D01*
X697555Y329000D02*
X729500D01*
X697555Y289000D02*
Y329000D01*
Y289000D02*
X729445D01*
Y329000D01*
X167535Y213035D02*
X234465D01*
X167535Y279965D02*
X234465D01*
Y274059D02*
Y279965D01*
Y213035D02*
Y218941D01*
X167535Y274059D02*
Y279965D01*
Y213035D02*
Y218941D01*
X525535Y326535D02*
Y393465D01*
X592465Y326535D02*
Y393465D01*
X586559Y326535D02*
X592465D01*
X525535D02*
X531441D01*
X586559Y393465D02*
X592465D01*
X525535D02*
X531441D01*
X626535Y175965D02*
X693465D01*
X626535Y109035D02*
X693465D01*
X626535D02*
Y114941D01*
Y170059D02*
Y175965D01*
X693465Y109035D02*
Y114941D01*
Y170059D02*
Y175965D01*
X347854Y312583D02*
Y316913D01*
X317146Y312583D02*
X347854D01*
X317146D02*
Y316913D01*
X340374Y312976D02*
Y324000D01*
Y335024D01*
X317146Y331087D02*
Y335417D01*
X347854D01*
Y331087D02*
Y335417D01*
X325020Y324000D02*
X338405D01*
X517854Y313583D02*
Y317913D01*
X487146Y313583D02*
X517854D01*
X487146D02*
Y317913D01*
X510374Y313976D02*
Y325000D01*
Y336024D01*
X487146Y332087D02*
Y336417D01*
X517854D01*
Y332087D02*
Y336417D01*
X495020Y325000D02*
X508405D01*
X614083Y183646D02*
X618413D01*
X614083D02*
Y214354D01*
X618413D01*
X614476Y191126D02*
X625500D01*
X636524D01*
X632587Y214354D02*
X636917D01*
Y183646D02*
Y214354D01*
X632587Y183646D02*
X636917D01*
X625500Y193095D02*
Y206480D01*
X444000Y125500D02*
Y157445D01*
X404000D02*
X444000D01*
X404000Y125555D02*
Y157445D01*
Y125555D02*
X444000D01*
X241587Y201354D02*
X245917D01*
Y170646D02*
Y201354D01*
X241587Y170646D02*
X245917D01*
X234500Y193874D02*
X245524D01*
X223476D02*
X234500D01*
X223083Y170646D02*
X227413D01*
X223083D02*
Y201354D01*
X227413D01*
X234500Y178520D02*
Y191905D01*
X355535Y325535D02*
Y392465D01*
X422465Y325535D02*
Y392465D01*
X416559Y325535D02*
X422465D01*
X355535D02*
X361441D01*
X416559Y392465D02*
X422465D01*
X355535D02*
X361441D01*
X479056Y270074D02*
X484055D01*
X485054Y271073D01*
Y273073D01*
X484055Y274072D01*
X479056D01*
Y280070D02*
Y276072D01*
X482055D01*
X481056Y278071D01*
Y279071D01*
X482055Y280070D01*
X484055D01*
X485054Y279071D01*
Y277071D01*
X484055Y276072D01*
X646998Y194000D02*
X641000D01*
Y191001D01*
X642000Y190001D01*
X645998D01*
X646998Y191001D01*
Y194000D01*
X641000Y185003D02*
X646998D01*
X643999Y188002D01*
Y184003D01*
X510000Y347498D02*
Y341500D01*
X512999D01*
X513999Y342500D01*
Y346498D01*
X512999Y347498D01*
X510000D01*
X515998Y346498D02*
X516998Y347498D01*
X518997D01*
X519997Y346498D01*
Y345499D01*
X518997Y344499D01*
X517997D01*
X518997D01*
X519997Y343499D01*
Y342500D01*
X518997Y341500D01*
X516998D01*
X515998Y342500D01*
X340500Y345498D02*
Y339500D01*
X343499D01*
X344499Y340500D01*
Y344498D01*
X343499Y345498D01*
X340500D01*
X350497Y339500D02*
X346498D01*
X350497Y343499D01*
Y344498D01*
X349497Y345498D01*
X347498D01*
X346498Y344498D01*
X213502Y193500D02*
X219500D01*
Y196499D01*
X218500Y197499D01*
X214502D01*
X213502Y196499D01*
Y193500D01*
X219500Y199498D02*
Y201497D01*
Y200498D01*
X213502D01*
X214502Y199498D01*
X608500Y241498D02*
Y236500D01*
X609500Y235500D01*
X611499D01*
X612499Y236500D01*
Y241498D01*
X618497D02*
X616497Y240498D01*
X614498Y238499D01*
Y236500D01*
X615498Y235500D01*
X617497D01*
X618497Y236500D01*
Y237499D01*
X617497Y238499D01*
X614498D01*
X290502Y309500D02*
X295500D01*
X296500Y310500D01*
Y312499D01*
X295500Y313499D01*
X290502D01*
X296500Y318497D02*
X290502D01*
X293501Y315498D01*
Y319497D01*
X251000Y143002D02*
Y148000D01*
X250000Y149000D01*
X248001D01*
X247001Y148000D01*
Y143002D01*
X245002Y144002D02*
X244002Y143002D01*
X242003D01*
X241003Y144002D01*
Y145001D01*
X242003Y146001D01*
X243003D01*
X242003D01*
X241003Y147001D01*
Y148000D01*
X242003Y149000D01*
X244002D01*
X245002Y148000D01*
X635000Y357624D02*
Y352626D01*
X636000Y351626D01*
X637999D01*
X638999Y352626D01*
Y357624D01*
X644997Y351626D02*
X640998D01*
X644997Y355625D01*
Y356624D01*
X643997Y357624D01*
X641998D01*
X640998Y356624D01*
X637500Y294998D02*
Y290000D01*
X638500Y289000D01*
X640499D01*
X641499Y290000D01*
Y294998D01*
X643498Y289000D02*
X645497D01*
X644498D01*
Y294998D01*
X643498Y293998D01*
X566000Y182500D02*
X565944Y188498D01*
X568942Y188526D01*
X569951Y187536D01*
X569970Y185537D01*
X568980Y184528D01*
X565981Y184499D01*
X567980Y184518D02*
X569999Y182538D01*
X575996Y182594D02*
X571998Y182556D01*
X575959Y186592D01*
X575949Y187592D01*
X574940Y188582D01*
X572941Y188564D01*
X571951Y187555D01*
X580995Y182641D02*
X580938Y188639D01*
X577967Y185612D01*
X581966Y185649D01*
X519500Y263500D02*
X513502D01*
Y266499D01*
X514502Y267499D01*
X516501D01*
X517501Y266499D01*
Y263500D01*
Y265499D02*
X519500Y267499D01*
Y273497D02*
Y269498D01*
X515501Y273497D01*
X514502D01*
X513502Y272497D01*
Y270498D01*
X514502Y269498D01*
Y275496D02*
X513502Y276496D01*
Y278495D01*
X514502Y279495D01*
X515501D01*
X516501Y278495D01*
Y277496D01*
Y278495D01*
X517501Y279495D01*
X518500D01*
X519500Y278495D01*
Y276496D01*
X518500Y275496D01*
X570500Y191500D02*
X570469Y197498D01*
X573468Y197513D01*
X574473Y196519D01*
X574483Y194519D01*
X573489Y193515D01*
X570490Y193499D01*
X572489Y193510D02*
X574499Y191521D01*
X580497Y191551D02*
X576498Y191531D01*
X580476Y195550D01*
X580471Y196550D01*
X579466Y197544D01*
X577467Y197534D01*
X576472Y196529D01*
X586495Y191582D02*
X582496Y191561D01*
X586474Y195581D01*
X586469Y196580D01*
X585464Y197575D01*
X583465Y197565D01*
X582470Y196560D01*
X569000Y262000D02*
X568876Y267997D01*
X571874Y268059D01*
X572894Y267080D01*
X572936Y265081D01*
X571957Y264061D01*
X568959Y263999D01*
X570958Y264040D02*
X572998Y262083D01*
X578995Y262207D02*
X574997Y262124D01*
X578912Y266205D01*
X578891Y267204D01*
X577871Y268183D01*
X575872Y268142D01*
X574893Y267122D01*
X580994Y262249D02*
X582993Y262290D01*
X581993Y262269D01*
X581869Y268266D01*
X580890Y267246D01*
X510500Y268000D02*
X504502Y267978D01*
X504491Y270977D01*
X505487Y271981D01*
X507486Y271988D01*
X508490Y270992D01*
X508501Y267993D01*
X508493Y269992D02*
X510486Y271999D01*
X510464Y277997D02*
X510478Y273998D01*
X506465Y277982D01*
X505465Y277978D01*
X504469Y276975D01*
X504476Y274976D01*
X505480Y273980D01*
X505458Y279978D02*
X504455Y280974D01*
X504448Y282973D01*
X505443Y283977D01*
X509442Y283991D01*
X510445Y282995D01*
X510453Y280996D01*
X509457Y279992D01*
X505458Y279978D01*
X436890Y268794D02*
X430892D01*
Y271793D01*
X431891Y272793D01*
X433891D01*
X434890Y271793D01*
Y268794D01*
Y270794D02*
X436890Y272793D01*
Y274793D02*
Y276792D01*
Y275792D01*
X430892D01*
X431891Y274793D01*
X435890Y279791D02*
X436890Y280790D01*
Y282790D01*
X435890Y283790D01*
X431891D01*
X430892Y282790D01*
Y280790D01*
X431891Y279791D01*
X432891D01*
X433891Y280790D01*
Y283790D01*
X563000Y172500D02*
X563025Y178498D01*
X566024Y178485D01*
X567020Y177481D01*
X567011Y175482D01*
X566008Y174487D01*
X563008Y174499D01*
X565008Y174491D02*
X566999Y172483D01*
X568998Y172475D02*
X570997Y172466D01*
X569998Y172470D01*
X570023Y178468D01*
X569019Y177473D01*
X574017Y177452D02*
X575021Y178447D01*
X577021Y178439D01*
X578016Y177435D01*
X578012Y176435D01*
X577008Y175440D01*
X578004Y174436D01*
X577999Y173436D01*
X576995Y172441D01*
X574996Y172449D01*
X574001Y173453D01*
X574005Y174453D01*
X575009Y175448D01*
X574013Y176452D01*
X574017Y177452D01*
X575009Y175448D02*
X577008Y175440D01*
X529000Y262500D02*
X523002Y262532D01*
X523018Y265531D01*
X524023Y266526D01*
X526022Y266515D01*
X527017Y265510D01*
X527001Y262511D01*
X527011Y264510D02*
X529022Y266499D01*
X529032Y268498D02*
X529043Y270497D01*
X529038Y269498D01*
X523040Y269530D01*
X524034Y268525D01*
X523061Y273529D02*
X523083Y277527D01*
X524082Y277522D01*
X528059Y273502D01*
X529059Y273496D01*
X587500Y276000D02*
X593498D01*
Y273001D01*
X592498Y272001D01*
X590499D01*
X589499Y273001D01*
Y276000D01*
Y274001D02*
X587500Y272001D01*
Y270002D02*
Y268003D01*
Y269002D01*
X593498D01*
X592498Y270002D01*
X593498Y261005D02*
X592498Y263004D01*
X590499Y265004D01*
X588500D01*
X587500Y264004D01*
Y262004D01*
X588500Y261005D01*
X589499D01*
X590499Y262004D01*
Y265004D01*
X425500Y287500D02*
Y293498D01*
X428499D01*
X429499Y292498D01*
Y290499D01*
X428499Y289499D01*
X425500D01*
X427499D02*
X429499Y287500D01*
X431498D02*
X433497D01*
X432498D01*
Y293498D01*
X431498Y292498D01*
X440495Y293498D02*
X436496D01*
Y290499D01*
X438496Y291499D01*
X439496D01*
X440495Y290499D01*
Y288500D01*
X439496Y287500D01*
X437496D01*
X436496Y288500D01*
X594500Y149000D02*
X600498D01*
Y146001D01*
X599498Y145001D01*
X597499D01*
X596499Y146001D01*
Y149000D01*
Y147001D02*
X594500Y145001D01*
Y143002D02*
Y141003D01*
Y142002D01*
X600498D01*
X599498Y143002D01*
X594500Y135004D02*
X600498D01*
X597499Y138004D01*
Y134005D01*
X551500Y293500D02*
Y299498D01*
X554499D01*
X555499Y298498D01*
Y296499D01*
X554499Y295499D01*
X551500D01*
X553499D02*
X555499Y293500D01*
X557498D02*
X559497D01*
X558498D01*
Y299498D01*
X557498Y298498D01*
X562496D02*
X563496Y299498D01*
X565495D01*
X566495Y298498D01*
Y297499D01*
X565495Y296499D01*
X564496D01*
X565495D01*
X566495Y295499D01*
Y294500D01*
X565495Y293500D01*
X563496D01*
X562496Y294500D01*
X290000Y203500D02*
Y197502D01*
X287001D01*
X286001Y198502D01*
Y200501D01*
X287001Y201501D01*
X290000D01*
X288001D02*
X286001Y203500D01*
X284002D02*
X282003D01*
X283002D01*
Y197502D01*
X284002Y198502D01*
X275005Y203500D02*
X279004D01*
X275005Y199501D01*
Y198502D01*
X276005Y197502D01*
X278004D01*
X279004Y198502D01*
X349500Y266500D02*
X343502D01*
Y269499D01*
X344502Y270499D01*
X346501D01*
X347501Y269499D01*
Y266500D01*
Y268499D02*
X349500Y270499D01*
Y272498D02*
Y274497D01*
Y273498D01*
X343502D01*
X344502Y272498D01*
X349500Y277496D02*
Y279496D01*
Y278496D01*
X343502D01*
X344502Y277496D01*
X291500Y194500D02*
Y188502D01*
X288501D01*
X287501Y189502D01*
Y191501D01*
X288501Y192501D01*
X291500D01*
X289501D02*
X287501Y194500D01*
X285502D02*
X283503D01*
X284502D01*
Y188502D01*
X285502Y189502D01*
X280504D02*
X279504Y188502D01*
X277504D01*
X276505Y189502D01*
Y193500D01*
X277504Y194500D01*
X279504D01*
X280504Y193500D01*
Y189502D01*
X289500Y123000D02*
Y117002D01*
X286501D01*
X285501Y118002D01*
Y120001D01*
X286501Y121001D01*
X289500D01*
X287501D02*
X285501Y123000D01*
X283502Y122000D02*
X282502Y123000D01*
X280503D01*
X279503Y122000D01*
Y118002D01*
X280503Y117002D01*
X282502D01*
X283502Y118002D01*
Y119001D01*
X282502Y120001D01*
X279503D01*
X340500Y274000D02*
X334502D01*
Y276999D01*
X335502Y277999D01*
X337501D01*
X338501Y276999D01*
Y274000D01*
Y275999D02*
X340500Y277999D01*
X335502Y279998D02*
X334502Y280998D01*
Y282997D01*
X335502Y283997D01*
X336501D01*
X337501Y282997D01*
X338501Y283997D01*
X339500D01*
X340500Y282997D01*
Y280998D01*
X339500Y279998D01*
X338501D01*
X337501Y280998D01*
X336501Y279998D01*
X335502D01*
X337501Y280998D02*
Y282997D01*
X269000Y270000D02*
X263002D01*
Y272999D01*
X264002Y273999D01*
X266001D01*
X267001Y272999D01*
Y270000D01*
Y271999D02*
X269000Y273999D01*
X263002Y275998D02*
Y279997D01*
X264002D01*
X268000Y275998D01*
X269000D01*
X359000Y268000D02*
X353002D01*
Y270999D01*
X354002Y271999D01*
X356001D01*
X357001Y270999D01*
Y268000D01*
Y269999D02*
X359000Y271999D01*
X353002Y277997D02*
X354002Y275997D01*
X356001Y273998D01*
X358000D01*
X359000Y274998D01*
Y276997D01*
X358000Y277997D01*
X357001D01*
X356001Y276997D01*
Y273998D01*
X288000Y213000D02*
Y207002D01*
X285001D01*
X284001Y208002D01*
Y210001D01*
X285001Y211001D01*
X288000D01*
X286001D02*
X284001Y213000D01*
X278003Y207002D02*
X282002D01*
Y210001D01*
X280003Y209001D01*
X279003D01*
X278003Y210001D01*
Y212000D01*
X279003Y213000D01*
X281002D01*
X282002Y212000D01*
X273000Y108685D02*
X267002D01*
Y111684D01*
X268002Y112684D01*
X270001D01*
X271001Y111684D01*
Y108685D01*
Y110684D02*
X273000Y112684D01*
Y117682D02*
X267002D01*
X270001Y114683D01*
Y118682D01*
X260500Y287000D02*
Y292998D01*
X263499D01*
X264499Y291998D01*
Y289999D01*
X263499Y288999D01*
X260500D01*
X262499D02*
X264499Y287000D01*
X266498Y291998D02*
X267498Y292998D01*
X269497D01*
X270497Y291998D01*
Y290999D01*
X269497Y289999D01*
X268497D01*
X269497D01*
X270497Y288999D01*
Y288000D01*
X269497Y287000D01*
X267498D01*
X266498Y288000D01*
X262500Y236000D02*
X256502D01*
Y238999D01*
X257502Y239999D01*
X259501D01*
X260501Y238999D01*
Y236000D01*
Y237999D02*
X262500Y239999D01*
Y245997D02*
Y241998D01*
X258501Y245997D01*
X257502D01*
X256502Y244997D01*
Y242998D01*
X257502Y241998D01*
X383500Y294500D02*
Y300498D01*
X386499D01*
X387499Y299498D01*
Y297499D01*
X386499Y296499D01*
X383500D01*
X385499D02*
X387499Y294500D01*
X389498D02*
X391497D01*
X390498D01*
Y300498D01*
X389498Y299498D01*
X620998Y119500D02*
X615000D01*
Y115501D01*
Y110503D02*
X620998D01*
X617999Y113502D01*
Y109503D01*
X585000Y320498D02*
Y314500D01*
X588999D01*
X590998Y319498D02*
X591998Y320498D01*
X593997D01*
X594997Y319498D01*
Y318499D01*
X593997Y317499D01*
X592997D01*
X593997D01*
X594997Y316499D01*
Y315500D01*
X593997Y314500D01*
X591998D01*
X590998Y315500D01*
X237502Y275500D02*
X243500D01*
Y279499D01*
Y285497D02*
Y281498D01*
X239501Y285497D01*
X238502D01*
X237502Y284497D01*
Y282498D01*
X238502Y281498D01*
X416000Y322498D02*
Y316500D01*
X419999D01*
X421998D02*
X423997D01*
X422998D01*
Y322498D01*
X421998Y321498D01*
X733502Y289499D02*
Y287499D01*
Y288499D01*
X738500D01*
X739500Y287499D01*
Y286500D01*
X738500Y285500D01*
X733502Y291498D02*
Y295497D01*
X734502D01*
X738500Y291498D01*
X739500D01*
X733502Y303494D02*
X739500D01*
Y306493D01*
X738500Y307493D01*
X737501D01*
X736501Y306493D01*
Y303494D01*
Y306493D01*
X735501Y307493D01*
X734502D01*
X733502Y306493D01*
Y303494D01*
Y309492D02*
X738500D01*
X739500Y310492D01*
Y312491D01*
X738500Y313491D01*
X733502D01*
X734502Y319489D02*
X733502Y318489D01*
Y316490D01*
X734502Y315490D01*
X735501D01*
X736501Y316490D01*
Y318489D01*
X737501Y319489D01*
X738500D01*
X739500Y318489D01*
Y316490D01*
X738500Y315490D01*
X733502Y331485D02*
Y327486D01*
X736501D01*
X735501Y329486D01*
Y330485D01*
X736501Y331485D01*
X738500D01*
X739500Y330485D01*
Y328486D01*
X738500Y327486D01*
X733502Y333485D02*
X737501D01*
X739500Y335484D01*
X737501Y337483D01*
X733502D01*
X731516Y353758D02*
Y351759D01*
Y352759D01*
X736514D01*
X737514Y351759D01*
Y350759D01*
X736514Y349760D01*
X731516Y359756D02*
X732515Y357757D01*
X734515Y355758D01*
X736514D01*
X737514Y356757D01*
Y358757D01*
X736514Y359756D01*
X735514D01*
X734515Y358757D01*
Y355758D01*
X737514Y367754D02*
X731516D01*
X733515Y369753D01*
X731516Y371752D01*
X737514D01*
X731516Y376751D02*
Y374751D01*
X732515Y373752D01*
X736514D01*
X737514Y374751D01*
Y376751D01*
X736514Y377750D01*
X732515D01*
X731516Y376751D01*
Y379750D02*
Y383749D01*
Y381749D01*
X737514D01*
X731516Y388747D02*
Y386748D01*
X732515Y385748D01*
X736514D01*
X737514Y386748D01*
Y388747D01*
X736514Y389747D01*
X732515D01*
X731516Y388747D01*
X737514Y391746D02*
X731516D01*
Y394745D01*
X732515Y395745D01*
X734515D01*
X735514Y394745D01*
Y391746D01*
Y393745D02*
X737514Y395745D01*
X731516Y407741D02*
Y403742D01*
X734515D01*
X733515Y405741D01*
Y406741D01*
X734515Y407741D01*
X736514D01*
X737514Y406741D01*
Y404742D01*
X736514Y403742D01*
X731516Y409740D02*
X735514D01*
X737514Y411739D01*
X735514Y413739D01*
X731516D01*
X378501Y436002D02*
X380501D01*
X379501D01*
Y441000D01*
X380501Y442000D01*
X381500D01*
X382500Y441000D01*
X372503Y436002D02*
X376502D01*
Y439001D01*
X374503Y438001D01*
X373503D01*
X372503Y439001D01*
Y441000D01*
X373503Y442000D01*
X375502D01*
X376502Y441000D01*
X360507Y436002D02*
X362507D01*
X361507D01*
Y441000D01*
X362507Y442000D01*
X363506D01*
X364506Y441000D01*
X354509Y436002D02*
X358508D01*
Y442000D01*
X354509D01*
X358508Y439001D02*
X356508D01*
X352510Y436002D02*
X348511D01*
X350510D01*
Y442000D01*
X342513Y437002D02*
X343513Y436002D01*
X345512D01*
X346512Y437002D01*
Y438001D01*
X345512Y439001D01*
X343513D01*
X342513Y440001D01*
Y441000D01*
X343513Y442000D01*
X345512D01*
X346512Y441000D01*
X337515Y436002D02*
X339514D01*
X340514Y437002D01*
Y441000D01*
X339514Y442000D01*
X337515D01*
X336515Y441000D01*
Y437002D01*
X337515Y436002D01*
X334516Y442000D02*
Y436002D01*
X330517Y442000D01*
Y436002D01*
X322519Y442000D02*
X320520D01*
X321520D01*
Y436002D01*
X322519Y437002D01*
X317521D02*
X316521Y436002D01*
X314522D01*
X313522Y437002D01*
Y438001D01*
X314522Y439001D01*
X313522Y440001D01*
Y441000D01*
X314522Y442000D01*
X316521D01*
X317521Y441000D01*
Y440001D01*
X316521Y439001D01*
X317521Y438001D01*
Y437002D01*
X316521Y439001D02*
X314522D01*
X311523Y436002D02*
Y440001D01*
X309524Y442000D01*
X307524Y440001D01*
Y436002D01*
X534501Y435502D02*
X536501D01*
X535501D01*
Y440500D01*
X536501Y441500D01*
X537500D01*
X538500Y440500D01*
X529503Y441500D02*
Y435502D01*
X532502Y438501D01*
X528503D01*
X520506Y441500D02*
Y435502D01*
X517507D01*
X516507Y436502D01*
Y438501D01*
X517507Y439501D01*
X520506D01*
X518506D02*
X516507Y441500D01*
X511509Y435502D02*
X513508D01*
X514508Y436502D01*
Y440500D01*
X513508Y441500D01*
X511509D01*
X510509Y440500D01*
Y436502D01*
X511509Y435502D01*
X508510D02*
Y440500D01*
X507510Y441500D01*
X505511D01*
X504511Y440500D01*
Y435502D01*
X502512D02*
X498513D01*
X500512D01*
Y441500D01*
X492515Y435502D02*
X496514D01*
Y441500D01*
X492515D01*
X496514Y438501D02*
X494514D01*
X490516Y441500D02*
Y435502D01*
X487516D01*
X486517Y436502D01*
Y438501D01*
X487516Y439501D01*
X490516D01*
X488516D02*
X486517Y441500D01*
X478519D02*
X476520D01*
X477520D01*
Y435502D01*
X478519Y436502D01*
X469522Y441500D02*
X473521D01*
X469522Y437501D01*
Y436502D01*
X470522Y435502D01*
X472521D01*
X473521Y436502D01*
X467523Y435502D02*
Y439501D01*
X465524Y441500D01*
X463524Y439501D01*
Y435502D01*
X735002Y135499D02*
Y133499D01*
Y134499D01*
X740000D01*
X741000Y133499D01*
Y132500D01*
X740000Y131500D01*
X736002Y137498D02*
X735002Y138498D01*
Y140497D01*
X736002Y141497D01*
X737001D01*
X738001Y140497D01*
Y139497D01*
Y140497D01*
X739001Y141497D01*
X740000D01*
X741000Y140497D01*
Y138498D01*
X740000Y137498D01*
X741000Y149494D02*
X735002D01*
Y152493D01*
X736002Y153493D01*
X738001D01*
X739001Y152493D01*
Y149494D01*
Y151494D02*
X741000Y153493D01*
X735002Y155492D02*
Y157492D01*
Y156492D01*
X741000D01*
Y155492D01*
Y157492D01*
X736002Y164489D02*
X735002Y163490D01*
Y161490D01*
X736002Y160491D01*
X740000D01*
X741000Y161490D01*
Y163490D01*
X740000Y164489D01*
X738001D01*
Y162490D01*
X735002Y166489D02*
X741000D01*
X738001D01*
Y170487D01*
X735002D01*
X741000D01*
X735002Y172487D02*
Y176485D01*
Y174486D01*
X741000D01*
Y184483D02*
X735002D01*
X737001Y186482D01*
X735002Y188482D01*
X741000D01*
X735002Y193480D02*
Y191481D01*
X736002Y190481D01*
X740000D01*
X741000Y191481D01*
Y193480D01*
X740000Y194480D01*
X736002D01*
X735002Y193480D01*
Y196479D02*
Y200478D01*
Y198478D01*
X741000D01*
Y208475D02*
Y210474D01*
Y209475D01*
X735002D01*
X736002Y208475D01*
X741000Y217472D02*
Y213474D01*
X737001Y217472D01*
X736002D01*
X735002Y216473D01*
Y214473D01*
X736002Y213474D01*
X735002Y219472D02*
X739001D01*
X741000Y221471D01*
X739001Y223470D01*
X735002D01*
X127498Y245001D02*
Y247001D01*
Y246001D01*
X122500D01*
X121500Y247001D01*
Y248000D01*
X122500Y249000D01*
X121500Y239003D02*
Y243002D01*
X125499Y239003D01*
X126498D01*
X127498Y240003D01*
Y242002D01*
X126498Y243002D01*
X127498Y231006D02*
X121500D01*
Y227007D01*
X127498Y221009D02*
Y225008D01*
X121500D01*
Y221009D01*
X124499Y225008D02*
Y223008D01*
X127498Y215011D02*
Y219010D01*
X124499D01*
Y217010D01*
Y219010D01*
X121500D01*
X127498Y213012D02*
Y209013D01*
Y211012D01*
X121500D01*
Y201015D02*
X127498D01*
X125499Y199016D01*
X127498Y197017D01*
X121500D01*
X127498Y192018D02*
Y194018D01*
X126498Y195018D01*
X122500D01*
X121500Y194018D01*
Y192018D01*
X122500Y191019D01*
X126498D01*
X127498Y192018D01*
Y189019D02*
Y185021D01*
Y187020D01*
X121500D01*
Y177023D02*
Y175024D01*
Y176024D01*
X127498D01*
X126498Y177023D01*
X121500Y168026D02*
Y172025D01*
X125499Y168026D01*
X126498D01*
X127498Y169026D01*
Y171025D01*
X126498Y172025D01*
X127498Y166027D02*
X123499D01*
X121500Y164028D01*
X123499Y162028D01*
X127498D01*
X411499Y121998D02*
X409499D01*
X410499D01*
Y117000D01*
X409499Y116000D01*
X408500D01*
X407500Y117000D01*
X413498Y116000D02*
X415497D01*
X414498D01*
Y121998D01*
X413498Y120998D01*
X424495Y121998D02*
Y117999D01*
X426494Y116000D01*
X428493Y117999D01*
Y121998D01*
X430493D02*
X432492D01*
X431492D01*
Y116000D01*
X430493D01*
X432492D01*
X435491D02*
Y121998D01*
X439490Y116000D01*
Y121998D01*
X557478Y246515D02*
X556474Y247510D01*
X554475Y247502D01*
X553479Y246498D01*
X553496Y242500D01*
X554500Y241504D01*
X556499Y241512D01*
X557494Y242516D01*
X563472Y247539D02*
X559473Y247523D01*
X559486Y244524D01*
X561481Y245532D01*
X562480Y245536D01*
X563484Y244541D01*
X563492Y242541D01*
X562497Y241537D01*
X560498Y241529D01*
X559494Y242525D01*
X565475Y246548D02*
X566471Y247552D01*
X568470Y247560D01*
X569474Y246565D01*
X569478Y245565D01*
X568483Y244561D01*
X567483Y244557D01*
X568483Y244561D01*
X569486Y243566D01*
X569490Y242566D01*
X568495Y241562D01*
X566496Y241554D01*
X565492Y242549D01*
X457999Y267998D02*
X456999Y268998D01*
X455000D01*
X454000Y267998D01*
Y264000D01*
X455000Y263000D01*
X456999D01*
X457999Y264000D01*
X463997Y268998D02*
X459998D01*
Y265999D01*
X461997Y266999D01*
X462997D01*
X463997Y265999D01*
Y264000D01*
X462997Y263000D01*
X460998D01*
X459998Y264000D01*
X469995Y263000D02*
X465996D01*
X469995Y266999D01*
Y267998D01*
X468995Y268998D01*
X466996D01*
X465996Y267998D01*
X573923Y214356D02*
X572923Y215355D01*
X570924D01*
X569924Y214356D01*
Y210357D01*
X570924Y209357D01*
X572923D01*
X573923Y210357D01*
X579921Y215355D02*
X575922D01*
Y212356D01*
X577922Y213356D01*
X578922D01*
X579921Y212356D01*
Y210357D01*
X578922Y209357D01*
X576922D01*
X575922Y210357D01*
X581920Y209357D02*
X583920D01*
X582920D01*
Y215355D01*
X581920Y214356D01*
X488835Y273332D02*
X488002Y272499D01*
Y270833D01*
X488835Y270000D01*
X492167D01*
X493000Y270833D01*
Y272499D01*
X492167Y273332D01*
X488002Y278331D02*
Y274998D01*
X490501D01*
X489668Y276664D01*
Y277498D01*
X490501Y278331D01*
X492167D01*
X493000Y277498D01*
Y275831D01*
X492167Y274998D01*
X488835Y279997D02*
X488002Y280830D01*
Y282496D01*
X488835Y283329D01*
X492167D01*
X493000Y282496D01*
Y280830D01*
X492167Y279997D01*
X488835D01*
X572130Y205358D02*
X571126Y206353D01*
X569127Y206344D01*
X568132Y205339D01*
X568150Y201341D01*
X569155Y200346D01*
X571154Y200355D01*
X572149Y201359D01*
X577152Y200383D02*
X577124Y206381D01*
X574139Y203368D01*
X578138Y203386D01*
X580146Y201396D02*
X581151Y200401D01*
X583150Y200411D01*
X584145Y201415D01*
X584127Y205414D01*
X583122Y206409D01*
X581123Y206399D01*
X580128Y205395D01*
X580132Y204395D01*
X581137Y203400D01*
X584136Y203414D01*
X496032Y273537D02*
X495025Y272545D01*
X495010Y270546D01*
X496002Y269538D01*
X500000Y269508D01*
X501008Y270500D01*
X501023Y272499D01*
X500031Y273506D01*
X501069Y278497D02*
X495071Y278543D01*
X498047Y275521D01*
X498078Y279520D01*
X496094Y281534D02*
X495102Y282542D01*
X495118Y284541D01*
X496125Y285533D01*
X497124Y285525D01*
X498116Y284518D01*
X499124Y285510D01*
X500123Y285502D01*
X501115Y284495D01*
X501100Y282495D01*
X500093Y281504D01*
X499093Y281511D01*
X498101Y282519D01*
X497094Y281526D01*
X496094Y281534D01*
X498101Y282519D02*
X498116Y284518D01*
X614499Y250498D02*
X613499Y251498D01*
X611500D01*
X610500Y250498D01*
Y246500D01*
X611500Y245500D01*
X613499D01*
X614499Y246500D01*
X619497Y245500D02*
Y251498D01*
X616498Y248499D01*
X620497D01*
X622496Y251498D02*
X626495D01*
Y250498D01*
X622496Y246500D01*
Y245500D01*
X614499Y258998D02*
X613499Y259998D01*
X611500D01*
X610500Y258998D01*
Y255000D01*
X611500Y254000D01*
X613499D01*
X614499Y255000D01*
X619497Y254000D02*
Y259998D01*
X616498Y256999D01*
X620497D01*
X626495Y259998D02*
X624496Y258998D01*
X622496Y256999D01*
Y255000D01*
X623496Y254000D01*
X625495D01*
X626495Y255000D01*
Y255999D01*
X625495Y256999D01*
X622496D01*
X614499Y267998D02*
X613499Y268998D01*
X611500D01*
X610500Y267998D01*
Y264000D01*
X611500Y263000D01*
X613499D01*
X614499Y264000D01*
X619497Y263000D02*
Y268998D01*
X616498Y265999D01*
X620497D01*
X626495Y268998D02*
X622496D01*
Y265999D01*
X624496Y266999D01*
X625495D01*
X626495Y265999D01*
Y264000D01*
X625495Y263000D01*
X623496D01*
X622496Y264000D01*
X451002Y315515D02*
X450004Y314513D01*
X450008Y312514D01*
X451010Y311516D01*
X455008Y311525D01*
X456006Y312526D01*
X456002Y314526D01*
X455000Y315523D01*
X455990Y320524D02*
X449992Y320512D01*
X452997Y317518D01*
X452989Y321517D01*
X455978Y326522D02*
X449980Y326509D01*
X452985Y323517D01*
X452977Y327515D01*
X442502Y314999D02*
X441502Y313999D01*
Y312000D01*
X442502Y311000D01*
X446500D01*
X447500Y312000D01*
Y313999D01*
X446500Y314999D01*
X447500Y319997D02*
X441502D01*
X444501Y316998D01*
Y320997D01*
X442502Y322996D02*
X441502Y323996D01*
Y325995D01*
X442502Y326995D01*
X443501D01*
X444501Y325995D01*
Y324995D01*
Y325995D01*
X445501Y326995D01*
X446500D01*
X447500Y325995D01*
Y323996D01*
X446500Y322996D01*
X432502Y314999D02*
X431502Y313999D01*
Y312000D01*
X432502Y311000D01*
X436500D01*
X437500Y312000D01*
Y313999D01*
X436500Y314999D01*
X437500Y319997D02*
X431502D01*
X434501Y316998D01*
Y320997D01*
X437500Y326995D02*
Y322996D01*
X433501Y326995D01*
X432502D01*
X431502Y325995D01*
Y323996D01*
X432502Y322996D01*
X673521Y183480D02*
X672526Y184484D01*
X670527Y184494D01*
X669523Y183498D01*
X669504Y179500D01*
X670500Y178496D01*
X672499Y178486D01*
X673503Y179482D01*
X678497Y178459D02*
X678524Y184457D01*
X675512Y181472D01*
X679510Y181454D01*
X681496Y178446D02*
X683495Y178437D01*
X682496Y178441D01*
X682523Y184439D01*
X681519Y183444D01*
X646998Y210001D02*
X647998Y211001D01*
Y213000D01*
X646998Y214000D01*
X643000D01*
X642000Y213000D01*
Y211001D01*
X643000Y210001D01*
X642000Y205003D02*
X647998D01*
X644999Y208002D01*
Y204003D01*
X646998Y202004D02*
X647998Y201004D01*
Y199005D01*
X646998Y198005D01*
X643000D01*
X642000Y199005D01*
Y201004D01*
X643000Y202004D01*
X646998D01*
X648498Y253001D02*
X649498Y254001D01*
Y256000D01*
X648498Y257000D01*
X644500D01*
X643500Y256000D01*
Y254001D01*
X644500Y253001D01*
X648498Y251002D02*
X649498Y250002D01*
Y248003D01*
X648498Y247003D01*
X647499D01*
X646499Y248003D01*
Y249003D01*
Y248003D01*
X645499Y247003D01*
X644500D01*
X643500Y248003D01*
Y250002D01*
X644500Y251002D01*
Y245004D02*
X643500Y244004D01*
Y242005D01*
X644500Y241005D01*
X648498D01*
X649498Y242005D01*
Y244004D01*
X648498Y245004D01*
X647499D01*
X646499Y244004D01*
Y241005D01*
X518002Y370999D02*
X517002Y369999D01*
Y368000D01*
X518002Y367000D01*
X522000D01*
X523000Y368000D01*
Y369999D01*
X522000Y370999D01*
X518002Y372998D02*
X517002Y373998D01*
Y375997D01*
X518002Y376997D01*
X519001D01*
X520001Y375997D01*
Y374997D01*
Y375997D01*
X521001Y376997D01*
X522000D01*
X523000Y375997D01*
Y373998D01*
X522000Y372998D01*
X518002Y378996D02*
X517002Y379996D01*
Y381995D01*
X518002Y382995D01*
X519001D01*
X520001Y381995D01*
X521001Y382995D01*
X522000D01*
X523000Y381995D01*
Y379996D01*
X522000Y378996D01*
X521001D01*
X520001Y379996D01*
X519001Y378996D01*
X518002D01*
X520001Y379996D02*
Y381995D01*
X486499Y349998D02*
X485499Y350998D01*
X483500D01*
X482500Y349998D01*
Y346000D01*
X483500Y345000D01*
X485499D01*
X486499Y346000D01*
X488498Y349998D02*
X489498Y350998D01*
X491497D01*
X492497Y349998D01*
Y348999D01*
X491497Y347999D01*
X490497D01*
X491497D01*
X492497Y346999D01*
Y346000D01*
X491497Y345000D01*
X489498D01*
X488498Y346000D01*
X494496Y350998D02*
X498495D01*
Y349998D01*
X494496Y346000D01*
Y345000D01*
X453999Y348998D02*
X452999Y349998D01*
X451000D01*
X450000Y348998D01*
Y345000D01*
X451000Y344000D01*
X452999D01*
X453999Y345000D01*
X455998Y348998D02*
X456998Y349998D01*
X458997D01*
X459997Y348998D01*
Y347999D01*
X458997Y346999D01*
X457997D01*
X458997D01*
X459997Y345999D01*
Y345000D01*
X458997Y344000D01*
X456998D01*
X455998Y345000D01*
X465995Y349998D02*
X463996Y348998D01*
X461996Y346999D01*
Y345000D01*
X462996Y344000D01*
X464995D01*
X465995Y345000D01*
Y345999D01*
X464995Y346999D01*
X461996D01*
X495542Y309166D02*
X494876Y309833D01*
X493543D01*
X492877Y309166D01*
Y306500D01*
X493543Y305834D01*
X494876D01*
X495542Y306500D01*
X496875Y309166D02*
X497542Y309833D01*
X498875D01*
X499541Y309166D01*
Y308500D01*
X498875Y307833D01*
X498208D01*
X498875D01*
X499541Y307167D01*
Y306500D01*
X498875Y305834D01*
X497542D01*
X496875Y306500D01*
X503540Y309833D02*
X500874D01*
Y307833D01*
X502207Y308500D01*
X502874D01*
X503540Y307833D01*
Y306500D01*
X502874Y305834D01*
X501541D01*
X500874Y306500D01*
X611221Y203491D02*
X611888Y204158D01*
Y205490D01*
X611221Y206157D01*
X608555D01*
X607889Y205490D01*
Y204158D01*
X608555Y203491D01*
X611221Y202158D02*
X611888Y201492D01*
Y200159D01*
X611221Y199493D01*
X610555D01*
X609888Y200159D01*
Y200825D01*
Y200159D01*
X609222Y199493D01*
X608555D01*
X607889Y200159D01*
Y201492D01*
X608555Y202158D01*
X607889Y196160D02*
X611888D01*
X609888Y198160D01*
Y195494D01*
X291502Y141499D02*
X290502Y140499D01*
Y138500D01*
X291502Y137500D01*
X295500D01*
X296500Y138500D01*
Y140499D01*
X295500Y141499D01*
X291502Y143498D02*
X290502Y144498D01*
Y146497D01*
X291502Y147497D01*
X292501D01*
X293501Y146497D01*
Y145497D01*
Y146497D01*
X294501Y147497D01*
X295500D01*
X296500Y146497D01*
Y144498D01*
X295500Y143498D01*
X291502Y149496D02*
X290502Y150496D01*
Y152495D01*
X291502Y153495D01*
X292501D01*
X293501Y152495D01*
Y151496D01*
Y152495D01*
X294501Y153495D01*
X295500D01*
X296500Y152495D01*
Y150496D01*
X295500Y149496D01*
X284002Y256999D02*
X283002Y255999D01*
Y254000D01*
X284002Y253000D01*
X288000D01*
X289000Y254000D01*
Y255999D01*
X288000Y256999D01*
X284002Y258998D02*
X283002Y259998D01*
Y261997D01*
X284002Y262997D01*
X285001D01*
X286001Y261997D01*
Y260997D01*
Y261997D01*
X287001Y262997D01*
X288000D01*
X289000Y261997D01*
Y259998D01*
X288000Y258998D01*
X289000Y268995D02*
Y264996D01*
X285001Y268995D01*
X284002D01*
X283002Y267995D01*
Y265996D01*
X284002Y264996D01*
X282001Y172502D02*
X283001Y171502D01*
X285000D01*
X286000Y172502D01*
Y176500D01*
X285000Y177500D01*
X283001D01*
X282001Y176500D01*
X280002Y172502D02*
X279002Y171502D01*
X277003D01*
X276003Y172502D01*
Y173501D01*
X277003Y174501D01*
X278003D01*
X277003D01*
X276003Y175501D01*
Y176500D01*
X277003Y177500D01*
X279002D01*
X280002Y176500D01*
X274004Y177500D02*
X272005D01*
X273004D01*
Y171502D01*
X274004Y172502D01*
X318002Y272499D02*
X317002Y271499D01*
Y269500D01*
X318002Y268500D01*
X322000D01*
X323000Y269500D01*
Y271499D01*
X322000Y272499D01*
X318002Y274498D02*
X317002Y275498D01*
Y277497D01*
X318002Y278497D01*
X319001D01*
X320001Y277497D01*
Y276497D01*
Y277497D01*
X321001Y278497D01*
X322000D01*
X323000Y277497D01*
Y275498D01*
X322000Y274498D01*
X318002Y280496D02*
X317002Y281496D01*
Y283495D01*
X318002Y284495D01*
X322000D01*
X323000Y283495D01*
Y281496D01*
X322000Y280496D01*
X318002D01*
X285168Y181335D02*
X286001Y180502D01*
X287667D01*
X288500Y181335D01*
Y184667D01*
X287667Y185500D01*
X286001D01*
X285168Y184667D01*
X280169Y185500D02*
X283502D01*
X280169Y182168D01*
Y181335D01*
X281002Y180502D01*
X282669D01*
X283502Y181335D01*
X278503Y184667D02*
X277670Y185500D01*
X276004D01*
X275171Y184667D01*
Y181335D01*
X276004Y180502D01*
X277670D01*
X278503Y181335D01*
Y182168D01*
X277670Y183001D01*
X275171D01*
X326835Y271332D02*
X326002Y270499D01*
Y268833D01*
X326835Y268000D01*
X330167D01*
X331000Y268833D01*
Y270499D01*
X330167Y271332D01*
X331000Y276331D02*
Y272998D01*
X327668Y276331D01*
X326835D01*
X326002Y275498D01*
Y273831D01*
X326835Y272998D01*
Y277997D02*
X326002Y278830D01*
Y280496D01*
X326835Y281329D01*
X327668D01*
X328501Y280496D01*
X329334Y281329D01*
X330167D01*
X331000Y280496D01*
Y278830D01*
X330167Y277997D01*
X329334D01*
X328501Y278830D01*
X327668Y277997D01*
X326835D01*
X328501Y278830D02*
Y280496D01*
X245014Y133992D02*
X246016Y132995D01*
X248015Y133000D01*
X249012Y134002D01*
X249003Y138000D01*
X248000Y138997D01*
X246001Y138993D01*
X245004Y137990D01*
X239003Y138975D02*
X243002Y138985D01*
X239013Y134977D01*
X239016Y133977D01*
X240018Y132980D01*
X242017Y132985D01*
X243014Y133987D01*
X237019Y132973D02*
X233020Y132963D01*
X233017Y133962D01*
X237006Y137971D01*
X237004Y138970D01*
X245668Y126335D02*
X246501Y125502D01*
X248167D01*
X249000Y126335D01*
Y129667D01*
X248167Y130500D01*
X246501D01*
X245668Y129667D01*
X240669Y130500D02*
X244002D01*
X240669Y127168D01*
Y126335D01*
X241502Y125502D01*
X243169D01*
X244002Y126335D01*
X235671Y125502D02*
X237337Y126335D01*
X239003Y128001D01*
Y129667D01*
X238170Y130500D01*
X236504D01*
X235671Y129667D01*
Y128834D01*
X236504Y128001D01*
X239003D01*
X245001Y117502D02*
X246001Y116502D01*
X248000D01*
X249000Y117502D01*
Y121500D01*
X248000Y122500D01*
X246001D01*
X245001Y121500D01*
X239003Y122500D02*
X243002D01*
X239003Y118501D01*
Y117502D01*
X240003Y116502D01*
X242002D01*
X243002Y117502D01*
X233005Y116502D02*
X237004D01*
Y119501D01*
X235004Y118501D01*
X234005D01*
X233005Y119501D01*
Y121500D01*
X234005Y122500D01*
X236004D01*
X237004Y121500D01*
X282502Y314499D02*
X281502Y313499D01*
Y311500D01*
X282502Y310500D01*
X286500D01*
X287500Y311500D01*
Y313499D01*
X286500Y314499D01*
X287500Y320497D02*
Y316498D01*
X283501Y320497D01*
X282502D01*
X281502Y319497D01*
Y317498D01*
X282502Y316498D01*
X287500Y325495D02*
X281502D01*
X284501Y322496D01*
Y326495D01*
X274002Y313999D02*
X273002Y312999D01*
Y311000D01*
X274002Y310000D01*
X278000D01*
X279000Y311000D01*
Y312999D01*
X278000Y313999D01*
X279000Y319997D02*
Y315998D01*
X275001Y319997D01*
X274002D01*
X273002Y318997D01*
Y316998D01*
X274002Y315998D01*
Y321996D02*
X273002Y322996D01*
Y324995D01*
X274002Y325995D01*
X275001D01*
X276001Y324995D01*
Y323995D01*
Y324995D01*
X277001Y325995D01*
X278000D01*
X279000Y324995D01*
Y322996D01*
X278000Y321996D01*
X264002Y313999D02*
X263002Y312999D01*
Y311000D01*
X264002Y310000D01*
X268000D01*
X269000Y311000D01*
Y312999D01*
X268000Y313999D01*
X269000Y319997D02*
Y315998D01*
X265001Y319997D01*
X264002D01*
X263002Y318997D01*
Y316998D01*
X264002Y315998D01*
X269000Y325995D02*
Y321996D01*
X265001Y325995D01*
X264002D01*
X263002Y324995D01*
Y322996D01*
X264002Y321996D01*
X348002Y371999D02*
X347002Y370999D01*
Y369000D01*
X348002Y368000D01*
X352000D01*
X353000Y369000D01*
Y370999D01*
X352000Y371999D01*
X353000Y377997D02*
Y373998D01*
X349001Y377997D01*
X348002D01*
X347002Y376997D01*
Y374998D01*
X348002Y373998D01*
X353000Y379996D02*
Y381996D01*
Y380996D01*
X347002D01*
X348002Y379996D01*
X315999Y348998D02*
X314999Y349998D01*
X313000D01*
X312000Y348998D01*
Y345000D01*
X313000Y344000D01*
X314999D01*
X315999Y345000D01*
X321997Y344000D02*
X317998D01*
X321997Y347999D01*
Y348998D01*
X320997Y349998D01*
X318998D01*
X317998Y348998D01*
X323996D02*
X324996Y349998D01*
X326995D01*
X327995Y348998D01*
Y345000D01*
X326995Y344000D01*
X324996D01*
X323996Y345000D01*
Y348998D01*
X278499Y349498D02*
X277499Y350498D01*
X275500D01*
X274500Y349498D01*
Y345500D01*
X275500Y344500D01*
X277499D01*
X278499Y345500D01*
X280498Y344500D02*
X282497D01*
X281498D01*
Y350498D01*
X280498Y349498D01*
X285496Y345500D02*
X286496Y344500D01*
X288495D01*
X289495Y345500D01*
Y349498D01*
X288495Y350498D01*
X286496D01*
X285496Y349498D01*
Y348499D01*
X286496Y347499D01*
X289495D01*
X189001Y205002D02*
X190001Y204002D01*
X192000D01*
X193000Y205002D01*
Y209000D01*
X192000Y210000D01*
X190001D01*
X189001Y209000D01*
X187002Y210000D02*
X185003D01*
X186002D01*
Y204002D01*
X187002Y205002D01*
X182004D02*
X181004Y204002D01*
X179005D01*
X178005Y205002D01*
Y206001D01*
X179005Y207001D01*
X178005Y208001D01*
Y209000D01*
X179005Y210000D01*
X181004D01*
X182004Y209000D01*
Y208001D01*
X181004Y207001D01*
X182004Y206001D01*
Y205002D01*
X181004Y207001D02*
X179005D01*
X212502Y168499D02*
X211502Y167499D01*
Y165500D01*
X212502Y164500D01*
X216500D01*
X217500Y165500D01*
Y167499D01*
X216500Y168499D01*
X217500Y170498D02*
Y172497D01*
Y171498D01*
X211502D01*
X212502Y170498D01*
X211502Y175496D02*
Y179495D01*
X212502D01*
X216500Y175496D01*
X217500D01*
X212002Y132999D02*
X211002Y131999D01*
Y130000D01*
X212002Y129000D01*
X216000D01*
X217000Y130000D01*
Y131999D01*
X216000Y132999D01*
X217000Y134998D02*
Y136997D01*
Y135998D01*
X211002D01*
X212002Y134998D01*
X211002Y143995D02*
X212002Y141996D01*
X214001Y139996D01*
X216000D01*
X217000Y140996D01*
Y142996D01*
X216000Y143995D01*
X215001D01*
X214001Y142996D01*
Y139996D01*
X328981Y309417D02*
X327981Y310417D01*
X325982D01*
X324982Y309417D01*
Y305418D01*
X325982Y304418D01*
X327981D01*
X328981Y305418D01*
X330980Y304418D02*
X332979D01*
X331980D01*
Y310417D01*
X330980Y309417D01*
X339977Y310417D02*
X335979D01*
Y307417D01*
X337978Y308417D01*
X338978D01*
X339977Y307417D01*
Y305418D01*
X338978Y304418D01*
X336978D01*
X335979Y305418D01*
X250847Y183320D02*
X249848Y182320D01*
Y180321D01*
X250847Y179321D01*
X254846D01*
X255846Y180321D01*
Y182320D01*
X254846Y183320D01*
X255846Y185319D02*
Y187318D01*
Y186319D01*
X249848D01*
X250847Y185319D01*
X255846Y193316D02*
X249848D01*
X252847Y190317D01*
Y194316D01*
X694498Y403627D02*
X695498Y404627D01*
Y406626D01*
X694498Y407626D01*
X690500D01*
X689500Y406626D01*
Y404627D01*
X690500Y403627D01*
X689500Y401628D02*
Y399629D01*
Y400628D01*
X695498D01*
X694498Y401628D01*
Y396630D02*
X695498Y395630D01*
Y393631D01*
X694498Y392631D01*
X693499D01*
X692499Y393631D01*
Y394630D01*
Y393631D01*
X691499Y392631D01*
X690500D01*
X689500Y393631D01*
Y395630D01*
X690500Y396630D01*
X666999Y356124D02*
X665999Y357124D01*
X664000D01*
X663000Y356124D01*
Y352126D01*
X664000Y351126D01*
X665999D01*
X666999Y352126D01*
X668998Y351126D02*
X670997D01*
X669998D01*
Y357124D01*
X668998Y356124D01*
X677995Y351126D02*
X673996D01*
X677995Y355125D01*
Y356124D01*
X676996Y357124D01*
X674996D01*
X673996Y356124D01*
X623824Y355319D02*
X624823Y356319D01*
Y358318D01*
X623824Y359318D01*
X619825D01*
X618825Y358318D01*
Y356319D01*
X619825Y355319D01*
X618825Y353320D02*
Y351320D01*
Y352320D01*
X624823D01*
X623824Y353320D01*
X618825Y348321D02*
Y346322D01*
Y347322D01*
X624823D01*
X623824Y348321D01*
X615498Y386501D02*
X616498Y387501D01*
Y389500D01*
X615498Y390500D01*
X611500D01*
X610500Y389500D01*
Y387501D01*
X611500Y386501D01*
X610500Y384502D02*
Y382503D01*
Y383502D01*
X616498D01*
X615498Y384502D01*
Y379504D02*
X616498Y378504D01*
Y376504D01*
X615498Y375505D01*
X611500D01*
X610500Y376504D01*
Y378504D01*
X611500Y379504D01*
X615498D01*
X694311Y301964D02*
X694978Y302631D01*
Y303964D01*
X694311Y304630D01*
X691645D01*
X690979Y303964D01*
Y302631D01*
X691645Y301964D01*
Y300632D02*
X690979Y299965D01*
Y298632D01*
X691645Y297966D01*
X694311D01*
X694978Y298632D01*
Y299965D01*
X694311Y300632D01*
X693645D01*
X692978Y299965D01*
Y297966D01*
X671499Y291998D02*
X670499Y292998D01*
X668500D01*
X667500Y291998D01*
Y288000D01*
X668500Y287000D01*
X670499D01*
X671499Y288000D01*
X673498Y291998D02*
X674498Y292998D01*
X676497D01*
X677497Y291998D01*
Y290999D01*
X676497Y289999D01*
X677497Y288999D01*
Y288000D01*
X676497Y287000D01*
X674498D01*
X673498Y288000D01*
Y288999D01*
X674498Y289999D01*
X673498Y290999D01*
Y291998D01*
X674498Y289999D02*
X676497D01*
X625386Y292135D02*
X626385Y293134D01*
Y295134D01*
X625386Y296133D01*
X621387D01*
X620387Y295134D01*
Y293134D01*
X621387Y292135D01*
X626385Y290135D02*
Y286137D01*
X625386D01*
X621387Y290135D01*
X620387D01*
X617498Y318501D02*
X618498Y319501D01*
Y321500D01*
X617498Y322500D01*
X613500D01*
X612500Y321500D01*
Y319501D01*
X613500Y318501D01*
X618498Y312503D02*
X617498Y314503D01*
X615499Y316502D01*
X613500D01*
X612500Y315502D01*
Y313503D01*
X613500Y312503D01*
X614499D01*
X615499Y313503D01*
Y316502D01*
X423599Y172598D02*
X422599Y173598D01*
X420600D01*
X419600Y172598D01*
Y168600D01*
X420600Y167600D01*
X422599D01*
X423599Y168600D01*
X429597Y173598D02*
X425598D01*
Y170599D01*
X427597Y171599D01*
X428597D01*
X429597Y170599D01*
Y168600D01*
X428597Y167600D01*
X426598D01*
X425598Y168600D01*
X527299Y130998D02*
X526299Y131998D01*
X524300D01*
X523300Y130998D01*
Y127000D01*
X524300Y126000D01*
X526299D01*
X527299Y127000D01*
X532297Y126000D02*
Y131998D01*
X529298Y128999D01*
X533297D01*
X510999Y199998D02*
X509999Y200998D01*
X508000D01*
X507000Y199998D01*
Y196000D01*
X508000Y195000D01*
X509999D01*
X510999Y196000D01*
X512998Y199998D02*
X513998Y200998D01*
X515997D01*
X516997Y199998D01*
Y198999D01*
X515997Y197999D01*
X514997D01*
X515997D01*
X516997Y196999D01*
Y196000D01*
X515997Y195000D01*
X513998D01*
X512998Y196000D01*
X316999Y131498D02*
X315999Y132498D01*
X314000D01*
X313000Y131498D01*
Y127500D01*
X314000Y126500D01*
X315999D01*
X316999Y127500D01*
X322997Y126500D02*
X318998D01*
X322997Y130499D01*
Y131498D01*
X321997Y132498D01*
X319998D01*
X318998Y131498D01*
X342499Y199998D02*
X341499Y200998D01*
X339500D01*
X338500Y199998D01*
Y196000D01*
X339500Y195000D01*
X341499D01*
X342499Y196000D01*
X344498Y195000D02*
X346497D01*
X345498D01*
Y200998D01*
X344498Y199998D01*
X251695Y332624D02*
X250612Y331541D01*
X248446D01*
X247363Y332624D01*
Y333707D01*
X248446Y334790D01*
X249529D01*
X248446D01*
X247363Y335873D01*
Y336955D01*
X248446Y338038D01*
X250612D01*
X251695Y336955D01*
X245198Y331541D02*
Y338038D01*
X241949D01*
X240866Y336955D01*
Y332624D01*
X241949Y331541D01*
X245198D01*
X238700Y334790D02*
X234368D01*
X232202Y338038D02*
Y331541D01*
X228953D01*
X227870Y332624D01*
Y334790D01*
X228953Y335873D01*
X232202D01*
X230036D02*
X227870Y338038D01*
X222455Y331541D02*
X224621D01*
X225704Y332624D01*
Y336955D01*
X224621Y338038D01*
X222455D01*
X221372Y336955D01*
Y332624D01*
X222455Y331541D01*
X219206Y338038D02*
Y331541D01*
X217040Y333707D01*
X214874Y331541D01*
Y338038D01*
X212708D02*
Y333707D01*
X210542Y331541D01*
X208376Y333707D01*
Y338038D01*
Y334790D01*
X212708D01*
X206210Y338038D02*
Y331541D01*
X202961D01*
X201878Y332624D01*
Y334790D01*
X202961Y335873D01*
X206210D01*
X193214Y338038D02*
Y331541D01*
X189965D01*
X188882Y332624D01*
Y334790D01*
X189965Y335873D01*
X193214D01*
X185633Y338038D02*
X183467D01*
X182385Y336955D01*
Y334790D01*
X183467Y333707D01*
X185633D01*
X186716Y334790D01*
Y336955D01*
X185633Y338038D01*
X180219Y333707D02*
Y336955D01*
X179136Y338038D01*
X178052Y336955D01*
X176970Y338038D01*
X175887Y336955D01*
Y333707D01*
X170472Y338038D02*
X172638D01*
X173721Y336955D01*
Y334790D01*
X172638Y333707D01*
X170472D01*
X169389Y334790D01*
Y335873D01*
X173721D01*
X167223Y333707D02*
Y338038D01*
Y335873D01*
X166140Y334790D01*
X165057Y333707D01*
X163974D01*
X149895Y332624D02*
X150978Y331541D01*
X153144D01*
X154227Y332624D01*
Y333707D01*
X153144Y334790D01*
X150978D01*
X149895Y335873D01*
Y336955D01*
X150978Y338038D01*
X153144D01*
X154227Y336955D01*
X147729Y333707D02*
Y336955D01*
X146646Y338038D01*
X143397D01*
Y333707D01*
X141231Y340205D02*
Y333707D01*
X137982D01*
X136899Y334790D01*
Y336955D01*
X137982Y338038D01*
X141231D01*
X134733Y340205D02*
Y333707D01*
X131484D01*
X130401Y334790D01*
Y336955D01*
X131484Y338038D01*
X134733D01*
X128235D02*
X126069D01*
X127152D01*
Y331541D01*
X128235D01*
X122820Y333707D02*
Y336955D01*
X121737Y338038D01*
X118488D01*
Y339122D01*
X119571Y340205D01*
X120654D01*
X118488Y338038D02*
Y333707D01*
X245530Y343706D02*
X246196Y343040D01*
X247529D01*
X248195Y343706D01*
Y346372D01*
X247529Y347039D01*
X246196D01*
X245530Y346372D01*
X243530Y344373D02*
X242197D01*
X241531Y345039D01*
Y347039D01*
X243530D01*
X244197Y346372D01*
X243530Y345706D01*
X241531D01*
X240198Y347039D02*
X238865D01*
X239531D01*
Y343040D01*
X240198D01*
X236866Y347039D02*
X235533D01*
X236199D01*
Y344373D01*
X236866D01*
X232867Y347039D02*
Y343706D01*
Y345039D01*
X233534D01*
X232201D01*
X232867D01*
Y343706D01*
X232201Y343040D01*
X229535Y347039D02*
X228202D01*
X227535Y346372D01*
Y345039D01*
X228202Y344373D01*
X229535D01*
X230201Y345039D01*
Y346372D01*
X229535Y347039D01*
X226203Y344373D02*
Y347039D01*
Y345706D01*
X225536Y345039D01*
X224870Y344373D01*
X224203D01*
X222204Y347039D02*
Y344373D01*
X220204D01*
X219538Y345039D01*
Y347039D01*
X218205D02*
X216872D01*
X217539D01*
Y344373D01*
X218205D01*
X214206D02*
X212874D01*
X212207Y345039D01*
Y347039D01*
X214206D01*
X214873Y346372D01*
X214206Y345706D01*
X212207D01*
X204210Y343706D02*
X204876Y343040D01*
X206209D01*
X206875Y343706D01*
Y344373D01*
X206209Y345039D01*
X204876D01*
X204210Y345706D01*
Y346372D01*
X204876Y347039D01*
X206209D01*
X206875Y346372D01*
X202210Y343706D02*
Y344373D01*
X202877D01*
X201544D01*
X202210D01*
Y346372D01*
X201544Y347039D01*
X198878Y344373D02*
X197545D01*
X196879Y345039D01*
Y347039D01*
X198878D01*
X199544Y346372D01*
X198878Y345706D01*
X196879D01*
X194879Y343706D02*
Y344373D01*
X195546D01*
X194213D01*
X194879D01*
Y346372D01*
X194213Y347039D01*
X190214D02*
X191547D01*
X192213Y346372D01*
Y345039D01*
X191547Y344373D01*
X190214D01*
X189548Y345039D01*
Y345706D01*
X192213D01*
X184216Y343040D02*
Y346372D01*
X183550Y347039D01*
X182217D01*
X181550Y346372D01*
Y343040D01*
X180217Y347039D02*
Y344373D01*
X178218D01*
X177551Y345039D01*
Y347039D01*
X176219D02*
X174886D01*
X175552D01*
Y344373D01*
X176219D01*
X172886D02*
X171553Y347039D01*
X170221Y344373D01*
X168888Y347039D02*
Y346372D01*
X168221D01*
Y347039D01*
X168888D01*
X161557Y343040D02*
Y347039D01*
X158891D01*
X156892D02*
X155559D01*
X154892Y346372D01*
Y345039D01*
X155559Y344373D01*
X156892D01*
X157558Y345039D01*
Y346372D01*
X156892Y347039D01*
X153559D02*
Y344373D01*
X151560D01*
X150893Y345039D01*
Y347039D01*
X148228Y348371D02*
X147561D01*
X146895Y347705D01*
Y344373D01*
X148894D01*
X149560Y345039D01*
Y346372D01*
X148894Y347039D01*
X146895D01*
X141563Y343040D02*
Y347039D01*
X139564D01*
X138897Y346372D01*
Y345706D01*
X139564Y345039D01*
X141563D01*
X139564D01*
X138897Y344373D01*
Y343706D01*
X139564Y343040D01*
X141563D01*
X135565Y347039D02*
X136898D01*
X137564Y346372D01*
Y345039D01*
X136898Y344373D01*
X135565D01*
X134899Y345039D01*
Y345706D01*
X137564D01*
X132899Y344373D02*
X131566D01*
X130900Y345039D01*
Y347039D01*
X132899D01*
X133566Y346372D01*
X132899Y345706D01*
X130900D01*
X126901Y344373D02*
X128901D01*
X129567Y345039D01*
Y346372D01*
X128901Y347039D01*
X126901D01*
X125568Y343040D02*
Y347039D01*
Y345039D01*
X124902Y344373D01*
X123569D01*
X122903Y345039D01*
Y347039D01*
X245030Y350540D02*
X247695D01*
Y352539D01*
X246362D01*
X247695D01*
Y354538D01*
X243030Y351873D02*
X241697D01*
X241031Y352539D01*
Y354538D01*
X243030D01*
X243697Y353872D01*
X243030Y353206D01*
X241031D01*
X239698Y354538D02*
X238365D01*
X239032D01*
Y350540D01*
X239698D01*
X236366Y354538D02*
X235033D01*
X235699D01*
Y350540D01*
X236366D01*
X226369Y354538D02*
X229035D01*
X226369Y351873D01*
Y351206D01*
X227035Y350540D01*
X228368D01*
X229035Y351206D01*
X225036D02*
X224370Y350540D01*
X223037D01*
X222370Y351206D01*
Y353872D01*
X223037Y354538D01*
X224370D01*
X225036Y353872D01*
Y351206D01*
X221037Y354538D02*
X219704D01*
X220371D01*
Y350540D01*
X221037Y351206D01*
X217705D02*
X217039Y350540D01*
X215706D01*
X215039Y351206D01*
Y351873D01*
X215706Y352539D01*
X215039Y353206D01*
Y353872D01*
X215706Y354538D01*
X217039D01*
X217705Y353872D01*
Y353206D01*
X217039Y352539D01*
X217705Y351873D01*
Y351206D01*
X217039Y352539D02*
X215706D01*
X209708D02*
X207042D01*
X199044Y351206D02*
X199711Y350540D01*
X201044D01*
X201710Y351206D01*
Y351873D01*
X201044Y352539D01*
X199711D01*
X199044Y353206D01*
Y353872D01*
X199711Y354538D01*
X201044D01*
X201710Y353872D01*
X195712Y354538D02*
X197045D01*
X197712Y353872D01*
Y352539D01*
X197045Y351873D01*
X195712D01*
X195046Y352539D01*
Y353206D01*
X197712D01*
X193713Y354538D02*
Y351873D01*
X191714D01*
X191047Y352539D01*
Y354538D01*
X189714D02*
X188381D01*
X189048D01*
Y351873D01*
X189714D01*
X185715Y354538D02*
X184382D01*
X183716Y353872D01*
Y352539D01*
X184382Y351873D01*
X185715D01*
X186382Y352539D01*
Y353872D01*
X185715Y354538D01*
X182383Y351873D02*
Y354538D01*
Y353206D01*
X181717Y352539D01*
X181050Y351873D01*
X180384D01*
X174386Y350540D02*
Y354538D01*
X172386D01*
X171720Y353872D01*
Y351206D01*
X172386Y350540D01*
X174386D01*
X168388Y354538D02*
X169721D01*
X170387Y353872D01*
Y352539D01*
X169721Y351873D01*
X168388D01*
X167721Y352539D01*
Y353206D01*
X170387D01*
X166388Y354538D02*
X164389D01*
X163723Y353872D01*
X164389Y353206D01*
X165722D01*
X166388Y352539D01*
X165722Y351873D01*
X163723D01*
X162390Y354538D02*
X161057D01*
X161723D01*
Y351873D01*
X162390D01*
X157724Y355871D02*
X157058D01*
X156392Y355205D01*
Y351873D01*
X158391D01*
X159057Y352539D01*
Y353872D01*
X158391Y354538D01*
X156392D01*
X155059D02*
Y351873D01*
X153059D01*
X152393Y352539D01*
Y354538D01*
X697954Y443963D02*
Y437965D01*
X694954D01*
X693955Y438965D01*
Y440964D01*
X694954Y441964D01*
X697954D01*
X695954D02*
X693955Y443963D01*
X688956D02*
X690956D01*
X691955Y442963D01*
Y440964D01*
X690956Y439964D01*
X688956D01*
X687957Y440964D01*
Y441964D01*
X691955D01*
X685957Y439964D02*
X683958Y443963D01*
X681959Y439964D01*
X679959Y443963D02*
Y442963D01*
X678960D01*
Y443963D01*
X679959D01*
X664964Y438965D02*
X665964Y437965D01*
X667963D01*
X668963Y438965D01*
Y442963D01*
X667963Y443963D01*
X665964D01*
X664964Y442963D01*
D60*
X380130Y163789D02*
G03*
X317870Y163789I-31130J-4789D01*
G01*
Y154211D02*
G03*
X380111Y154088I31130J4789D01*
G01*
X450870Y222711D02*
G03*
X513130Y222711I31130J4789D01*
G01*
Y232289D02*
G03*
X450889Y232412I-31130J-4789D01*
G01*
X465870Y154211D02*
G03*
X528130Y154211I31130J4789D01*
G01*
Y163789D02*
G03*
X465889Y163912I-31130J-4789D01*
G01*
X400630Y231789D02*
G03*
X338370Y231789I-31130J-4789D01*
G01*
Y222211D02*
G03*
X400611Y222088I31130J4789D01*
G01*
X316000Y164000D02*
Y174657D01*
X381500Y164000D02*
Y192000D01*
Y126000D02*
Y154000D01*
X337348Y192000D02*
X381500D01*
X316000Y174657D02*
X337348Y192000D01*
X316000Y143071D02*
X337088Y126000D01*
X381500D01*
X316000Y143071D02*
Y154000D01*
X515000Y211842D02*
Y222500D01*
X449500Y194500D02*
Y222500D01*
Y232500D02*
Y260500D01*
Y194500D02*
X493652D01*
X515000Y211842D01*
X493912Y260500D02*
X515000Y243429D01*
X449500Y260500D02*
X493912D01*
X515000Y232500D02*
Y243429D01*
X530000Y143342D02*
Y154000D01*
X464500Y126000D02*
Y154000D01*
Y164000D02*
Y192000D01*
Y126000D02*
X508652D01*
X530000Y143342D01*
X508912Y192000D02*
X530000Y174929D01*
X464500Y192000D02*
X508912D01*
X530000Y164000D02*
Y174929D01*
X336500Y232000D02*
Y242657D01*
X402000Y232000D02*
Y260000D01*
Y194000D02*
Y222000D01*
X357847Y260000D02*
X402000D01*
X336500Y242657D02*
X357847Y260000D01*
X336500Y211071D02*
X357588Y194000D01*
X402000D01*
X336500Y211071D02*
Y222000D01*
D61*
X627079Y364591D02*
G03*
X627079Y364591I-492J0D01*
G01*
X293347Y303346D02*
G03*
X293347Y303346I-492J0D01*
G01*
X604839Y238646D02*
G03*
X604839Y238646I-492J0D01*
G01*
X463346Y304346D02*
G03*
X463346Y304346I-492J0D01*
G01*
X255646Y146854D02*
G03*
X255646Y146854I-492J0D01*
G01*
X628579Y300965D02*
G03*
X628579Y300965I-492J0D01*
G01*
D62*
X677988Y368358D02*
Y370327D01*
X677004Y369342D02*
X678972D01*
X683402Y366287D02*
X687339Y370224D01*
Y398965D01*
X654661Y370224D02*
Y398965D01*
Y370224D02*
X658598Y366287D01*
X676512D02*
X683402D01*
X658598D02*
X665488D01*
X654661Y398965D02*
X665488D01*
X676512D02*
X687339D01*
X172732Y143012D02*
X174701D01*
X173716Y142028D02*
Y143996D01*
X170661Y137598D02*
X174598Y133661D01*
X203339D01*
X174598Y166339D02*
X203339D01*
X170661Y162402D02*
X174598Y166339D01*
X170661Y137598D02*
Y144488D01*
Y155512D02*
Y162402D01*
X203339Y155512D02*
Y166339D01*
Y133661D02*
Y144488D01*
X172732Y177512D02*
X174701D01*
X173716Y176528D02*
Y178496D01*
X170661Y172098D02*
X174598Y168161D01*
X203339D01*
X174598Y200839D02*
X203339D01*
X170661Y196902D02*
X174598Y200839D01*
X170661Y172098D02*
Y178988D01*
Y190012D02*
Y196902D01*
X203339Y190012D02*
Y200839D01*
Y168161D02*
Y178988D01*
X284012Y385799D02*
Y387768D01*
X283028Y386784D02*
X284996D01*
X274661Y385902D02*
X278598Y389839D01*
X274661Y357161D02*
Y385902D01*
X307339Y357161D02*
Y385902D01*
X303402Y389839D02*
X307339Y385902D01*
X278598Y389839D02*
X285488D01*
X296512D02*
X303402D01*
X296512Y357161D02*
X307339D01*
X274661D02*
X285488D01*
X321012Y385799D02*
Y387768D01*
X320028Y386784D02*
X321996D01*
X311661Y385902D02*
X315598Y389839D01*
X311661Y357161D02*
Y385902D01*
X344339Y357161D02*
Y385902D01*
X340402Y389839D02*
X344339Y385902D01*
X315598Y389839D02*
X322488D01*
X333512D02*
X340402D01*
X333512Y357161D02*
X344339D01*
X311661D02*
X322488D01*
X454012Y386799D02*
Y388768D01*
X453028Y387784D02*
X454996D01*
X444661Y386902D02*
X448598Y390839D01*
X444661Y358161D02*
Y386902D01*
X477339Y358161D02*
Y386902D01*
X473402Y390839D02*
X477339Y386902D01*
X448598Y390839D02*
X455488D01*
X466512D02*
X473402D01*
X466512Y358161D02*
X477339D01*
X444661D02*
X455488D01*
X491512Y386799D02*
Y388768D01*
X490528Y387784D02*
X492496D01*
X482161Y386902D02*
X486098Y390839D01*
X482161Y358161D02*
Y386902D01*
X514839Y358161D02*
Y386902D01*
X510902Y390839D02*
X514839Y386902D01*
X486098Y390839D02*
X492988D01*
X504012D02*
X510902D01*
X504012Y358161D02*
X514839D01*
X482161D02*
X492988D01*
X686799Y247488D02*
X688768D01*
X687783Y246504D02*
Y248472D01*
X686902Y256839D02*
X690839Y252902D01*
X658161Y256839D02*
X686902D01*
X658161Y224161D02*
X686902D01*
X690839Y228098D01*
Y246012D02*
Y252902D01*
Y228098D02*
Y234988D01*
X658161Y224161D02*
Y234988D01*
Y246012D02*
Y256839D01*
X686799Y210488D02*
X688768D01*
X687783Y209504D02*
Y211472D01*
X686902Y219839D02*
X690839Y215902D01*
X658161Y219839D02*
X686902D01*
X658161Y187161D02*
X686902D01*
X690839Y191098D01*
Y209012D02*
Y215902D01*
Y191098D02*
Y197988D01*
X658161Y187161D02*
Y197988D01*
Y209012D02*
Y219839D01*
X262453Y223532D02*
Y227468D01*
X256547Y223532D02*
Y227468D01*
X267244Y125716D02*
Y129654D01*
X272756Y125716D02*
Y129654D01*
X359846Y289622D02*
Y292378D01*
X353153Y289622D02*
Y292378D01*
X334547Y293032D02*
Y296969D01*
X340453Y293032D02*
Y296969D01*
X283531Y133150D02*
X287469D01*
X283531Y126850D02*
X287469D01*
X264032Y189047D02*
X267969D01*
X264032Y194953D02*
X267969D01*
X264032Y197843D02*
X267969D01*
X264032Y203157D02*
X267969D01*
X539032Y293547D02*
X542969D01*
X539032Y299453D02*
X542969D01*
X594547Y158531D02*
Y162469D01*
X600453Y158531D02*
Y162469D01*
X448032Y293256D02*
X451968D01*
X448032Y287744D02*
X451968D01*
X593256Y249532D02*
Y253468D01*
X587744Y249532D02*
Y253468D01*
X529347Y288622D02*
Y291378D01*
X522653Y288622D02*
Y291378D01*
X589622Y172153D02*
X592378D01*
X589622Y178847D02*
X592378D01*
X448539Y274326D02*
Y278263D01*
X442240Y274326D02*
Y278263D01*
X504547Y292531D02*
Y296468D01*
X510453Y292531D02*
Y296468D01*
X573032Y251850D02*
X576968D01*
X573032Y258150D02*
X576968D01*
X595532Y197453D02*
X599469D01*
X595532Y191547D02*
X599469D01*
X513842Y287032D02*
Y290968D01*
X519158Y287032D02*
Y290968D01*
X589532Y188157D02*
X593469D01*
X589532Y182843D02*
X593469D01*
X626508Y373055D02*
Y375220D01*
X652492Y373055D02*
Y375220D01*
X626508Y373055D02*
X652492D01*
X297776Y303942D02*
X307224D01*
X297776Y281058D02*
X307224D01*
X604943Y224276D02*
Y233724D01*
X582058Y224276D02*
Y233724D01*
X467776Y304942D02*
X477224D01*
X467776Y282057D02*
X477224D01*
X678988Y304732D02*
Y306701D01*
X678004Y305716D02*
X679972D01*
X684402Y302661D02*
X688339Y306598D01*
Y335339D01*
X655661Y306598D02*
Y335339D01*
Y306598D02*
X659598Y302661D01*
X677512D02*
X684402D01*
X659598D02*
X666488D01*
X655661Y335339D02*
X666488D01*
X677512D02*
X688339D01*
X254557Y151776D02*
Y161224D01*
X277443Y151776D02*
Y161224D01*
X264622Y213347D02*
X267378D01*
X264622Y206653D02*
X267378D01*
X278031Y292256D02*
X281968D01*
X278031Y286744D02*
X281968D01*
X279650Y272031D02*
Y275969D01*
X273350Y272031D02*
Y275969D01*
X370031Y294547D02*
X373969D01*
X370031Y300453D02*
X373969D01*
X343843Y287531D02*
Y291469D01*
X349158Y287531D02*
Y291469D01*
X628008Y309429D02*
Y311595D01*
X653992Y309429D02*
Y311595D01*
X628008Y309429D02*
X653992D01*
D63*
X334862Y324000D02*
D03*
X504862Y325000D02*
D03*
D64*
X625500Y196638D02*
D03*
X234500Y188362D02*
D03*
M02*
