G04 Layer_Color=20142*
%FSLAX25Y25*%
%MOIN*%
G70*
G01*
G75*
%ADD64R,0.25457X0.28409*%
%ADD65R,0.07543X0.11087*%
%ADD66R,0.10102X0.07543*%
%ADD67R,0.08331X0.10693*%
%ADD68R,0.11087X0.09118*%
%ADD69R,0.07543X0.10299*%
%ADD70R,0.53213X0.16402*%
%ADD71R,0.09118X0.07543*%
G04:AMPARAMS|DCode=72|XSize=114.8mil|YSize=99.06mil|CornerRadius=25.91mil|HoleSize=0mil|Usage=FLASHONLY|Rotation=90.000|XOffset=0mil|YOffset=0mil|HoleType=Round|Shape=RoundedRectangle|*
%AMROUNDEDRECTD72*
21,1,0.11480,0.04724,0,0,90.0*
21,1,0.06299,0.09906,0,0,90.0*
1,1,0.05181,0.02362,0.03150*
1,1,0.05181,0.02362,-0.03150*
1,1,0.05181,-0.02362,-0.03150*
1,1,0.05181,-0.02362,0.03150*
%
%ADD72ROUNDEDRECTD72*%
%ADD73R,0.09709X0.09118*%
%ADD74R,0.31559X0.09906*%
%ADD75R,0.25000X0.13488*%
%ADD76O,0.06362X0.10693*%
%ADD77R,0.16598X0.14236*%
%ADD78R,0.11874X0.19748*%
%ADD79R,0.09315X0.08331*%
%ADD80R,0.07347X0.07543*%
%ADD81R,0.07543X0.07937*%
%ADD82R,0.07622X0.06913*%
%ADD83R,0.13488X0.25000*%
%ADD84O,0.10693X0.06362*%
%ADD85R,0.14236X0.16598*%
%ADD86R,0.07543X0.10102*%
%ADD87R,0.09118X0.11087*%
%ADD88R,0.10693X0.08331*%
G04:AMPARAMS|DCode=89|XSize=114.8mil|YSize=99.06mil|CornerRadius=25.91mil|HoleSize=0mil|Usage=FLASHONLY|Rotation=0.000|XOffset=0mil|YOffset=0mil|HoleType=Round|Shape=RoundedRectangle|*
%AMROUNDEDRECTD89*
21,1,0.11480,0.04724,0,0,0.0*
21,1,0.06299,0.09906,0,0,0.0*
1,1,0.05181,0.03150,-0.02362*
1,1,0.05181,-0.03150,-0.02362*
1,1,0.05181,-0.03150,0.02362*
1,1,0.05181,0.03150,0.02362*
%
%ADD89ROUNDEDRECTD89*%
%ADD90R,0.10299X0.07543*%
%ADD91R,0.16402X0.53213*%
%ADD92R,0.08331X0.09315*%
%ADD93R,0.06913X0.07622*%
%ADD94R,0.07543X0.07347*%
%ADD95R,0.07543X0.09118*%
%ADD96R,0.09118X0.09709*%
%ADD97R,0.19748X0.11874*%
%ADD98R,0.07937X0.07543*%
%ADD99R,0.14000X0.14000*%
%ADD100C,0.14000*%
%ADD101R,0.14000X0.14000*%
%ADD102C,0.23685*%
%ADD103C,0.09000*%
%ADD104C,0.05500*%
%ADD105C,0.06600*%
%ADD106C,0.06000*%
D64*
X641000Y325374D02*
D03*
X639500Y389000D02*
D03*
D65*
X649976Y300965D02*
D03*
X632024D02*
D03*
X648476Y364591D02*
D03*
X630524D02*
D03*
D66*
X346500Y294717D02*
D03*
Y284283D02*
D03*
X516500Y294216D02*
D03*
Y283784D02*
D03*
D67*
X366291Y297500D02*
D03*
X377709D02*
D03*
X603209Y194500D02*
D03*
X591791D02*
D03*
X535291Y296500D02*
D03*
X546709D02*
D03*
X260291Y192000D02*
D03*
X271709D02*
D03*
D68*
X276500Y267898D02*
D03*
Y280102D02*
D03*
X445390Y270192D02*
D03*
Y282397D02*
D03*
D69*
X285315Y289500D02*
D03*
X274685D02*
D03*
X455315Y290500D02*
D03*
X444685D02*
D03*
D70*
X389000Y389216D02*
D03*
Y328783D02*
D03*
X559000Y390216D02*
D03*
Y329784D02*
D03*
D71*
X284500Y298560D02*
D03*
Y305440D02*
D03*
X455008Y299586D02*
D03*
Y306467D02*
D03*
D72*
X271905Y210000D02*
D03*
X260094D02*
D03*
X585094Y175500D02*
D03*
X596906D02*
D03*
D73*
X615500Y306650D02*
D03*
Y300350D02*
D03*
X446000Y305650D02*
D03*
Y299350D02*
D03*
X436000Y305650D02*
D03*
Y299350D02*
D03*
X276000Y304650D02*
D03*
Y298350D02*
D03*
X266000Y304650D02*
D03*
Y298350D02*
D03*
X613500Y370650D02*
D03*
Y364350D02*
D03*
D74*
X396500Y227000D02*
D03*
X342500D02*
D03*
X470000Y159000D02*
D03*
X524000D02*
D03*
X455000Y227500D02*
D03*
X509000D02*
D03*
X376000Y159000D02*
D03*
X322000D02*
D03*
D75*
X266000Y156500D02*
D03*
X593500Y229000D02*
D03*
D76*
X273500Y166146D02*
D03*
X268500D02*
D03*
X263500D02*
D03*
X258500D02*
D03*
X273500Y146854D02*
D03*
X268500D02*
D03*
X263500D02*
D03*
X258500D02*
D03*
X586000Y219354D02*
D03*
X591000D02*
D03*
X596000D02*
D03*
X601000D02*
D03*
X586000Y238646D02*
D03*
X591000D02*
D03*
X596000D02*
D03*
X601000D02*
D03*
D77*
X234500Y200173D02*
D03*
Y171827D02*
D03*
X625500Y184827D02*
D03*
Y213173D02*
D03*
D78*
X672000Y332976D02*
D03*
Y305024D02*
D03*
X498500Y360524D02*
D03*
Y388476D02*
D03*
X461000Y360524D02*
D03*
Y388476D02*
D03*
X328000Y359524D02*
D03*
Y387476D02*
D03*
X291000Y359524D02*
D03*
Y387476D02*
D03*
X671000Y396602D02*
D03*
Y368650D02*
D03*
D79*
X286000Y278756D02*
D03*
Y273244D02*
D03*
X456000Y279756D02*
D03*
Y274244D02*
D03*
D80*
X325441Y289000D02*
D03*
X330559D02*
D03*
X495441Y290000D02*
D03*
X500559D02*
D03*
D81*
X421343Y161500D02*
D03*
X426657D02*
D03*
X693157Y181500D02*
D03*
X687843D02*
D03*
X488534Y308834D02*
D03*
X483219D02*
D03*
X168342Y207000D02*
D03*
X173658D02*
D03*
X319771Y306370D02*
D03*
X314456D02*
D03*
D82*
X320000Y288559D02*
D03*
Y293441D02*
D03*
X490000Y289559D02*
D03*
Y294441D02*
D03*
D83*
X472500Y293500D02*
D03*
X302500Y292500D02*
D03*
D84*
X482146Y286000D02*
D03*
Y291000D02*
D03*
Y296000D02*
D03*
Y301000D02*
D03*
X462854Y286000D02*
D03*
Y291000D02*
D03*
Y296000D02*
D03*
Y301000D02*
D03*
X312146Y285000D02*
D03*
Y290000D02*
D03*
Y295000D02*
D03*
Y300000D02*
D03*
X292854Y285000D02*
D03*
Y290000D02*
D03*
Y295000D02*
D03*
Y300000D02*
D03*
D85*
X516673Y325000D02*
D03*
X488327D02*
D03*
X346673Y324000D02*
D03*
X318327D02*
D03*
D86*
X596716Y185500D02*
D03*
X586283D02*
D03*
X260784Y200500D02*
D03*
X271217D02*
D03*
D87*
X568898Y255000D02*
D03*
X581102D02*
D03*
X291602Y130000D02*
D03*
X279398D02*
D03*
D88*
X507500Y300209D02*
D03*
Y288791D02*
D03*
X597500Y166209D02*
D03*
Y154791D02*
D03*
X337500Y300709D02*
D03*
Y289291D02*
D03*
X259500Y219791D02*
D03*
Y231209D02*
D03*
D89*
X526000Y284095D02*
D03*
Y295905D02*
D03*
X356500Y285094D02*
D03*
Y296905D02*
D03*
D90*
X590500Y246185D02*
D03*
Y256815D02*
D03*
X270000Y133000D02*
D03*
Y122370D02*
D03*
D91*
X690216Y142500D02*
D03*
X629783D02*
D03*
X170783Y246500D02*
D03*
X231217D02*
D03*
D92*
X579256Y244500D02*
D03*
X573744D02*
D03*
X280244Y143000D02*
D03*
X285756D02*
D03*
D93*
X591059Y212000D02*
D03*
X595941D02*
D03*
X268441Y174500D02*
D03*
X263559D02*
D03*
D94*
X591500Y206559D02*
D03*
Y201441D02*
D03*
X268500Y179941D02*
D03*
Y185059D02*
D03*
D95*
X599060Y246500D02*
D03*
X605940D02*
D03*
X261440Y138000D02*
D03*
X254560D02*
D03*
D96*
X605650Y255500D02*
D03*
X599350D02*
D03*
X605650Y265500D02*
D03*
X599350D02*
D03*
X254850Y130000D02*
D03*
X261150D02*
D03*
X254850Y120000D02*
D03*
X261150D02*
D03*
D97*
X660524Y203500D02*
D03*
X688476D02*
D03*
X660524Y240500D02*
D03*
X688476D02*
D03*
X200976Y184500D02*
D03*
X173024D02*
D03*
X200976Y150000D02*
D03*
X173024D02*
D03*
D98*
X520000Y392657D02*
D03*
Y387343D02*
D03*
X608948Y211281D02*
D03*
Y216596D02*
D03*
X350000Y391657D02*
D03*
Y386343D02*
D03*
X252346Y174478D02*
D03*
Y169163D02*
D03*
X692000Y381968D02*
D03*
Y387283D02*
D03*
X621775Y365512D02*
D03*
Y370827D02*
D03*
X693500Y310343D02*
D03*
Y315657D02*
D03*
X623338Y301634D02*
D03*
Y306949D02*
D03*
D99*
X414000Y141500D02*
D03*
X358000Y415000D02*
D03*
X514500Y416000D02*
D03*
D100*
X434000Y141500D02*
D03*
X713500Y319000D02*
D03*
Y392626D02*
D03*
X338000Y415000D02*
D03*
X494500Y416000D02*
D03*
X715500Y188000D02*
D03*
X146000Y194500D02*
D03*
D101*
X713500Y299000D02*
D03*
Y372626D02*
D03*
X715500Y168000D02*
D03*
X146000Y214500D02*
D03*
D102*
X567025Y126036D02*
D03*
X722930Y426824D02*
D03*
X136316D02*
D03*
Y126036D02*
D03*
D103*
X672000Y142500D02*
D03*
X556500Y315500D02*
D03*
X557500Y372500D02*
D03*
X246500Y242500D02*
D03*
X192000Y248000D02*
D03*
X386000Y374500D02*
D03*
X409000Y236500D02*
D03*
X387000Y166500D02*
D03*
X442000Y217500D02*
D03*
X454500Y172000D02*
D03*
X587000Y403500D02*
D03*
X605000Y357850D02*
D03*
X655500Y340000D02*
D03*
X655000Y403626D02*
D03*
X385000Y315000D02*
D03*
X607012Y139768D02*
D03*
D104*
X478000Y308000D02*
D03*
X293000Y306500D02*
D03*
X308500D02*
D03*
X462500Y308000D02*
D03*
X253560Y149500D02*
D03*
X609119Y239075D02*
D03*
X608996Y223863D02*
D03*
X252500Y162000D02*
D03*
D105*
X305068Y317710D02*
D03*
X299568D02*
D03*
Y313210D02*
D03*
X305068D02*
D03*
X305041Y272733D02*
D03*
X300041D02*
D03*
Y277233D02*
D03*
X305041D02*
D03*
X305000Y285500D02*
D03*
Y299500D02*
D03*
X300000D02*
D03*
Y285500D02*
D03*
X474846Y273004D02*
D03*
X469845D02*
D03*
X474846Y277504D02*
D03*
X469845D02*
D03*
X470075Y318641D02*
D03*
X475075D02*
D03*
Y314141D02*
D03*
X470075D02*
D03*
X470000Y300500D02*
D03*
X475000D02*
D03*
Y286500D02*
D03*
X470000D02*
D03*
X620113Y231911D02*
D03*
Y226911D02*
D03*
X615613D02*
D03*
Y231911D02*
D03*
X570233Y226000D02*
D03*
Y231500D02*
D03*
X575233Y226000D02*
D03*
Y231500D02*
D03*
X600500D02*
D03*
Y226500D02*
D03*
X586500D02*
D03*
Y231500D02*
D03*
X288854Y159120D02*
D03*
Y154120D02*
D03*
X242912Y154000D02*
D03*
Y159000D02*
D03*
X247412Y154000D02*
D03*
Y159000D02*
D03*
X284354Y159120D02*
D03*
Y154120D02*
D03*
X273000Y154000D02*
D03*
Y159000D02*
D03*
X259500D02*
D03*
Y154000D02*
D03*
D106*
X345500Y389000D02*
D03*
X515000Y390000D02*
D03*
X172000Y202000D02*
D03*
X690000Y187000D02*
D03*
M02*
