G04 Layer_Color=25308*
%FSLAX25Y25*%
%MOIN*%
G70*
G01*
G75*
%ADD10R,0.27559X0.05906*%
%ADD11R,0.03937X0.03543*%
%ADD12R,0.05709X0.05118*%
%ADD13R,0.07874X0.15748*%
%ADD14R,0.03543X0.03937*%
%ADD15R,0.15748X0.07874*%
%ADD16R,0.05118X0.05709*%
%ADD17R,0.03543X0.05118*%
%ADD18R,0.03543X0.03347*%
%ADD19R,0.02913X0.03622*%
%ADD20R,0.04331X0.05315*%
%ADD21R,0.05118X0.03543*%
%ADD22R,0.03347X0.03543*%
%ADD23R,0.03622X0.02913*%
%ADD24R,0.05315X0.04331*%
%ADD25R,0.12402X0.49213*%
%ADD26R,0.49213X0.12402*%
%ADD27R,0.06693X0.04331*%
%ADD28R,0.06299X0.03543*%
G04:AMPARAMS|DCode=29|XSize=74.8mil|YSize=59.06mil|CornerRadius=5.91mil|HoleSize=0mil|Usage=FLASHONLY|Rotation=0.000|XOffset=0mil|YOffset=0mil|HoleType=Round|Shape=RoundedRectangle|*
%AMROUNDEDRECTD29*
21,1,0.07480,0.04724,0,0,0.0*
21,1,0.06299,0.05906,0,0,0.0*
1,1,0.01181,0.03150,-0.02362*
1,1,0.01181,-0.03150,-0.02362*
1,1,0.01181,-0.03150,0.02362*
1,1,0.01181,0.03150,0.02362*
%
%ADD29ROUNDEDRECTD29*%
%ADD30R,0.05118X0.07087*%
%ADD31R,0.04331X0.06693*%
%ADD32R,0.03543X0.06102*%
%ADD33R,0.03543X0.06299*%
G04:AMPARAMS|DCode=34|XSize=74.8mil|YSize=59.06mil|CornerRadius=5.91mil|HoleSize=0mil|Usage=FLASHONLY|Rotation=270.000|XOffset=0mil|YOffset=0mil|HoleType=Round|Shape=RoundedRectangle|*
%AMROUNDEDRECTD34*
21,1,0.07480,0.04724,0,0,270.0*
21,1,0.06299,0.05906,0,0,270.0*
1,1,0.01181,-0.02362,-0.03150*
1,1,0.01181,-0.02362,0.03150*
1,1,0.01181,0.02362,0.03150*
1,1,0.01181,0.02362,-0.03150*
%
%ADD34ROUNDEDRECTD34*%
%ADD35R,0.07087X0.05118*%
%ADD36R,0.06102X0.03543*%
%ADD37R,0.03543X0.07087*%
%ADD38R,0.21457X0.24410*%
%ADD39O,0.06693X0.02362*%
%ADD40R,0.09488X0.21000*%
%ADD41O,0.02362X0.06693*%
%ADD42R,0.21000X0.09488*%
%ADD43R,0.10236X0.12598*%
%ADD44R,0.12598X0.10236*%
%ADD51C,0.10000*%
%ADD52R,0.10000X0.10000*%
%ADD53R,0.10000X0.10000*%
D10*
X322000Y159000D02*
D03*
X376000D02*
D03*
X509000Y227500D02*
D03*
X455000D02*
D03*
X524000Y159000D02*
D03*
X470000D02*
D03*
X342500Y227000D02*
D03*
X396500D02*
D03*
D11*
X623338Y306949D02*
D03*
Y301634D02*
D03*
X693500Y315657D02*
D03*
Y310343D02*
D03*
X621775Y370827D02*
D03*
Y365512D02*
D03*
X692000Y387283D02*
D03*
Y381968D02*
D03*
X252346Y169163D02*
D03*
Y174478D02*
D03*
X350000Y386343D02*
D03*
Y391657D02*
D03*
X608948Y216596D02*
D03*
Y211281D02*
D03*
X520000Y387343D02*
D03*
Y392657D02*
D03*
D12*
X613500Y364350D02*
D03*
Y370650D02*
D03*
X266000Y298350D02*
D03*
Y304650D02*
D03*
X276000Y298350D02*
D03*
Y304650D02*
D03*
X436000Y299350D02*
D03*
Y305650D02*
D03*
X446000Y299350D02*
D03*
Y305650D02*
D03*
X615500Y300350D02*
D03*
Y306650D02*
D03*
D13*
X671000Y368650D02*
D03*
Y396602D02*
D03*
X291000Y387476D02*
D03*
Y359524D02*
D03*
X328000Y387476D02*
D03*
Y359524D02*
D03*
X461000Y388476D02*
D03*
Y360524D02*
D03*
X498500Y388476D02*
D03*
Y360524D02*
D03*
X672000Y305024D02*
D03*
Y332976D02*
D03*
D14*
X314456Y306370D02*
D03*
X319771D02*
D03*
X173658Y207000D02*
D03*
X168342D02*
D03*
X483219Y308834D02*
D03*
X488534D02*
D03*
X687843Y181500D02*
D03*
X693157D02*
D03*
X426657Y161500D02*
D03*
X421343D02*
D03*
D15*
X173024Y150000D02*
D03*
X200976D02*
D03*
X173024Y184500D02*
D03*
X200976D02*
D03*
X688476Y240500D02*
D03*
X660524D02*
D03*
X688476Y203500D02*
D03*
X660524D02*
D03*
D16*
X261150Y120000D02*
D03*
X254850D02*
D03*
X261150Y130000D02*
D03*
X254850D02*
D03*
X599350Y265500D02*
D03*
X605650D02*
D03*
X599350Y255500D02*
D03*
X605650D02*
D03*
D17*
X254560Y138000D02*
D03*
X261440D02*
D03*
X605940Y246500D02*
D03*
X599060D02*
D03*
D18*
X268500Y185059D02*
D03*
Y179941D02*
D03*
X591500Y201441D02*
D03*
Y206559D02*
D03*
D19*
X263559Y174500D02*
D03*
X268441D02*
D03*
X595941Y212000D02*
D03*
X591059D02*
D03*
D20*
X285756Y143000D02*
D03*
X280244D02*
D03*
X573744Y244500D02*
D03*
X579256D02*
D03*
D21*
X455008Y306467D02*
D03*
Y299586D02*
D03*
X284500Y305440D02*
D03*
Y298560D02*
D03*
D22*
X500559Y290000D02*
D03*
X495441D02*
D03*
X330559Y289000D02*
D03*
X325441D02*
D03*
D23*
X490000Y294441D02*
D03*
Y289559D02*
D03*
X320000Y293441D02*
D03*
Y288559D02*
D03*
D24*
X456000Y274244D02*
D03*
Y279756D02*
D03*
X286000Y273244D02*
D03*
Y278756D02*
D03*
D25*
X231217Y246500D02*
D03*
X170783D02*
D03*
X629783Y142500D02*
D03*
X690216D02*
D03*
D26*
X559000Y329784D02*
D03*
Y390216D02*
D03*
X389000Y328783D02*
D03*
Y389216D02*
D03*
D27*
X259500Y231209D02*
D03*
Y219791D02*
D03*
X337500Y289291D02*
D03*
Y300709D02*
D03*
X597500Y154791D02*
D03*
Y166209D02*
D03*
X507500Y288791D02*
D03*
Y300209D02*
D03*
D28*
X270000Y122370D02*
D03*
Y133000D02*
D03*
X590500Y256815D02*
D03*
Y246185D02*
D03*
D29*
X356500Y296905D02*
D03*
Y285094D02*
D03*
X526000Y295905D02*
D03*
Y284095D02*
D03*
D30*
X279398Y130000D02*
D03*
X291602D02*
D03*
X581102Y255000D02*
D03*
X568898D02*
D03*
D31*
X271709Y192000D02*
D03*
X260291D02*
D03*
X546709Y296500D02*
D03*
X535291D02*
D03*
X591791Y194500D02*
D03*
X603209D02*
D03*
X377709Y297500D02*
D03*
X366291D02*
D03*
D32*
X271217Y200500D02*
D03*
X260784D02*
D03*
X586283Y185500D02*
D03*
X596716D02*
D03*
D33*
X444685Y290500D02*
D03*
X455315D02*
D03*
X274685Y289500D02*
D03*
X285315D02*
D03*
D34*
X596906Y175500D02*
D03*
X585094D02*
D03*
X260094Y210000D02*
D03*
X271905D02*
D03*
D35*
X445390Y282397D02*
D03*
Y270192D02*
D03*
X276500Y280102D02*
D03*
Y267898D02*
D03*
D36*
X516500Y283784D02*
D03*
Y294216D02*
D03*
X346500Y284283D02*
D03*
Y294717D02*
D03*
D37*
X630524Y364591D02*
D03*
X648476D02*
D03*
X632024Y300965D02*
D03*
X649976D02*
D03*
D38*
X639500Y389000D02*
D03*
X641000Y325374D02*
D03*
D39*
X292854Y300000D02*
D03*
Y295000D02*
D03*
Y290000D02*
D03*
Y285000D02*
D03*
X312146Y300000D02*
D03*
Y295000D02*
D03*
Y290000D02*
D03*
Y285000D02*
D03*
X462854Y301000D02*
D03*
Y296000D02*
D03*
Y291000D02*
D03*
Y286000D02*
D03*
X482146Y301000D02*
D03*
Y296000D02*
D03*
Y291000D02*
D03*
Y286000D02*
D03*
D40*
X302500Y292500D02*
D03*
X472500Y293500D02*
D03*
D41*
X601000Y238646D02*
D03*
X596000D02*
D03*
X591000D02*
D03*
X586000D02*
D03*
X601000Y219354D02*
D03*
X596000D02*
D03*
X591000D02*
D03*
X586000D02*
D03*
X258500Y146854D02*
D03*
X263500D02*
D03*
X268500D02*
D03*
X273500D02*
D03*
X258500Y166146D02*
D03*
X263500D02*
D03*
X268500D02*
D03*
X273500D02*
D03*
D42*
X593500Y229000D02*
D03*
X266000Y156500D02*
D03*
D43*
X318327Y324000D02*
D03*
X346673D02*
D03*
X488327Y325000D02*
D03*
X516673D02*
D03*
D44*
X625500Y213173D02*
D03*
Y184827D02*
D03*
X234500Y171827D02*
D03*
Y200173D02*
D03*
D51*
X146000Y194500D02*
D03*
X715500Y188000D02*
D03*
X494500Y416000D02*
D03*
X338000Y415000D02*
D03*
X713500Y392626D02*
D03*
Y319000D02*
D03*
X434000Y141500D02*
D03*
D52*
X146000Y214500D02*
D03*
X715500Y168000D02*
D03*
X713500Y372626D02*
D03*
Y299000D02*
D03*
D53*
X514500Y416000D02*
D03*
X358000Y415000D02*
D03*
X414000Y141500D02*
D03*
M02*
