  0
SECTION
  2
HEADER
  9
$ACADVER
  1
AC1014
  9
$HANDSEED
  5
FFFF
  9
$MEASUREMENT
 70
     1
  0
ENDSEC
  0
SECTION
  2
TABLES
  0
TABLE
  2
VPORT
  5
8
330
0
100
AcDbSymbolTable
 70
     4
  0
VPORT
  5
2E
330
8
100
AcDbSymbolTableRecord
100
AcDbViewportTableRecord
  2
*ACTIVE
 70
     0
 10
0.0
 20
0.0
 11
1.0
 21
1.0
 12
210.0
 22
148.5
 13
0.0
 23
0.0
 14
10.0
 24
10.0
 15
10.0
 25
10.0
 16
0.0
 26
0.0
 36
1.0
 17
0.0
 27
0.0
 37
0.0
 40
341.0
 41
1.24
 42
50.0
 43
0.0
 44
0.0
 50
0.0
 51
0.0
 71
     0
 72
   100
 73
     1
 74
     3
 75
     0
 76
     0
 77
     0
 78
     0
  0
ENDTAB
  0
TABLE
  2
LTYPE
  5
5
330
0
100
AcDbSymbolTable
 70
     1
  0
LTYPE
  5
14
330
5
100
AcDbSymbolTableRecord
100
AcDbLinetypeTableRecord
  2
BYBLOCK
 70
     0
  3

 72
    65
 73
     0
 40
0.0
  0
LTYPE
  5
15
330
5
100
AcDbSymbolTableRecord
100
AcDbLinetypeTableRecord
  2
BYLAYER
 70
     0
  3

 72
    65
 73
     0
 40
0.0
  0
LTYPE
  5
16
330
5
100
AcDbSymbolTableRecord
100
AcDbLinetypeTableRecord
  2
CONTINUOUS
 70
     0
  3
Solid line
 72
    65
 73
     0
 40
0.0
  0
ENDTAB
  0
TABLE
  2
LAYER
  5
2
100
AcDbSymbolTable
 70
1
  0
LAYER
  5
50
100
AcDbSymbolTableRecord
100
AcDbLayerTableRecord
  2
0
 70
0
  6
CONTINUOUS
  0
ENDTAB
  0
TABLE
  2
STYLE
  5
3
330
0
100
AcDbSymbolTable
 70
     1
  0
STYLE
  5
11
330
3
100
AcDbSymbolTableRecord
100
AcDbTextStyleTableRecord
  2
STANDARD
 70
     0
 40
0.0
 41
1.0
 50
0.0
 71
     0
 42
2.5
  3
txt
  4

  0
ENDTAB
  0
TABLE
  2
VIEW
  5
6
330
0
100
AcDbSymbolTable
 70
     0
  0
ENDTAB
  0
TABLE
  2
UCS
  5
7
330
0
100
AcDbSymbolTable
 70
     0
  0
ENDTAB
  0
TABLE
  2
APPID
  5
9
330
0
100
AcDbSymbolTable
 70
     2
  0
APPID
  5
12
330
9
100
AcDbSymbolTableRecord
100
AcDbRegAppTableRecord
  2
ACAD
 70
     0
  0
ENDTAB
  0
TABLE
  2
DIMSTYLE
  5
A
330
0
100
AcDbSymbolTable
 70
     1
  0
DIMSTYLE
105
27
330
A
100
AcDbSymbolTableRecord
100
AcDbDimStyleTableRecord
  2
ISO-25
 70
     0
  3

  4

  5

  6

  7

 40
1.0
 41
2.5
 42
0.625
 43
3.75
 44
1.25
 45
0.0
 46
0.0
 47
0.0
 48
0.0
140
2.5
141
2.5
142
0.0
143
0.03937007874016
144
1.0
145
0.0
146
1.0
147
0.625
 71
     0
 72
     0
 73
     0
 74
     0
 75
     0
 76
     0
 77
     1
 78
     8
170
     0
171
     3
172
     1
173
     0
174
     0
175
     0
176
     0
177
     0
178
     0
270
     2
271
     2
272
     2
273
     2
274
     3
340
11
275
     0
280
     0
281
     0
282
     0
283
     0
284
     8
285
     0
286
     0
287
     3
288
     0
  0
ENDTAB
  0
TABLE
  2
BLOCK_RECORD
  5
1
330
0
100
AcDbSymbolTable
 70
     1
  0
BLOCK_RECORD
  5
1F
330
1
100
AcDbSymbolTableRecord
100
AcDbBlockTableRecord
  2
*MODEL_SPACE
  0
BLOCK_RECORD
  5
1B
330
1
100
AcDbSymbolTableRecord
100
AcDbBlockTableRecord
  2
*PAPER_SPACE
  0
ENDTAB
  0
ENDSEC
  0
SECTION
  2
BLOCKS
  0
BLOCK
  5
20
330
1F
100
AcDbEntity
  8
0
100
AcDbBlockBegin
  2
*MODEL_SPACE
 70
     0
 10
0.0
 20
0.0
 30
0.0
  3
*MODEL_SPACE
  1

  0
ENDBLK
  5
21
330
1F
100
AcDbEntity
  8
0
100
AcDbBlockEnd
  0
BLOCK
  5
1C
330
1B
100
AcDbEntity
 67
     1
  8
0
100
AcDbBlockBegin
  2
*PAPER_SPACE
  1

  0
ENDBLK
  5
1D
330
1B
100
AcDbEntity
 67
     1
  8
0
100
AcDbBlockEnd
  0
ENDSEC
  0
SECTION
  2
ENTITIES
  0
LWPOLYLINE
  5
100
100
AcDbEntity
  8
0
 62
1
100
AcDbPolyline
 90
2
 70
0
 10
104.241412
 20
1091.967945
 30
0.0
 10
104.241412
 20
1074.405495
 30
0.0
  0
LWPOLYLINE
  5
101
100
AcDbEntity
  8
0
 62
1
100
AcDbPolyline
 90
92
 70
0
 10
33.443401
 20
1091.967945
 30
0.0
 10
104.241412
 20
1091.967945
 30
0.0
 10
104.241412
 20
1074.405495
 30
0.0
 10
175.039433
 20
1074.405495
 30
0.0
 10
175.039433
 20
1091.967945
 30
0.0
 10
245.837453
 20
1091.967945
 30
0.0
 10
245.837453
 20
1074.405495
 30
0.0
 10
316.635465
 20
1074.405495
 30
0.0
 10
316.635465
 20
1091.967945
 30
0.0
 10
387.433470
 20
1091.967945
 30
0.0
 10
387.433470
 20
1074.405495
 30
0.0
 10
458.231497
 20
1074.405495
 30
0.0
 10
458.231497
 20
1091.967945
 30
0.0
 10
529.029510
 20
1091.967945
 30
0.0
 10
529.029510
 20
1074.405495
 30
0.0
 10
599.827522
 20
1074.405495
 30
0.0
 10
599.827522
 20
1091.967945
 30
0.0
 10
670.625535
 20
1091.967945
 30
0.0
 10
670.625535
 20
1074.405495
 30
0.0
 10
741.423555
 20
1074.405495
 30
0.0
 10
741.423555
 20
1091.967945
 30
0.0
 10
812.221575
 20
1091.967945
 30
0.0
 10
812.221575
 20
1021.151745
 30
0.0
 10
794.663700
 20
1021.151745
 30
0.0
 10
794.663700
 20
950.335620
 30
0.0
 10
812.221575
 20
950.335620
 30
0.0
 10
812.221575
 20
879.519341
 30
0.0
 10
794.663700
 20
879.519341
 30
0.0
 10
794.663700
 20
808.703216
 30
0.0
 10
812.221575
 20
808.703216
 30
0.0
 10
812.221575
 20
737.887095
 30
0.0
 10
794.663700
 20
737.887095
 30
0.0
 10
794.663700
 20
667.070820
 30
0.0
 10
812.221575
 20
667.070820
 30
0.0
 10
812.221575
 20
596.254620
 30
0.0
 10
794.663700
 20
596.254620
 30
0.0
 10
794.663700
 20
525.438495
 30
0.0
 10
812.221575
 20
525.438495
 30
0.0
 10
812.221575
 20
454.622295
 30
0.0
 10
794.663700
 20
454.622295
 30
0.0
 10
794.663700
 20
383.806020
 30
0.0
 10
812.221575
 20
383.806020
 30
0.0
 10
812.221575
 20
312.989895
 30
0.0
 10
794.663700
 20
312.989895
 30
0.0
 10
794.663700
 20
242.173695
 30
0.0
 10
812.221575
 20
242.173695
 30
0.0
 10
812.221575
 20
171.357570
 30
0.0
 10
794.663700
 20
171.357570
 30
0.0
 10
794.663700
 20
100.541333
 30
0.0
 10
812.221575
 20
100.541333
 30
0.0
 10
812.221575
 20
29.725178
 30
0.0
 10
741.423555
 20
29.725178
 30
0.0
 10
741.423555
 20
47.287553
 30
0.0
 10
670.625535
 20
47.287553
 30
0.0
 10
670.625535
 20
29.725178
 30
0.0
 10
599.827522
 20
29.725178
 30
0.0
 10
599.827522
 20
47.287553
 30
0.0
 10
529.029510
 20
47.287553
 30
0.0
 10
529.029510
 20
29.725178
 30
0.0
 10
458.231497
 20
29.725178
 30
0.0
 10
458.231497
 20
47.287553
 30
0.0
 10
387.433470
 20
47.287553
 30
0.0
 10
387.433470
 20
29.725178
 30
0.0
 10
316.635465
 20
29.725178
 30
0.0
 10
316.635465
 20
47.287628
 30
0.0
 10
245.837453
 20
47.287628
 30
0.0
 10
245.837453
 20
29.725178
 30
0.0
 10
175.039433
 20
29.725178
 30
0.0
 10
175.039433
 20
47.287628
 30
0.0
 10
104.241412
 20
47.287628
 30
0.0
 10
104.241412
 20
29.725178
 30
0.0
 10
33.443401
 20
29.725178
 30
0.0
 10
33.443401
 20
100.541333
 30
0.0
 10
51.001309
 20
100.541333
 30
0.0
 10
51.001309
 20
171.357570
 30
0.0
 10
33.443401
 20
171.357570
 30
0.0
 10
33.443401
 20
242.173695
 30
0.0
 10
51.001309
 20
242.173695
 30
0.0
 10
51.001309
 20
312.989895
 30
0.0
 10
33.443401
 20
312.989895
 30
0.0
 10
33.443401
 20
383.806020
 30
0.0
 10
51.001309
 20
383.806020
 30
0.0
 10
51.001309
 20
454.622295
 30
0.0
 10
33.443401
 20
454.622295
 30
0.0
 10
33.443401
 20
525.438495
 30
0.0
 10
51.001309
 20
525.438495
 30
0.0
 10
51.001309
 20
596.254620
 30
0.0
 10
33.443401
 20
596.254620
 30
0.0
 10
33.443401
 20
667.070820
 30
0.0
 10
51.001309
 20
667.070820
 30
0.0
 10
51.001309
 20
737.887095
 30
0.0
 10
33.443401
 20
737.887095
 30
0.0
  0
LWPOLYLINE
  5
102
100
AcDbEntity
  8
0
 62
1
100
AcDbPolyline
 90
2
 70
0
 10
51.001309
 20
808.703216
 30
0.0
 10
33.443401
 20
808.703216
 30
0.0
  0
LWPOLYLINE
  5
103
100
AcDbEntity
  8
0
 62
1
100
AcDbPolyline
 90
3
 70
0
 10
33.443401
 20
737.887095
 30
0.0
 10
33.443401
 20
808.703216
 30
0.0
 10
51.001309
 20
808.703216
 30
0.0
  0
LWPOLYLINE
  5
104
100
AcDbEntity
  8
0
 62
1
100
AcDbPolyline
 90
7
 70
0
 10
51.001309
 20
879.519341
 30
0.0
 10
33.443401
 20
879.519341
 30
0.0
 10
33.443401
 20
950.335620
 30
0.0
 10
51.001309
 20
950.335620
 30
0.0
 10
51.001309
 20
1021.151745
 30
0.0
 10
33.443401
 20
1021.151745
 30
0.0
 10
33.443401
 20
1091.967945
 30
0.0
  0
SPLINE
  5
105
100
AcDbEntity
  8
0
 62
1
100
AcDbSpline
 70
8
 71
3
 72
8
 73
4
 74
0
 40
0
 40
0
 40
0
 40
0
 40
1
 40
1
 40
1
 40
1
 10
434.160172
 20
348.397995
 30
0.0
 10
434.160172
 20
352.446026
 30
0.0
 10
432.001128
 20
356.186561
 30
0.0
 10
428.496330
 20
358.210576
 30
0.0
  0
SPLINE
  5
106
100
AcDbEntity
  8
0
 62
1
100
AcDbSpline
 70
8
 71
3
 72
8
 73
4
 74
0
 40
0
 40
0
 40
0
 40
0
 40
1
 40
1
 40
1
 40
1
 10
428.496330
 20
358.210576
 30
0.0
 10
424.991532
 20
360.234592
 30
0.0
 10
420.673443
 20
360.234592
 30
0.0
 10
417.168645
 20
358.210576
 30
0.0
  0
SPLINE
  5
107
100
AcDbEntity
  8
0
 62
1
100
AcDbSpline
 70
8
 71
3
 72
8
 73
4
 74
0
 40
0
 40
0
 40
0
 40
0
 40
1
 40
1
 40
1
 40
1
 10
417.168645
 20
358.210576
 30
0.0
 10
413.663847
 20
356.186561
 30
0.0
 10
411.504802
 20
352.446026
 30
0.0
 10
411.504802
 20
348.397995
 30
0.0
  0
SPLINE
  5
108
100
AcDbEntity
  8
0
 62
1
100
AcDbSpline
 70
8
 71
3
 72
8
 73
4
 74
0
 40
0
 40
0
 40
0
 40
0
 40
1
 40
1
 40
1
 40
1
 10
411.504802
 20
348.397995
 30
0.0
 10
411.504802
 20
344.349964
 30
0.0
 10
413.663847
 20
340.609429
 30
0.0
 10
417.168645
 20
338.585414
 30
0.0
  0
SPLINE
  5
109
100
AcDbEntity
  8
0
 62
1
100
AcDbSpline
 70
8
 71
3
 72
8
 73
4
 74
0
 40
0
 40
0
 40
0
 40
0
 40
1
 40
1
 40
1
 40
1
 10
417.168645
 20
338.585414
 30
0.0
 10
420.673443
 20
336.561398
 30
0.0
 10
424.991532
 20
336.561398
 30
0.0
 10
428.496330
 20
338.585414
 30
0.0
  0
SPLINE
  5
10a
100
AcDbEntity
  8
0
 62
1
100
AcDbSpline
 70
8
 71
3
 72
8
 73
4
 74
0
 40
0
 40
0
 40
0
 40
0
 40
1
 40
1
 40
1
 40
1
 10
428.496330
 20
338.585414
 30
0.0
 10
432.001128
 20
340.609429
 30
0.0
 10
434.160172
 20
344.349964
 30
0.0
 10
434.160172
 20
348.397995
 30
0.0
  0
LWPOLYLINE
  5
10b
100
AcDbEntity
  8
0
 62
1
100
AcDbPolyline
 90
2
 70
0
 10
51.001309
 20
879.519341
 30
0.0
 10
51.001309
 20
808.703216
 30
0.0
  0
SPLINE
  5
10c
100
AcDbEntity
  8
0
 62
1
100
AcDbSpline
 70
8
 71
3
 72
8
 73
4
 74
0
 40
0
 40
0
 40
0
 40
0
 40
1
 40
1
 40
1
 40
1
 10
347.078617
 20
1017.752595
 30
0.0
 10
347.078617
 20
1019.017606
 30
0.0
 10
346.403915
 20
1020.186525
 30
0.0
 10
345.308664
 20
1020.819031
 30
0.0
  0
SPLINE
  5
10d
100
AcDbEntity
  8
0
 62
1
100
AcDbSpline
 70
8
 71
3
 72
8
 73
4
 74
0
 40
0
 40
0
 40
0
 40
0
 40
1
 40
1
 40
1
 40
1
 10
345.308664
 20
1020.819031
 30
0.0
 10
344.213414
 20
1021.451536
 30
0.0
 10
342.864009
 20
1021.451536
 30
0.0
 10
341.768758
 20
1020.819031
 30
0.0
  0
SPLINE
  5
10e
100
AcDbEntity
  8
0
 62
1
100
AcDbSpline
 70
8
 71
3
 72
8
 73
4
 74
0
 40
0
 40
0
 40
0
 40
0
 40
1
 40
1
 40
1
 40
1
 10
341.768758
 20
1020.819031
 30
0.0
 10
340.673507
 20
1020.186525
 30
0.0
 10
339.998805
 20
1019.017606
 30
0.0
 10
339.998805
 20
1017.752595
 30
0.0
  0
SPLINE
  5
10f
100
AcDbEntity
  8
0
 62
1
100
AcDbSpline
 70
8
 71
3
 72
8
 73
4
 74
0
 40
0
 40
0
 40
0
 40
0
 40
1
 40
1
 40
1
 40
1
 10
339.998805
 20
1017.752595
 30
0.0
 10
339.998805
 20
1016.487584
 30
0.0
 10
340.673507
 20
1015.318665
 30
0.0
 10
341.768758
 20
1014.686159
 30
0.0
  0
SPLINE
  5
110
100
AcDbEntity
  8
0
 62
1
100
AcDbSpline
 70
8
 71
3
 72
8
 73
4
 74
0
 40
0
 40
0
 40
0
 40
0
 40
1
 40
1
 40
1
 40
1
 10
341.768758
 20
1014.686159
 30
0.0
 10
342.864009
 20
1014.053654
 30
0.0
 10
344.213414
 20
1014.053654
 30
0.0
 10
345.308664
 20
1014.686159
 30
0.0
  0
SPLINE
  5
111
100
AcDbEntity
  8
0
 62
1
100
AcDbSpline
 70
8
 71
3
 72
8
 73
4
 74
0
 40
0
 40
0
 40
0
 40
0
 40
1
 40
1
 40
1
 40
1
 10
345.308664
 20
1014.686159
 30
0.0
 10
346.403915
 20
1015.318665
 30
0.0
 10
347.078617
 20
1016.487584
 30
0.0
 10
347.078617
 20
1017.752595
 30
0.0
  0
LWPOLYLINE
  5
112
100
AcDbEntity
  8
0
 62
1
100
AcDbPolyline
 90
1
 70
1
 10
434.160172
 20
348.397995
 30
0.0
  0
SPLINE
  5
113
100
AcDbEntity
  8
0
 62
1
100
AcDbSpline
 70
8
 71
3
 72
8
 73
4
 74
0
 40
0
 40
0
 40
0
 40
0
 40
1
 40
1
 40
1
 40
1
 10
505.666162
 20
1017.752595
 30
0.0
 10
505.666162
 20
1019.017605
 30
0.0
 10
504.991461
 20
1020.186523
 30
0.0
 10
503.896211
 20
1020.819028
 30
0.0
  0
SPLINE
  5
114
100
AcDbEntity
  8
0
 62
1
100
AcDbSpline
 70
8
 71
3
 72
8
 73
4
 74
0
 40
0
 40
0
 40
0
 40
0
 40
1
 40
1
 40
1
 40
1
 10
503.896211
 20
1020.819028
 30
0.0
 10
502.800962
 20
1021.451533
 30
0.0
 10
501.451558
 20
1021.451533
 30
0.0
 10
500.356309
 20
1020.819028
 30
0.0
  0
SPLINE
  5
115
100
AcDbEntity
  8
0
 62
1
100
AcDbSpline
 70
8
 71
3
 72
8
 73
4
 74
0
 40
0
 40
0
 40
0
 40
0
 40
1
 40
1
 40
1
 40
1
 10
500.356309
 20
1020.819028
 30
0.0
 10
499.261059
 20
1020.186523
 30
0.0
 10
498.586357
 20
1019.017605
 30
0.0
 10
498.586357
 20
1017.752595
 30
0.0
  0
SPLINE
  5
116
100
AcDbEntity
  8
0
 62
1
100
AcDbSpline
 70
8
 71
3
 72
8
 73
4
 74
0
 40
0
 40
0
 40
0
 40
0
 40
1
 40
1
 40
1
 40
1
 10
498.586357
 20
1017.752595
 30
0.0
 10
498.586357
 20
1016.487585
 30
0.0
 10
499.261059
 20
1015.318668
 30
0.0
 10
500.356309
 20
1014.686163
 30
0.0
  0
SPLINE
  5
117
100
AcDbEntity
  8
0
 62
1
100
AcDbSpline
 70
8
 71
3
 72
8
 73
4
 74
0
 40
0
 40
0
 40
0
 40
0
 40
1
 40
1
 40
1
 40
1
 10
500.356309
 20
1014.686163
 30
0.0
 10
501.451558
 20
1014.053658
 30
0.0
 10
502.800962
 20
1014.053658
 30
0.0
 10
503.896211
 20
1014.686163
 30
0.0
  0
SPLINE
  5
118
100
AcDbEntity
  8
0
 62
1
100
AcDbSpline
 70
8
 71
3
 72
8
 73
4
 74
0
 40
0
 40
0
 40
0
 40
0
 40
1
 40
1
 40
1
 40
1
 10
503.896211
 20
1014.686163
 30
0.0
 10
504.991461
 20
1015.318668
 30
0.0
 10
505.666162
 20
1016.487585
 30
0.0
 10
505.666162
 20
1017.752595
 30
0.0
  0
LWPOLYLINE
  5
119
100
AcDbEntity
  8
0
 62
1
100
AcDbPolyline
 90
1
 70
1
 10
347.078617
 20
1017.752595
 30
0.0
  0
SPLINE
  5
11a
100
AcDbEntity
  8
0
 62
1
100
AcDbSpline
 70
8
 71
3
 72
8
 73
4
 74
0
 40
0
 40
0
 40
0
 40
0
 40
1
 40
1
 40
1
 40
1
 10
483.010800
 20
819.467291
 30
0.0
 10
483.010800
 20
820.732301
 30
0.0
 10
482.336098
 20
821.901219
 30
0.0
 10
481.240849
 20
822.533724
 30
0.0
  0
SPLINE
  5
11b
100
AcDbEntity
  8
0
 62
1
100
AcDbSpline
 70
8
 71
3
 72
8
 73
4
 74
0
 40
0
 40
0
 40
0
 40
0
 40
1
 40
1
 40
1
 40
1
 10
481.240849
 20
822.533724
 30
0.0
 10
480.145599
 20
823.166229
 30
0.0
 10
478.796196
 20
823.166229
 30
0.0
 10
477.700946
 20
822.533724
 30
0.0
  0
SPLINE
  5
11c
100
AcDbEntity
  8
0
 62
1
100
AcDbSpline
 70
8
 71
3
 72
8
 73
4
 74
0
 40
0
 40
0
 40
0
 40
0
 40
1
 40
1
 40
1
 40
1
 10
477.700946
 20
822.533724
 30
0.0
 10
476.605697
 20
821.901219
 30
0.0
 10
475.930995
 20
820.732301
 30
0.0
 10
475.930995
 20
819.467291
 30
0.0
  0
SPLINE
  5
11d
100
AcDbEntity
  8
0
 62
1
100
AcDbSpline
 70
8
 71
3
 72
8
 73
4
 74
0
 40
0
 40
0
 40
0
 40
0
 40
1
 40
1
 40
1
 40
1
 10
475.930995
 20
819.467291
 30
0.0
 10
475.930995
 20
818.202281
 30
0.0
 10
476.605697
 20
817.033364
 30
0.0
 10
477.700946
 20
816.400859
 30
0.0
  0
SPLINE
  5
11e
100
AcDbEntity
  8
0
 62
1
100
AcDbSpline
 70
8
 71
3
 72
8
 73
4
 74
0
 40
0
 40
0
 40
0
 40
0
 40
1
 40
1
 40
1
 40
1
 10
477.700946
 20
816.400859
 30
0.0
 10
478.796196
 20
815.768354
 30
0.0
 10
480.145599
 20
815.768354
 30
0.0
 10
481.240849
 20
816.400859
 30
0.0
  0
SPLINE
  5
11f
100
AcDbEntity
  8
0
 62
1
100
AcDbSpline
 70
8
 71
3
 72
8
 73
4
 74
0
 40
0
 40
0
 40
0
 40
0
 40
1
 40
1
 40
1
 40
1
 10
481.240849
 20
816.400859
 30
0.0
 10
482.336098
 20
817.033364
 30
0.0
 10
483.010800
 20
818.202281
 30
0.0
 10
483.010800
 20
819.467291
 30
0.0
  0
LWPOLYLINE
  5
120
100
AcDbEntity
  8
0
 62
1
100
AcDbPolyline
 90
1
 70
1
 10
505.666162
 20
1017.752595
 30
0.0
  0
SPLINE
  5
121
100
AcDbEntity
  8
0
 62
1
100
AcDbSpline
 70
8
 71
3
 72
8
 73
4
 74
0
 40
0
 40
0
 40
0
 40
0
 40
1
 40
1
 40
1
 40
1
 10
369.733980
 20
819.467291
 30
0.0
 10
369.733980
 20
820.732301
 30
0.0
 10
369.059278
 20
821.901219
 30
0.0
 10
367.964029
 20
822.533724
 30
0.0
  0
SPLINE
  5
122
100
AcDbEntity
  8
0
 62
1
100
AcDbSpline
 70
8
 71
3
 72
8
 73
4
 74
0
 40
0
 40
0
 40
0
 40
0
 40
1
 40
1
 40
1
 40
1
 10
367.964029
 20
822.533724
 30
0.0
 10
366.868779
 20
823.166229
 30
0.0
 10
365.519376
 20
823.166229
 30
0.0
 10
364.424126
 20
822.533724
 30
0.0
  0
SPLINE
  5
123
100
AcDbEntity
  8
0
 62
1
100
AcDbSpline
 70
8
 71
3
 72
8
 73
4
 74
0
 40
0
 40
0
 40
0
 40
0
 40
1
 40
1
 40
1
 40
1
 10
364.424126
 20
822.533724
 30
0.0
 10
363.328877
 20
821.901219
 30
0.0
 10
362.654175
 20
820.732301
 30
0.0
 10
362.654175
 20
819.467291
 30
0.0
  0
SPLINE
  5
124
100
AcDbEntity
  8
0
 62
1
100
AcDbSpline
 70
8
 71
3
 72
8
 73
4
 74
0
 40
0
 40
0
 40
0
 40
0
 40
1
 40
1
 40
1
 40
1
 10
362.654175
 20
819.467291
 30
0.0
 10
362.654175
 20
818.202281
 30
0.0
 10
363.328877
 20
817.033364
 30
0.0
 10
364.424126
 20
816.400859
 30
0.0
  0
SPLINE
  5
125
100
AcDbEntity
  8
0
 62
1
100
AcDbSpline
 70
8
 71
3
 72
8
 73
4
 74
0
 40
0
 40
0
 40
0
 40
0
 40
1
 40
1
 40
1
 40
1
 10
364.424126
 20
816.400859
 30
0.0
 10
365.519376
 20
815.768354
 30
0.0
 10
366.868779
 20
815.768354
 30
0.0
 10
367.964029
 20
816.400859
 30
0.0
  0
SPLINE
  5
126
100
AcDbEntity
  8
0
 62
1
100
AcDbSpline
 70
8
 71
3
 72
8
 73
4
 74
0
 40
0
 40
0
 40
0
 40
0
 40
1
 40
1
 40
1
 40
1
 10
367.964029
 20
816.400859
 30
0.0
 10
369.059278
 20
817.033364
 30
0.0
 10
369.733980
 20
818.202281
 30
0.0
 10
369.733980
 20
819.467291
 30
0.0
  0
LWPOLYLINE
  5
127
100
AcDbEntity
  8
0
 62
1
100
AcDbPolyline
 90
1
 70
1
 10
483.010800
 20
819.467291
 30
0.0
  0
LWPOLYLINE
  5
128
100
AcDbEntity
  8
0
 62
1
100
AcDbPolyline
 90
1
 70
1
 10
369.733980
 20
819.467291
 30
0.0
  0
LWPOLYLINE
  5
129
100
AcDbEntity
  8
0
 62
1
100
AcDbPolyline
 90
4
 70
1
 10
509.489258
 20
907.279389
 30
0.0
 10
489.665813
 20
907.279389
 30
0.0
 10
489.665813
 20
969.597570
 30
0.0
 10
509.489258
 20
969.597570
 30
0.0
  0
ENDSEC
  0
SECTION
  2
OBJECTS
  0
DICTIONARY
  5
C
330
0
100
AcDbDictionary
  3
ACAD_GROUP
350
D
  3
ACAD_MLINESTYLE
350
17
  0
DICTIONARY
  5
D
330
C
100
AcDbDictionary
  0
DICTIONARY
  5
1A
330
C
100
AcDbDictionary
  0
DICTIONARY
  5
17
330
C
100
AcDbDictionary
  3
STANDARD
350
18
  0
DICTIONARY
  5
19
330
C
100
AcDbDictionary
  0
ENDSEC
  0
EOF
